SplineFontDB: 3.0
FontName: EthanHandwritingLight
FullName: Ethan Handwriting Light
FamilyName: Ethan Handwriting
Weight: Light
Copyright: Created with the help of MyScriptFont.com\nCopyright belongs to the Creator.
Version: 001.000
ItalicAngle: 0
UnderlinePosition: -100
UnderlineWidth: 50
Ascent: 800
Descent: 200
InvalidEm: 0
sfntRevision: 0x00010000
LayerCount: 2
Layer: 0 0 "Back" 1
Layer: 1 0 "Fore" 0
XUID: [1021 668 1240808111 14116387]
StyleMap: 0x0000
FSType: 0
OS2Version: 4
OS2_WeightWidthSlopeOnly: 0
OS2_UseTypoMetrics: 1
CreationTime: 1277802766
ModificationTime: 1491012196
PfmFamily: 17
TTFWeight: 300
TTFWidth: 5
LineGap: 90
VLineGap: 0
Panose: 2 0 6 3 0 0 0 0 0 0
OS2TypoAscent: 800
OS2TypoAOffset: 0
OS2TypoDescent: -200
OS2TypoDOffset: 0
OS2TypoLinegap: 90
OS2WinAscent: 800
OS2WinAOffset: 0
OS2WinDescent: 71
OS2WinDOffset: 0
HheadAscent: 800
HheadAOffset: 0
HheadDescent: -71
HheadDOffset: 0
OS2SubXSize: 650
OS2SubYSize: 700
OS2SubXOff: 0
OS2SubYOff: 140
OS2SupXSize: 650
OS2SupYSize: 700
OS2SupXOff: 0
OS2SupYOff: 480
OS2StrikeYSize: 49
OS2StrikeYPos: 258
OS2CapHeight: 696
OS2XHeight: 492
OS2Vendor: 'PfEd'
OS2CodePages: 00000001.00000000
OS2UnicodeRanges: 80000007.00000002.00000000.00000000
Lookup: 258 0 0 "'kern' Horizontal Kerning in Latin lookup 1" { "'kern' Horizontal Kerning in Latin lookup 1-1" [150,0,2] } ['kern' ('DFLT' <'dflt' > 'latn' <'dflt' > ) ]
MarkAttachClasses: 1
DEI: 91125
KernClass2: 48 45 "'kern' Horizontal Kerning in Latin lookup 1-1"
 1 A
 1 B
 1 C
 1 D
 1 E
 1 F
 1 G
 1 H
 1 I
 1 J
 1 K
 1 L
 3 M i
 1 N
 1 O
 1 P
 1 Q
 1 R
 1 S
 1 T
 1 U
 1 V
 1 W
 1 X
 1 Y
 1 Z
 1 a
 1 b
 1 c
 1 d
 1 e
 1 f
 3 g u
 1 h
 1 j
 1 k
 1 l
 3 m n
 3 o p
 1 q
 1 r
 1 s
 1 t
 1 v
 3 w y
 1 x
 1 z
 1 A
 3 B N
 3 C Q
 1 D
 1 E
 3 F b
 1 G
 1 H
 1 I
 1 J
 3 K l
 1 L
 1 M
 1 O
 1 P
 1 R
 1 S
 1 T
 1 U
 3 V W
 1 X
 1 Y
 1 Z
 3 a q
 3 c o
 1 d
 1 e
 1 f
 1 g
 1 h
 1 i
 1 j
 1 k
 3 m n
 1 p
 1 r
 1 s
 1 t
 1 u
 1 v
 1 w
 1 x
 1 y
 1 z

StartChar: .notdef
Encoding: 65536 -1 0
Width: 543
Flags: HMW
HStem: 0 50<117 417 117 467> 483 50<117 417 117 117>
VStem: 67 50<50 50 50 483> 417 50<50 483 483 483>
LayerCount: 2
Fore
SplineSet
67 0 m 1
 67 533 l 1
 467 533 l 1
 467 0 l 1
 67 0 l 1
117 50 m 1
 417 50 l 1
 417 483 l 1
 117 483 l 1
 117 50 l 1
EndSplineSet
EndChar

StartChar: exclam
Encoding: 33 33 2
Width: 262
Flags: HMW
HStem: 72.8574 82.1426
VStem: 48.6649 110.714 118.665 37.8574 157.95 35.7148
LayerCount: 2
Fore
SplineSet
172.94921875 679.286132812 m 0xb0
 192.94921875 687.142578125 193.6640625 687.142578125 203.6640625 677.142578125 c 0
 215.092773438 665.713867188 215.092773438 575 203.6640625 555 c 0
 198.6640625 546.428710938 194.377929688 530 193.6640625 517.857421875 c 0
 192.235351562 487.857421875 162.235351562 285.713867188 156.521484375 264.286132812 c 0
 150.806640625 245.713867188 130.092773438 236.428710938 118.6640625 247.857421875 c 0
 115.092773438 251.428710938 119.377929688 297.857421875 129.377929688 357.142578125 c 0
 150.806640625 485 157.235351562 544.286132812 157.94921875 617.142578125 c 0
 158.6640625 666.428710938 160.092773438 674.286132812 172.94921875 679.286132812 c 0xb0
84.3779296875 155 m 0
 127.94921875 176.428710938 153.6640625 176.428710938 159.377929688 154.286132812 c 0
 165.092773438 131.428710938 159.377929688 115 136.521484375 90.7138671875 c 0
 120.806640625 74.2861328125 112.94921875 70.7138671875 88.6640625 72.857421875 c 0
 63.6640625 74.2861328125 57.2353515625 78.5712890625 48.6640625 95.7138671875 c 0xc0
 35.806640625 122.857421875 43.6640625 134.286132812 84.3779296875 155 c 0
EndSplineSet
EndChar

StartChar: quotedbl
Encoding: 34 34 3
Width: 321
Flags: HMW
VStem: 64.7754 202.143
LayerCount: 2
Fore
SplineSet
64.775390625 526.428710938 m 0
 69.087890625 583.922851562 78.720703125 677.661132812 121.91796875 628.571289062 c 0
 132.6328125 616.428710938 133.346679688 611.428710938 125.489257812 593.571289062 c 0
 121.204101562 582.142578125 114.775390625 549.286132812 112.6328125 520.713867188 c 0
 106.91796875 462.857421875 94.0615234375 445 72.6328125 466.428710938 c 0
 62.6328125 475.713867188 61.2041015625 487.142578125 64.775390625 526.428710938 c 0
208.346679688 600.713867188 m 0
 219.061523438 612.142578125 221.204101562 612.857421875 243.346679688 602.142578125 c 2
 266.91796875 590.713867188 l 1
 254.061523438 561.428710938 l 2
 244.061523438 539.286132812 241.91796875 519.286132812 244.061523438 480 c 0
 246.204101562 434.286132812 245.489257812 427.857421875 235.489257812 430 c 0
 202.6328125 436.428710938 181.91796875 571.428710938 208.346679688 600.713867188 c 0
EndSplineSet
EndChar

StartChar: numbersign
Encoding: 35 35 4
Width: 515
Flags: HMW
HStem: 221.429 39.2852 223.571 42.1426 446.429 39.2852
VStem: 302.859 41.4287 342.859 50
LayerCount: 2
Fore
SplineSet
185.002929688 645 m 0xb0
 192.145507812 652.857421875 212.145507812 650.71484375 221.430664062 641.4296875 c 0
 232.859375 630.000976562 232.145507812 595.71484375 219.288085938 560.71484375 c 0
 195.716796875 494.287109375 209.288085938 477.143554688 279.288085938 485.000976562 c 2
 317.859375 489.287109375 l 1
 331.430664062 528.572265625 l 2
 338.57421875 550.71484375 343.57421875 582.143554688 342.859375 603.572265625 c 0
 340.716796875 638.572265625 340.716796875 639.287109375 362.145507812 639.287109375 c 0
 378.57421875 639.287109375 385.716796875 634.287109375 392.859375 619.287109375 c 0xa8
 399.288085938 606.4296875 400.002929688 596.4296875 395.716796875 590.71484375 c 0
 392.145507812 585.71484375 385.002929688 564.287109375 380.716796875 542.858398438 c 0
 372.859375 507.858398438 373.57421875 502.858398438 385.002929688 494.287109375 c 0
 393.57421875 487.858398438 408.57421875 485.71484375 427.859375 488.572265625 c 0
 449.288085938 491.4296875 460.002929688 489.287109375 466.430664062 481.4296875 c 0
 474.288085938 471.4296875 473.57421875 467.858398438 459.288085938 456.4296875 c 0
 440.716796875 441.4296875 422.145507812 439.287109375 410.716796875 450.71484375 c 0
 391.430664062 470.000976562 344.288085938 432.858398438 344.288085938 397.858398438 c 0
 344.288085938 390.233398438 306.37109375 280.450195312 312.859375 270.71484375 c 0
 315.716796875 265.71484375 331.430664062 264.287109375 352.859375 265.71484375 c 0
 392.145507812 270.000976562 410.716796875 258.572265625 407.145507812 232.858398438 c 0
 405.002929688 216.4296875 394.288085938 215.000976562 335.002929688 223.572265625 c 0x70
 306.430664062 227.858398438 300.002929688 226.4296875 297.145507812 215.71484375 c 0
 295.002929688 209.287109375 287.145507812 190.71484375 280.002929688 174.287109375 c 0
 272.859375 157.858398438 265.002929688 130.71484375 262.145507812 112.858398438 c 0
 258.26171875 88.5888671875 235.850585938 32.0615234375 210.716796875 47.142578125 c 0
 196.430664062 56.4287109375 197.145507812 77.857421875 212.145507812 107.142578125 c 0
 227.859375 137.142578125 253.57421875 221.428710938 248.57421875 226.428710938 c 0
 246.430664062 229.286132812 224.288085938 230 199.288085938 229.286132812 c 0
 145.002929688 227.857421875 134.288085938 217.142578125 127.859375 162.142578125 c 0
 119.288085938 95 88.57421875 44.2861328125 61.4306640625 55 c 0
 43.57421875 61.4287109375 43.57421875 83.5712890625 62.1455078125 120 c 0
 72.1455078125 139.286132812 80.0029296875 165.713867188 80.0029296875 177.142578125 c 0
 80.0029296875 189.286132812 83.57421875 201.428710938 87.1455078125 203.571289062 c 0
 98.57421875 210.713867188 87.859375 221.428710938 68.57421875 221.428710938 c 0
 49.2880859375 221.428710938 37.859375 239.286132812 50.0029296875 251.428710938 c 0
 53.57421875 255 67.859375 259.286132812 81.4306640625 260.713867188 c 0
 101.430664062 262.142578125 105.002929688 265 107.145507812 282.857421875 c 0
 109.288085938 302.142578125 115.716796875 322.142578125 130.716796875 351.428710938 c 0
 134.288085938 358.571289062 137.145507812 370.713867188 137.145507812 378.571289062 c 0
 137.145507812 386.428710938 140.716796875 399.286132812 145.716796875 406.428710938 c 0
 158.57421875 427.857421875 147.859375 441.428710938 112.859375 446.428710938 c 0
 84.2880859375 450.713867188 80.0029296875 453.571289062 80.0029296875 468.571289062 c 0
 80.0029296875 487.142578125 83.57421875 488.571289062 127.859375 485.713867188 c 0
 157.145507812 484.286132812 157.859375 485 162.145507812 512.142578125 c 0
 166.5078125 542.680664062 180.002929688 587.131835938 180.002929688 620 c 0
 180.002929688 631.428710938 182.145507812 642.857421875 185.002929688 645 c 0xb0
302.859375 417.858398438 m 0x30
 305.002929688 445.000976562 304.2890625 446.428710938 283.575195312 447.142578125 c 0
 235.717773438 449.286132812 215.00390625 442.142578125 207.146484375 422.857421875 c 0
 202.146484375 412.142578125 195.00390625 398.571289062 190.00390625 392.857421875 c 0
 178.6953125 377.779296875 167.072265625 304.721679688 161.431640625 283.572265625 c 2
 156.431640625 263.572265625 l 1
 191.669921875 265.000976562 226.908203125 266.4296875 262.145507812 267.858398438 c 1
 268.57421875 296.4296875 l 2
 275.157226562 332.642578125 299.349609375 379.251953125 302.859375 417.858398438 c 0x30
EndSplineSet
EndChar

StartChar: dollar
Encoding: 36 36 5
Width: 400
Flags: HMW
HStem: 342.857 35.7139<228.266 239.061>
VStem: 128.98 43.5713 190.409 34.2861
LayerCount: 2
Fore
SplineSet
190.408203125 677.142578125 m 0
 191.836914062 682.142578125 200.408203125 685.713867188 208.979492188 684.286132812 c 0
 223.265625 682.142578125 225.408203125 677.857421875 224.694335938 650 c 0
 223.979492188 632.142578125 221.122070312 596.428710938 218.265625 570 c 2
 212.55078125 521.428710938 l 1
 240.408203125 521.428710938 l 2
 303.265625 521.428710938 362.55078125 473.571289062 334.694335938 445 c 0
 324.694335938 435.713867188 320.408203125 436.428710938 294.694335938 453.571289062 c 0
 273.265625 467.142578125 258.979492188 472.142578125 238.979492188 470 c 2
 211.122070312 467.857421875 l 1
 208.979492188 429.286132812 l 2
 206.836914062 387.142578125 212.55078125 378.571289062 243.979492188 378.571289062 c 0
 264.694335938 378.571289062 317.55078125 336.428710938 331.836914062 307.857421875 c 0
 337.55078125 297.142578125 343.979492188 276.428710938 346.836914062 262.142578125 c 0
 351.122070312 239.286132812 349.694335938 232.142578125 335.408203125 217.142578125 c 0
 309.694335938 189.286132812 276.836914062 172.142578125 246.122070312 168.571289062 c 0
 196.122070312 163.571289062 178.979492188 156.428710938 177.55078125 140 c 0
 175.546875 117.9453125 174.099609375 100.361328125 172.55078125 77.142578125 c 0
 171.836914062 54.2861328125 161.122070312 51.4287109375 141.836914062 69.2861328125 c 0
 132.55078125 77.857421875 128.979492188 90.7138671875 128.979492188 117.857421875 c 2
 128.979492188 155.713867188 l 1
 86.1220703125 168.571289062 l 2
 38.9794921875 183.571289062 32.55078125 196.428710938 56.8369140625 228.571289062 c 0
 68.265625 242.857421875 71.8369140625 244.286132812 81.8369140625 236.428710938 c 0
 88.265625 231.428710938 93.265625 222.857421875 93.265625 217.142578125 c 0
 93.265625 202.857421875 121.122070312 189.286132812 131.836914062 199.286132812 c 0
 141.122070312 209.286132812 156.122070312 305.713867188 150.408203125 325 c 0
 148.265625 335 139.694335938 340 121.836914062 341.428710938 c 0
 71.1220703125 346.428710938 48.9794921875 394.286132812 77.55078125 437.142578125 c 0
 91.1220703125 457.857421875 123.979492188 485.713867188 133.979492188 485.713867188 c 0
 137.55078125 485.713867188 147.55078125 492.857421875 155.408203125 502.142578125 c 0
 166.122070312 514.286132812 171.836914062 535.713867188 178.265625 592.857421875 c 0
 183.265625 634.286132812 188.265625 672.142578125 190.408203125 677.142578125 c 0
163.265625 416.428710938 m 0
 165.408203125 451.428710938 155.408203125 454.286132812 129.694335938 425 c 0
 104.694335938 396.428710938 102.55078125 387.142578125 118.979492188 380.713867188 c 0
 140.408203125 372.857421875 161.836914062 389.286132812 163.265625 416.428710938 c 0
303.979492188 284.286132812 m 2
 290.388671875 308.99609375 255.569335938 342.857421875 222.55078125 342.857421875 c 0
 204.694335938 342.857421875 203.265625 340 194.694335938 287.142578125 c 0
 182.55078125 207.857421875 183.265625 190 198.265625 196.428710938 c 0
 205.408203125 198.571289062 226.122070312 204.286132812 243.979492188 207.857421875 c 0
 265.408203125 212.142578125 284.694335938 222.857421875 297.55078125 236.428710938 c 2
 318.265625 257.857421875 l 1
 303.979492188 284.286132812 l 2
EndSplineSet
EndChar

StartChar: percent
Encoding: 37 37 6
Width: 446
Flags: HMW
VStem: 320.944 62.1426
LayerCount: 2
Fore
SplineSet
343.0859375 589.286132812 m 0
 373.0859375 602.142578125 374.514648438 602.142578125 383.0859375 582.857421875 c 0
 389.514648438 569.286132812 387.372070312 560.713867188 373.799804688 535.713867188 c 0
 358.475585938 506.342773438 346.431640625 477.630859375 327.372070312 458.571289062 c 0
 321.657226562 452.857421875 310.943359375 435 302.372070312 418.571289062 c 0
 294.514648438 402.857421875 258.0859375 344.286132812 221.657226562 289.286132812 c 0
 156.657226562 190.713867188 144.514648438 170 121.657226562 122.142578125 c 0
 103.799804688 82.857421875 75.943359375 50 60.228515625 50 c 0
 34.5146484375 50 37.3720703125 70.7138671875 70.228515625 120 c 0
 87.3720703125 146.428710938 108.799804688 182.857421875 116.657226562 201.428710938 c 0
 124.514648438 220 138.0859375 242.142578125 145.943359375 251.428710938 c 0
 154.514648438 260 160.943359375 270.713867188 160.943359375 275.713867188 c 0
 160.943359375 280 174.514648438 302.142578125 191.657226562 324.286132812 c 0
 230.943359375 376.428710938 253.799804688 412.857421875 253.799804688 423.571289062 c 0
 253.799804688 428.571289062 261.657226562 444.286132812 271.657226562 458.571289062 c 0
 281.657226562 472.857421875 289.514648438 487.142578125 289.514648438 490 c 0
 289.514648438 492.857421875 296.657226562 502.857421875 304.514648438 512.142578125 c 0
 314.514648438 521.428710938 320.228515625 537.857421875 320.943359375 554.286132812 c 0
 321.657226562 575.713867188 325.228515625 581.428710938 343.0859375 589.286132812 c 0
93.7998046875 572.857421875 m 0
 100.228515625 582.857421875 133.799804688 576.428710938 141.657226562 563.571289062 c 0
 146.657226562 555 145.228515625 547.142578125 135.228515625 533.571289062 c 0
 128.0859375 522.857421875 118.0859375 514.286132812 113.799804688 514.286132812 c 0
 105.228515625 514.286132812 88.0859375 563.571289062 93.7998046875 572.857421875 c 0
331.657226562 93.5712890625 m 0
 355.228515625 112.857421875 357.372070312 113.571289062 370.228515625 101.428710938 c 0
 389.514648438 84.2861328125 397.372070312 67.142578125 392.372070312 53.5712890625 c 0
 385.943359375 37.142578125 325.943359375 41.4287109375 315.228515625 59.2861328125 c 0
 308.799804688 70.7138671875 311.657226562 75.7138671875 331.657226562 93.5712890625 c 0
EndSplineSet
EndChar

StartChar: ampersand
Encoding: 38 38 7
Width: 419
Flags: HMW
VStem: 101.17 42.1426
LayerCount: 2
Fore
SplineSet
171.168945312 622.857421875 m 0
 210.454101562 650 271.168945312 650.713867188 306.168945312 624.286132812 c 0
 351.8828125 590 360.454101562 527.857421875 326.168945312 479.286132812 c 0
 319.026367188 469.286132812 308.311523438 451.428710938 302.59765625 439.286132812 c 0
 291.168945312 416.428710938 242.59765625 365.713867188 199.740234375 332.142578125 c 2
 171.8828125 310 l 1
 180.454101562 274.286132812 l 2
 185.454101562 254.286132812 201.8828125 220 216.8828125 197.857421875 c 2
 244.026367188 157.142578125 l 1
 282.59765625 197.142578125 l 2
 309.026367188 225 320.454101562 242.857421875 320.454101562 255.713867188 c 0
 320.454101562 272.142578125 323.311523438 275 341.168945312 275 c 0
 352.59765625 275 364.740234375 270 369.740234375 262.857421875 c 0
 376.168945312 252.142578125 368.311523438 242.142578125 321.8828125 197.142578125 c 0
 291.8828125 167.142578125 266.8828125 137.857421875 266.8828125 130.713867188 c 0
 266.8828125 124.286132812 278.311523438 106.428710938 292.59765625 92.142578125 c 0
 309.026367188 75 316.8828125 61.4287109375 314.740234375 54.2861328125 c 0
 305.454101562 30.7138671875 271.8828125 46.4287109375 243.311523438 87.142578125 c 0
 235.454101562 98.5712890625 230.454101562 97.142578125 188.311523438 71.4287109375 c 0
 154.026367188 50.7138671875 134.026367188 42.857421875 113.311523438 42.857421875 c 0
 85.4541015625 43.5712890625 84.0263671875 45 64.740234375 84.2861328125 c 0
 39.0263671875 138.571289062 38.3115234375 190.713867188 63.3115234375 235 c 0
 73.3115234375 251.428710938 81.1689453125 268.571289062 81.1689453125 272.142578125 c 0
 81.1689453125 275.713867188 91.1689453125 287.857421875 103.311523438 298.571289062 c 2
 124.740234375 317.857421875 l 1
 114.026367188 381.428710938 l 2
 107.59765625 415.713867188 101.8828125 467.857421875 101.168945312 497.142578125 c 0
 99.740234375 545.713867188 101.168945312 551.428710938 121.168945312 576.428710938 c 0
 133.311523438 591.428710938 156.168945312 612.142578125 171.168945312 622.857421875 c 0
293.311523438 596.428710938 m 0
 267.59765625 614.286132812 224.026367188 610 190.454101562 585.713867188 c 0
 156.168945312 560 144.740234375 535.713867188 143.311523438 484.286132812 c 0
 141.8828125 432.142578125 152.59765625 350 161.168945312 350 c 0
 164.740234375 350 184.740234375 362.857421875 205.454101562 378.571289062 c 0
 298.311523438 448.571289062 344.026367188 560.713867188 293.311523438 596.428710938 c 0
148.311523438 267.142578125 m 0
 141.8828125 283.571289062 136.8828125 281.428710938 114.026367188 252.857421875 c 0
 76.8828125 206.428710938 68.3115234375 115 98.3115234375 86.4287109375 c 0
 122.59765625 63.5712890625 166.8828125 71.4287109375 195.454101562 105 c 0
 219.740234375 132.142578125 219.740234375 132.857421875 176.168945312 194.286132812 c 0
 163.311523438 212.857421875 152.59765625 234.286132812 152.59765625 242.142578125 c 0
 152.59765625 250 150.454101562 260.713867188 148.311523438 267.142578125 c 0
EndSplineSet
EndChar

StartChar: parenleft
Encoding: 40 40 8
Width: 290
Flags: HMW
VStem: 61.527 44.2861
LayerCount: 2
Fore
SplineSet
181.52734375 715.713867188 m 0
 193.669921875 730 205.813476562 740 209.384765625 737.857421875 c 0
 212.2421875 735.713867188 211.52734375 730 206.52734375 724.286132812 c 0
 194.384765625 709.286132812 200.813476562 706.428710938 227.2421875 713.571289062 c 0
 247.2421875 719.286132812 250.098632812 718.571289062 250.098632812 707.142578125 c 0
 250.098632812 685.713867188 231.52734375 656.428710938 208.669921875 642.857421875 c 0
 187.956054688 630 167.956054688 594.286132812 139.384765625 521.428710938 c 0
 132.956054688 503.571289062 122.956054688 480 117.2421875 467.857421875 c 0
 109.384765625 452.142578125 106.52734375 412.142578125 105.813476562 314.286132812 c 0
 105.098632812 202.857421875 107.2421875 178.571289062 117.2421875 158.571289062 c 0
 123.669921875 146.428710938 131.52734375 135.713867188 135.098632812 135.713867188 c 0
 138.669921875 135.713867188 150.098632812 122.142578125 160.813476562 105.713867188 c 2
 180.813476562 75.7138671875 l 1
 164.384765625 62.857421875 l 2
 153.669921875 54.2861328125 145.098632812 52.142578125 136.52734375 57.142578125 c 0
 123.669921875 63.5712890625 71.52734375 143.571289062 68.669921875 159.286132812 c 0
 67.9560546875 164.286132812 65.0986328125 171.428710938 62.2421875 176.428710938 c 0
 59.384765625 180.713867188 59.384765625 256.428710938 61.52734375 344.286132812 c 0
 64.384765625 471.428710938 67.2421875 505 75.8134765625 509.286132812 c 0
 81.52734375 512.142578125 85.8134765625 519.286132812 85.8134765625 524.286132812 c 0
 85.8134765625 534.286132812 127.956054688 632.142578125 147.956054688 667.857421875 c 0
 154.384765625 680 169.384765625 700.713867188 181.52734375 715.713867188 c 0
EndSplineSet
EndChar

StartChar: parenright
Encoding: 41 41 9
Width: 253
Flags: HMW
VStem: 44.2569 150.715
LayerCount: 2
Fore
SplineSet
72.1142578125 723.571289062 m 0
 78.54296875 730.713867188 80.685546875 730 102.828125 714.286132812 c 0
 132.828125 692.857421875 172.828125 610 182.114257812 548.571289062 c 0
 186.400390625 520 192.114257812 490.713867188 194.971679688 483.571289062 c 0
 200.685546875 467.142578125 190.685546875 348.571289062 176.400390625 267.857421875 c 0
 167.114257812 215.713867188 161.400390625 198.571289062 142.828125 177.142578125 c 0
 130.685546875 162.857421875 109.971679688 136.428710938 97.1142578125 117.857421875 c 0
 72.828125 84.2861328125 57.1142578125 79.2861328125 44.2568359375 100 c 0
 39.2568359375 107.857421875 48.54296875 127.857421875 83.54296875 179.286132812 c 0
 125.685546875 242.142578125 129.971679688 252.857421875 137.828125 304.286132812 c 0
 148.54296875 378.571289062 149.256835938 495.713867188 139.971679688 535.713867188 c 0
 131.400390625 570.713867188 102.114257812 635.713867188 80.685546875 665.713867188 c 0
 67.1142578125 684.286132812 62.828125 714.286132812 72.1142578125 723.571289062 c 0
EndSplineSet
EndChar

StartChar: asterisk
Encoding: 42 42 10
Width: 417
Flags: W
LayerCount: 2
Fore
SplineSet
315.271484375 434.286132812 m 0
 337.415039062 461.428710938 340.986328125 462.142578125 358.12890625 442.857421875 c 0
 370.986328125 428.571289062 370.986328125 427.857421875 353.84375 409.286132812 c 0
 344.557617188 398.571289062 311.700195312 365 280.986328125 335.713867188 c 0
 250.986328125 306.428710938 225.986328125 277.142578125 225.986328125 270.713867188 c 0
 225.986328125 265 238.84375 250.713867188 254.557617188 238.571289062 c 0
 284.557617188 217.142578125 309.557617188 177.857421875 300.986328125 165 c 0
 295.271484375 155 268.84375 155 268.84375 164.286132812 c 0
 268.84375 175 198.84375 242.857421875 188.12890625 242.857421875 c 0
 183.12890625 242.857421875 158.12890625 222.142578125 133.12890625 196.428710938 c 0
 108.12890625 170.713867188 83.84375 150 78.84375 150 c 0
 66.7001953125 150 45.271484375 177.142578125 49.5576171875 187.142578125 c 0
 50.986328125 192.142578125 61.7001953125 201.428710938 73.12890625 207.142578125 c 0
 84.5576171875 212.857421875 108.12890625 231.428710938 125.271484375 247.857421875 c 0
 163.12890625 285.713867188 161.700195312 295.713867188 111.700195312 355.713867188 c 0
 77.4150390625 396.428710938 60.271484375 437.142578125 73.12890625 445 c 0
 88.84375 454.286132812 112.415039062 432.142578125 143.84375 379.286132812 c 0
 162.415039062 347.142578125 182.415039062 317.857421875 187.415039062 314.286132812 c 0
 193.84375 307.857421875 208.12890625 318.571289062 245.986328125 358.571289062 c 0
 273.12890625 387.142578125 304.557617188 421.428710938 315.271484375 434.286132812 c 0
EndSplineSet
EndChar

StartChar: plus
Encoding: 43 43 11
Width: 463
Flags: HMW
HStem: 316.429 40
VStem: 227.544 48.5713
LayerCount: 2
Fore
SplineSet
222.543945312 467.142578125 m 0
 229.686523438 487.142578125 249.686523438 491.428710938 263.97265625 477.142578125 c 0
 268.97265625 472.142578125 272.543945312 449.286132812 272.543945312 425.713867188 c 0
 272.543945312 362.857421875 275.401367188 361.428710938 351.115234375 357.857421875 c 2
 416.115234375 355.713867188 l 1
 413.97265625 336.428710938 l 2
 411.829101562 317.857421875 411.829101562 317.857421875 349.686523438 317.857421875 c 0
 316.115234375 317.857421875 285.401367188 315 282.543945312 312.142578125 c 0
 278.97265625 309.286132812 276.115234375 275.713867188 276.115234375 238.571289062 c 0
 275.401367188 175.713867188 273.97265625 169.286132812 256.829101562 152.142578125 c 0
 228.2578125 124.286132812 221.829101562 135 227.543945312 202.142578125 c 0
 232.543945312 265.713867188 231.829101562 305 225.401367188 315 c 0
 223.2578125 318.571289062 198.2578125 319.286132812 169.686523438 316.428710938 c 0
 136.829101562 314.286132812 103.2578125 315.713867188 80.4013671875 321.428710938 c 0
 48.97265625 328.571289062 43.2578125 332.142578125 45.4013671875 345.713867188 c 0
 46.8291015625 357.857421875 51.8291015625 360.713867188 72.5439453125 360 c 0
 86.115234375 359.286132812 122.543945312 357.857421875 153.2578125 356.428710938 c 0
 197.543945312 355 211.115234375 357.142578125 220.401367188 366.428710938 c 0
 229.686523438 375.713867188 231.115234375 380.713867188 223.97265625 387.142578125 c 0
 213.97265625 397.142578125 212.543945312 442.142578125 222.543945312 467.142578125 c 0
EndSplineSet
EndChar

StartChar: comma
Encoding: 44 44 12
Width: 233
Flags: HMW
VStem: 55.2513 50 111.68 45<125.357 137.5>
LayerCount: 2
Fore
SplineSet
122.393554688 165.713867188 m 0
 135.250976562 181.428710938 143.822265625 176.428710938 156.6796875 145.713867188 c 0
 165.250976562 125.713867188 165.250976562 119.286132812 156.6796875 102.142578125 c 0
 131.6796875 52.857421875 110.250976562 -0.7138671875 105.250976562 -25.7138671875 c 0
 99.537109375 -56.4287109375 92.3935546875 -64.2861328125 67.3935546875 -64.2861328125 c 0
 51.6796875 -64.2861328125 50.96484375 -62.142578125 55.2509765625 -37.142578125 c 0
 61.6796875 6.4287109375 82.3935546875 65.7138671875 97.3935546875 88.5712890625 c 0
 105.250976562 100 111.6796875 119.286132812 111.6796875 131.428710938 c 0
 111.6796875 143.571289062 115.96484375 159.286132812 122.393554688 165.713867188 c 0
EndSplineSet
EndChar

StartChar: hyphen
Encoding: 45 45 13
Width: 384
Flags: HMW
HStem: 217.143 43.5713
LayerCount: 2
Fore
SplineSet
63 232.142578125 m 0
 63 255.47265625 98.9638671875 263.2890625 127.28515625 260.713867188 c 0
 218.713867188 251.428710938 249.428710938 250.713867188 270.856445312 258.571289062 c 0
 289.428710938 265 296.571289062 265 305.142578125 257.857421875 c 0
 318.713867188 246.428710938 320.142578125 224.286132812 308 220 c 0
 303 218.571289062 245.856445312 217.142578125 180.856445312 217.142578125 c 0
 68.7138671875 217.857421875 63 218.571289062 63 232.142578125 c 0
EndSplineSet
EndChar

StartChar: period
Encoding: 46 46 14
Width: 211
Flags: W
LayerCount: 2
Fore
SplineSet
82.8076171875 120 m 0
 94.9501953125 132.857421875 109.236328125 142.857421875 113.522460938 142.857421875 c 0
 128.522460938 142.857421875 139.236328125 126.428710938 139.236328125 102.142578125 c 0
 139.236328125 57.857421875 85.6650390625 24.2861328125 67.8076171875 56.4287109375 c 0
 55.6650390625 80 59.236328125 96.4287109375 82.8076171875 120 c 0
EndSplineSet
EndChar

StartChar: slash
Encoding: 47 47 15
Width: 419
Flags: W
LayerCount: 2
Fore
SplineSet
234.3125 441.428710938 m 0
 234.3125 456.432617188 262.883789062 485.93359375 262.883789062 500.713867188 c 0
 262.883789062 506.428710938 265.741210938 514.286132812 269.3125 518.571289062 c 0
 279.3125 528.571289062 312.883789062 592.142578125 312.883789062 601.428710938 c 0
 312.883789062 605.713867188 317.883789062 615.713867188 325.026367188 622.857421875 c 0
 338.59765625 637.857421875 357.883789062 639.286132812 369.3125 625.713867188 c 0
 378.59765625 614.286132812 375.026367188 604.286132812 337.169921875 539.286132812 c 0
 310.026367188 492.142578125 257.883789062 387.142578125 245.026367188 353.571289062 c 0
 240.741210938 342.142578125 222.169921875 307.142578125 203.59765625 277.142578125 c 0
 185.026367188 247.142578125 170.026367188 218.571289062 170.026367188 214.286132812 c 0
 170.026367188 210 150.741210938 177.857421875 127.883789062 143.571289062 c 0
 95.7412109375 96.4287109375 80.0263671875 79.2861328125 66.455078125 77.142578125 c 0
 40.7412109375 72.142578125 35.0263671875 88.5712890625 55.0263671875 112.857421875 c 0
 102.883789062 173.571289062 162.169921875 273.571289062 199.3125 357.142578125 c 0
 207.169921875 375 217.883789062 398.571289062 223.59765625 409.286132812 c 0
 229.3125 420.713867188 234.3125 435 234.3125 441.428710938 c 0
EndSplineSet
EndChar

StartChar: zero
Encoding: 48 48 16
Width: 479
Flags: HMW
HStem: 621.429 35.7139
VStem: 382.516 23.5713
LayerCount: 2
Fore
SplineSet
211.801757812 602.142578125 m 2
 266.801757812 657.142578125 l 1
 308.23046875 657.142578125 l 2
 331.087890625 657.142578125 356.087890625 654.286132812 363.23046875 650 c 0
 384.659179688 638.571289062 406.087890625 594.286132812 406.087890625 561.428710938 c 0
 406.087890625 545 411.087890625 497.857421875 417.516601562 457.142578125 c 0
 428.23046875 382.857421875 423.9453125 310 406.087890625 267.857421875 c 0
 394.659179688 240 385.374023438 210 375.374023438 170.713867188 c 0
 363.9453125 125 331.801757812 74.2861328125 289.659179688 36.4287109375 c 0
 274.659179688 22.142578125 258.9453125 10 256.087890625 8.5712890625 c 0
 242.516601562 2.857421875 96.087890625 139.286132812 67.5166015625 185 c 0
 38.9453125 230 36.8017578125 247.857421875 58.9453125 270.713867188 c 0
 78.23046875 291.428710938 95.3740234375 344.286132812 102.516601562 407.142578125 c 0
 104.659179688 424.286132812 111.087890625 446.428710938 116.801757812 455 c 0
 122.516601562 463.571289062 127.516601562 475 127.516601562 480 c 0
 127.516601562 502.142578125 161.087890625 550 211.801757812 602.142578125 c 2
358.9453125 596.428710938 m 0
 349.659179688 618.571289062 346.088867188 621.4296875 321.802734375 621.4296875 c 0
 291.088867188 621.4296875 275.375 611.4296875 228.231445312 562.143554688 c 0
 198.946289062 532.143554688 170.375 485.71484375 150.375 435.71484375 c 0
 143.231445312 417.858398438 115.375 279.287109375 110.375 237.858398438 c 0
 108.231445312 223.572265625 111.088867188 211.4296875 117.517578125 206.4296875 c 0
 123.231445312 202.143554688 127.517578125 190.71484375 127.517578125 182.143554688 c 0
 127.517578125 170.000976562 143.231445312 152.143554688 183.231445312 119.287109375 c 0
 262.517578125 53.572265625 265.375 52.1435546875 288.231445312 79.287109375 c 0
 311.802734375 107.858398438 335.375 153.572265625 342.517578125 185.71484375 c 0
 356.088867188 246.4296875 364.66015625 275.000976562 372.517578125 284.287109375 c 0
 384.66015625 299.287109375 389.66015625 383.572265625 382.517578125 453.572265625 c 0
 377.77734375 497.819335938 373.454101562 561.969726562 358.9453125 596.428710938 c 0
EndSplineSet
EndChar

StartChar: one
Encoding: 49 49 17
Width: 406
Flags: HMW
HStem: 52.8574 47.1426 60.7139 41.4287
VStem: 192.059 45
LayerCount: 2
Fore
SplineSet
191.344726562 625 m 0xa0
 191.344726562 635.811523438 219.916015625 657.194335938 219.916015625 668.571289062 c 0
 219.916015625 673.571289062 227.059570312 682.857421875 235.630859375 688.571289062 c 0
 249.202148438 698.571289062 272.7734375 697.857421875 283.48828125 688.571289062 c 0
 290.630859375 682.142578125 285.630859375 587.142578125 277.7734375 572.142578125 c 0
 264.202148438 546.428710938 241.344726562 393.571289062 237.059570312 300 c 0
 235.630859375 266.428710938 233.48828125 230 231.344726562 217.857421875 c 0
 218.48828125 130 218.48828125 124.286132812 228.48828125 115.713867188 c 0
 234.202148438 110.713867188 264.202148438 105 294.202148438 102.142578125 c 0
 335.630859375 99.2861328125 350.630859375 95 355.630859375 85.7138671875 c 0
 366.344726562 65.7138671875 347.059570312 54.2861328125 314.916015625 60.7138671875 c 0x60
 271.344726562 68.5712890625 207.059570312 67.857421875 139.916015625 57.857421875 c 0
 105.630859375 52.142578125 69.2021484375 50.7138671875 59.2021484375 52.857421875 c 0
 42.7734375 57.142578125 40.630859375 60.7138671875 44.916015625 77.142578125 c 0
 47.0595703125 87.857421875 55.630859375 102.857421875 62.7734375 110 c 0
 75.630859375 122.857421875 77.0595703125 122.857421875 94.2021484375 112.142578125 c 0
 104.202148438 105 125.630859375 100 141.344726562 100 c 0
 166.344726562 100 171.344726562 102.857421875 177.7734375 119.286132812 c 0
 181.344726562 129.286132812 182.7734375 142.857421875 180.630859375 148.571289062 c 0
 178.48828125 154.286132812 180.630859375 186.428710938 184.916015625 220.713867188 c 0
 189.202148438 254.286132812 192.059570312 303.571289062 192.059570312 330 c 0
 191.344726562 356.428710938 194.916015625 380 198.48828125 382.142578125 c 0
 202.7734375 384.286132812 205.630859375 403.571289062 205.630859375 423.571289062 c 0
 205.630859375 444.286132812 210.630859375 478.571289062 216.344726562 500 c 0
 222.059570312 521.428710938 227.059570312 549.286132812 227.059570312 560.713867188 c 2
 227.059570312 582.142578125 l 1
 207.059570312 559.286132812 l 2
 196.344726562 547.142578125 174.202148438 520.713867188 157.059570312 500.713867188 c 0
 124.916015625 462.857421875 112.7734375 457.142578125 98.48828125 474.286132812 c 0
 86.3447265625 490 108.48828125 531.428710938 153.48828125 577.857421875 c 0
 174.202148438 598.571289062 191.344726562 620 191.344726562 625 c 0xa0
EndSplineSet
EndChar

StartChar: two
Encoding: 50 50 18
Width: 454
Flags: HMW
HStem: 87.1426 41.4287
LayerCount: 2
Fore
SplineSet
144.415039062 662.857421875 m 0
 163.125 671.662109375 240.869140625 711.747070312 263.701171875 714.286132812 c 0
 269.415039062 714.286132812 290.12890625 704.286132812 308.701171875 692.142578125 c 0
 393.701171875 635.713867188 413.701171875 524.286132812 358.701171875 416.428710938 c 0
 349.415039062 397.857421875 341.557617188 378.571289062 341.557617188 374.286132812 c 0
 341.557617188 370.713867188 332.986328125 355.713867188 322.986328125 342.142578125 c 0
 312.986328125 328.571289062 297.272460938 302.857421875 287.272460938 284.286132812 c 0
 277.986328125 265.713867188 247.986328125 225.713867188 220.12890625 195 c 0
 192.986328125 164.286132812 170.12890625 137.142578125 170.12890625 135 c 0
 170.12890625 126.428710938 202.986328125 123.571289062 245.84375 128.571289062 c 0
 322.272460938 137.857421875 417.986328125 112.857421875 398.701171875 89.2861328125 c 0
 386.557617188 74.2861328125 345.84375 68.5712890625 327.272460938 78.5712890625 c 0
 314.415039062 85.7138671875 294.415039062 85.7138671875 234.415039062 78.5712890625 c 0
 174.415039062 71.4287109375 154.415039062 71.4287109375 141.557617188 78.5712890625 c 0
 132.986328125 83.5712890625 114.415039062 87.142578125 100.84375 87.142578125 c 0
 85.84375 87.142578125 69.4150390625 93.5712890625 57.2724609375 103.571289062 c 0
 37.986328125 120 37.986328125 120 51.5576171875 135 c 0
 59.4150390625 143.571289062 70.84375 150 76.5576171875 148.571289062 c 0
 107.986328125 144.286132812 208.701171875 236.428710938 253.701171875 311.428710938 c 0
 328.701171875 435.713867188 359.415039062 523.571289062 342.272460938 561.428710938 c 0
 337.986328125 571.428710938 335.84375 582.857421875 338.701171875 586.428710938 c 0
 345.12890625 597.142578125 313.701171875 642.142578125 291.557617188 653.571289062 c 0
 280.12890625 659.286132812 265.12890625 662.142578125 257.986328125 659.286132812 c 0
 211.557617188 642.857421875 177.272460938 623.571289062 151.557617188 598.571289062 c 0
 130.12890625 578.571289062 117.272460938 570.713867188 105.12890625 572.857421875 c 0
 65.84375 577.857421875 93.701171875 640.713867188 144.415039062 662.857421875 c 0
EndSplineSet
EndChar

StartChar: three
Encoding: 51 51 19
Width: 430
Flags: HMW
HStem: 68.5713 41.4287 347.857 49.2852
LayerCount: 2
Fore
SplineSet
261.364257812 321.428710938 m 0
 234.241210938 323.236328125 212.43359375 341.249023438 183.5078125 342.857421875 c 0
 171.364257812 342.857421875 159.221679688 345.713867188 157.079101562 349.286132812 c 0
 154.935546875 352.142578125 139.221679688 352.142578125 121.364257812 347.857421875 c 0
 82.0791015625 339.286132812 67.0791015625 344.286132812 67.0791015625 367.142578125 c 0
 67.0791015625 389.286132812 77.0791015625 395.713867188 113.5078125 397.142578125 c 0
 187.79296875 401.428710938 272.079101562 452.857421875 322.79296875 526.428710938 c 0
 337.079101562 546.428710938 337.79296875 571.428710938 324.935546875 571.428710938 c 0
 322.079101562 571.428710938 314.221679688 582.142578125 307.79296875 595.713867188 c 0
 299.221679688 613.571289062 290.650390625 621.428710938 272.79296875 625 c 0
 259.935546875 627.857421875 245.650390625 633.571289062 240.650390625 637.142578125 c 0
 229.221679688 646.428710938 124.221679688 630 108.5078125 616.428710938 c 0
 96.3642578125 605.713867188 59.935546875 610.713867188 59.935546875 623.571289062 c 2
 59.935546875 642.857421875 l 2
 59.935546875 652.142578125 64.935546875 657.142578125 73.5078125 657.142578125 c 0
 81.3642578125 657.142578125 92.0791015625 661.428710938 97.79296875 667.142578125 c 0
 102.79296875 672.857421875 122.079101562 680.713867188 139.221679688 685 c 0
 156.364257812 688.571289062 194.221679688 690.713867188 222.79296875 689.286132812 c 0
 269.935546875 687.142578125 277.079101562 684.286132812 304.221679688 661.428710938 c 0
 351.364257812 620.713867188 375.650390625 587.857421875 379.221679688 557.857421875 c 0
 382.79296875 534.286132812 379.221679688 526.428710938 351.364257812 492.142578125 c 0
 334.221679688 470.713867188 299.221679688 437.857421875 274.221679688 418.571289062 c 0
 248.5078125 399.286132812 228.5078125 382.142578125 229.221679688 379.286132812 c 0
 230.650390625 377.142578125 242.79296875 375 256.364257812 373.571289062 c 0
 291.364257812 371.428710938 336.364257812 333.571289062 346.364257812 297.142578125 c 0
 358.5078125 252.142578125 356.364257812 200 339.935546875 163.571289062 c 0
 328.5078125 137.142578125 317.079101562 125 283.5078125 105 c 0
 236.364257812 76.4287109375 217.79296875 72.142578125 129.935546875 68.5712890625 c 0
 74.935546875 66.4287109375 66.3642578125 67.857421875 54.935546875 80 c 0
 42.79296875 93.5712890625 42.79296875 94.2861328125 56.3642578125 104.286132812 c 0
 65.650390625 111.428710938 77.79296875 112.857421875 92.0791015625 110 c 0
 127.79296875 101.428710938 204.935546875 105.713867188 232.079101562 117.142578125 c 0
 267.079101562 131.428710938 301.364257812 169.286132812 310.650390625 201.428710938 c 0
 324.935546875 255.713867188 297.79296875 321.428710938 261.364257812 321.428710938 c 0
EndSplineSet
EndChar

StartChar: four
Encoding: 52 52 20
Width: 463
Flags: HMW
HStem: 325 54.2861<268.672 295.379>
VStem: 334.665 36.4277 346.807 44.2852<370 370>
LayerCount: 2
Fore
SplineSet
91.091796875 695 m 0xc0
 103.235351562 710 116.091796875 710.713867188 126.806640625 697.142578125 c 0
 133.94921875 689.286132812 133.94921875 673.571289062 127.520507812 630 c 0
 121.806640625 593.571289062 121.091796875 565 125.377929688 549.286132812 c 0
 133.235351562 520.713867188 128.94921875 435.713867188 118.94921875 423.571289062 c 0
 109.6640625 411.428710938 138.235351562 397.857421875 177.520507812 395 c 0
 212.004882812 393.62109375 252.678710938 379.286132812 284.6640625 379.286132812 c 0
 294.6640625 379.286132812 312.520507812 377.142578125 324.6640625 375 c 2
 346.806640625 370 l 1
 348.235351562 447.857421875 l 2
 350.377929688 532.142578125 351.091796875 547.142578125 359.6640625 588.571289062 c 0
 363.94921875 611.428710938 363.235351562 618.571289062 352.520507812 625.713867188 c 0
 341.806640625 634.286132812 340.377929688 638.571289062 347.520507812 653.571289062 c 0
 357.520507812 675 372.520507812 676.428710938 391.806640625 657.142578125 c 0
 407.520507812 641.428710938 409.6640625 617.857421875 398.94921875 554.286132812 c 0
 395.377929688 530.713867188 391.806640625 460 391.091796875 397.142578125 c 0xa0
 391.091796875 276.701171875 381.3359375 199.330078125 371.091796875 107.142578125 c 0
 367.520507812 65.7138671875 365.377929688 60.7138671875 352.520507812 62.857421875 c 0
 344.6640625 64.2861328125 336.806640625 67.142578125 334.6640625 69.2861328125 c 0
 332.520507812 71.4287109375 331.806640625 102.142578125 333.235351562 137.857421875 c 0
 333.94921875 174.286132812 335.377929688 230.713867188 336.806640625 263.571289062 c 2
 338.235351562 324.286132812 l 1
 295.377929688 325 l 2
 271.806640625 326.428710938 238.235351562 331.428710938 220.377929688 337.857421875 c 0
 191.091796875 347.857421875 181.806640625 347.857421875 139.6640625 338.571289062 c 0
 58.2353515625 321.428710938 43.94921875 335.713867188 66.806640625 412.857421875 c 0
 83.2353515625 466.428710938 83.2353515625 595 67.5205078125 620 c 0
 61.806640625 630 75.3779296875 676.428710938 91.091796875 695 c 0xc0
EndSplineSet
EndChar

StartChar: five
Encoding: 53 53 21
Width: 447
Flags: HMW
HStem: 82.8574 36.4287 602.857 53.5713
LayerCount: 2
Fore
SplineSet
68.8935546875 670 m 0
 84.607421875 686.428710938 91.75 686.428710938 140.321289062 672.142578125 c 0
 153.178710938 667.857421875 214.607421875 660.713867188 275.321289062 656.428710938 c 0
 383.893554688 649.286132812 404.607421875 644.286132812 404.607421875 624.286132812 c 0
 404.607421875 612.142578125 378.178710938 597.857421875 363.893554688 602.857421875 c 0
 358.178710938 605 346.75 602.142578125 338.178710938 596.428710938 c 0
 316.75 581.428710938 304.607421875 582.857421875 304.607421875 602.142578125 c 0
 304.607421875 613.571289062 302.46484375 615 298.178710938 608.571289062 c 0
 293.893554688 600.713867188 286.036132812 600.713867188 264.607421875 606.428710938 c 0
 249.607421875 610 214.607421875 614.286132812 186.75 615.713867188 c 2
 137.46484375 617.857421875 l 1
 131.75 589.286132812 l 2
 122.46484375 537.857421875 123.893554688 412.857421875 134.607421875 403.571289062 c 0
 143.178710938 395.713867188 178.178710938 384.286132812 265.321289062 363.571289062 c 0
 316.036132812 350.713867188 328.178710938 337.857421875 361.036132812 254.286132812 c 0
 368.178710938 237.857421875 367.46484375 231.428710938 358.178710938 221.428710938 c 0
 352.46484375 215 347.46484375 202.857421875 347.46484375 195 c 0
 347.46484375 187.142578125 342.46484375 176.428710938 336.75 171.428710938 c 0
 331.036132812 166.428710938 326.036132812 157.857421875 326.036132812 152.857421875 c 0
 326.036132812 147.857421875 307.46484375 130 285.321289062 112.857421875 c 2
 243.893554688 82.857421875 l 1
 179.607421875 82.857421875 l 2
 94.607421875 83.5712890625 71.0361328125 89.2861328125 58.1787109375 115 c 0
 44.607421875 140.713867188 44.607421875 167.142578125 58.1787109375 178.571289062 c 0
 71.75 190 83.1787109375 181.428710938 83.1787109375 160.713867188 c 0
 83.1787109375 133.571289062 110.321289062 120 171.036132812 119.286132812 c 0
 218.893554688 117.857421875 226.75 120 254.607421875 139.286132812 c 0
 308.178710938 176.428710938 333.893554688 235 314.607421875 275.713867188 c 0
 308.893554688 288.571289062 298.178710938 303.571289062 291.036132812 310 c 0
 273.178710938 326.428710938 170.321289062 352.142578125 138.893554688 347.857421875 c 0
 93.1787109375 341.428710938 91.75 345.713867188 86.75 492.142578125 c 0
 83.1787109375 612.857421875 81.75 625 68.8935546875 633.571289062 c 0
 51.0361328125 646.428710938 51.0361328125 650.713867188 68.8935546875 670 c 0
EndSplineSet
EndChar

StartChar: six
Encoding: 54 54 22
Width: 444
Flags: W
LayerCount: 2
Fore
SplineSet
263.310546875 652.142578125 m 0
 270.453125 653.571289062 280.453125 654.286132812 284.024414062 652.857421875 c 0
 288.310546875 652.142578125 304.739257812 647.142578125 321.881835938 642.142578125 c 0
 358.310546875 632.142578125 396.881835938 598.571289062 393.310546875 580.713867188 c 0
 389.739257812 563.571289062 345.453125 566.428710938 330.453125 585 c 0
 303.310546875 618.571289062 250.453125 605.713867188 191.881835938 551.428710938 c 0
 150.453125 512.857421875 136.166992188 492.142578125 109.739257812 425.713867188 c 0
 91.1669921875 378.571289062 87.595703125 360.713867188 87.595703125 309.286132812 c 0
 87.595703125 255.713867188 89.7392578125 244.286132812 107.595703125 215.713867188 c 0
 118.310546875 197.857421875 141.881835938 167.142578125 159.739257812 147.857421875 c 2
 192.595703125 111.428710938 l 1
 226.166992188 124.286132812 l 2
 263.310546875 138.571289062 303.310546875 175 329.739257812 217.857421875 c 0
 350.453125 253.571289062 348.310546875 307.857421875 324.024414062 341.428710938 c 2
 308.310546875 363.571289062 l 1
 242.595703125 361.428710938 l 2
 196.166992188 359.286132812 169.739257812 361.428710938 151.881835938 369.286132812 c 2
 126.881835938 379.286132812 l 1
 143.310546875 392.857421875 l 2
 160.453125 407.142578125 178.310546875 407.142578125 293.310546875 395.713867188 c 0
 341.881835938 390.713867188 369.739257812 364.286132812 378.310546875 315.713867188 c 0
 386.166992188 265.713867188 384.024414062 252.142578125 357.595703125 195.713867188 c 0
 336.881835938 152.142578125 252.595703125 86.4287109375 211.881835938 81.4287109375 c 0
 186.881835938 78.5712890625 180.453125 81.4287109375 147.595703125 112.142578125 c 0
 126.881835938 130.713867188 103.310546875 160.713867188 94.7392578125 178.571289062 c 0
 85.453125 196.428710938 75.453125 212.857421875 71.1669921875 215.713867188 c 0
 66.8818359375 217.857421875 60.453125 257.142578125 56.8818359375 302.857421875 c 0
 50.453125 380 51.1669921875 388.571289062 65.453125 422.857421875 c 0
 73.310546875 442.857421875 80.453125 465 80.453125 471.428710938 c 0
 80.453125 478.571289062 84.7392578125 487.857421875 89.7392578125 492.142578125 c 0
 95.453125 496.428710938 105.453125 512.142578125 111.881835938 526.428710938 c 0
 129.024414062 562.857421875 224.739257812 642.142578125 263.310546875 652.142578125 c 0
EndSplineSet
EndChar

StartChar: seven
Encoding: 55 55 23
Width: 487
Flags: HMW
HStem: 583.571 54.2861
LayerCount: 2
Fore
SplineSet
50.3701171875 588.571289062 m 0
 35.869140625 627.7265625 140.08984375 642.750976562 193.940429688 637.856445312 c 0
 263.940429688 631.427734375 326.083007812 631.427734375 383.940429688 637.856445312 c 0
 436.797851562 643.5703125 438.2265625 643.5703125 442.51171875 627.856445312 c 0
 445.369140625 617.856445312 441.797851562 604.999023438 433.940429688 593.5703125 c 0
 413.701171875 565.234375 370.666992188 478.765625 348.2265625 450.712890625 c 0
 325.369140625 421.427734375 283.2265625 337.856445312 283.2265625 321.427734375 c 0
 283.2265625 312.141601562 262.51171875 267.856445312 234.654296875 217.856445312 c 0
 230.369140625 209.999023438 215.369140625 179.28515625 201.797851562 148.5703125 c 0
 173.940429688 88.5703125 145.369140625 58.5703125 128.2265625 72.1416015625 c 0
 119.654296875 79.28515625 120.369140625 82.8564453125 131.083007812 95.712890625 c 0
 142.51171875 109.28515625 191.797851562 204.28515625 216.083007812 260.712890625 c 0
 225.7890625 284.28515625 274.188476562 387.708984375 281.083007812 413.5703125 c 0
 283.2265625 423.5703125 294.654296875 443.5703125 306.083007812 457.141601562 c 0
 316.797851562 470.712890625 326.083007812 487.856445312 326.083007812 494.28515625 c 0
 326.083007812 501.427734375 328.940429688 507.141601562 332.51171875 507.141601562 c 0
 339.654296875 507.141601562 351.797851562 536.427734375 358.2265625 567.856445312 c 0
 361.797851562 587.141601562 360.369140625 589.999023438 346.083007812 589.28515625 c 0
 336.797851562 589.28515625 326.083007812 587.141601562 321.797851562 583.5703125 c 0
 313.2265625 578.5703125 261.797851562 582.141601562 218.940429688 591.427734375 c 0
 178.8828125 599.862304688 125.35546875 587.03125 88.94140625 581.428710938 c 0
 60.3701171875 577.142578125 53.94140625 578.571289062 50.3701171875 588.571289062 c 0
EndSplineSet
EndChar

StartChar: eight
Encoding: 56 56 24
Width: 498
Flags: HMW
HStem: 311.429 45.7139
LayerCount: 2
Fore
SplineSet
303.740234375 709.286132812 m 0
 311.59765625 711.428710938 320.8828125 712.857421875 324.454101562 713.571289062 c 0
 333.740234375 715 400.8828125 672.857421875 423.025390625 651.428710938 c 0
 433.740234375 641.428710938 445.168945312 622.142578125 447.311523438 608.571289062 c 0
 453.025390625 580 438.025390625 510.713867188 423.740234375 499.286132812 c 0
 418.740234375 495 414.454101562 488.571289062 414.454101562 485 c 0
 414.454101562 477.857421875 365.8828125 428.571289062 358.740234375 428.571289062 c 0
 355.8828125 428.571289062 339.454101562 415.713867188 321.59765625 400 c 0
 293.025390625 374.286132812 290.8828125 370.713867188 302.311523438 363.571289062 c 0
 308.740234375 360 314.454101562 352.142578125 314.454101562 346.428710938 c 0
 314.454101562 340.713867188 326.59765625 325 341.59765625 311.428710938 c 0
 382.311523438 273.571289062 400.168945312 235.713867188 393.025390625 202.857421875 c 0
 385.168945312 167.857421875 368.740234375 146.428710938 320.168945312 107.142578125 c 0
 265.8828125 63.5712890625 204.454101562 39.2861328125 162.311523438 45.7138671875 c 0
 135.168945312 50 123.740234375 57.142578125 86.59765625 96.4287109375 c 0
 38.740234375 145.713867188 38.025390625 150 51.59765625 218.571289062 c 0
 58.740234375 256.428710938 64.4541015625 265.713867188 108.025390625 308.571289062 c 0
 134.454101562 335.713867188 160.8828125 357.142578125 167.311523438 357.142578125 c 0
 173.740234375 357.142578125 186.59765625 362.142578125 195.8828125 367.857421875 c 2
 213.025390625 379.286132812 l 1
 200.168945312 412.857421875 l 2
 193.025390625 431.428710938 183.740234375 470 179.454101562 499.286132812 c 0
 172.311523438 543.571289062 173.025390625 558.571289062 182.311523438 591.428710938 c 0
 200.8828125 655 243.740234375 696.428710938 303.740234375 709.286132812 c 0
367.311523438 656.428710938 m 0
 348.740234375 668.571289062 330.168945312 678.571289062 325.8828125 678.571289062 c 0
 311.59765625 677.857421875 260.8828125 651.428710938 248.740234375 637.857421875 c 0
 225.8828125 612.142578125 212.311523438 552.857421875 217.311523438 501.428710938 c 0
 221.59765625 457.857421875 243.740234375 392.857421875 253.740234375 392.857421875 c 0
 261.59765625 392.857421875 353.740234375 468.571289062 375.168945312 492.142578125 c 0
 399.454101562 519.286132812 420.8828125 561.428710938 421.59765625 580.713867188 c 0
 421.59765625 605 400.8828125 634.286132812 367.311523438 656.428710938 c 0
275.168945312 321.428710938 m 0
 258.740234375 339.286132812 244.454101562 339.286132812 222.311523438 321.428710938 c 0
 211.59765625 312.142578125 200.168945312 308.571289062 189.454101562 311.428710938 c 0
 176.59765625 314.286132812 165.168945312 307.142578125 134.454101562 277.142578125 c 0
 93.740234375 237.142578125 85.8828125 218.571289062 85.8828125 160 c 0
 85.8828125 131.428710938 88.740234375 127.142578125 120.168945312 103.571289062 c 0
 151.59765625 78.5712890625 155.8828125 77.857421875 191.59765625 82.142578125 c 0
 259.454101562 90.7138671875 335.168945312 145.713867188 356.59765625 202.142578125 c 0
 366.59765625 227.857421875 344.454101562 272.142578125 311.59765625 292.142578125 c 0
 298.740234375 300 282.311523438 312.857421875 275.168945312 321.428710938 c 0
EndSplineSet
EndChar

StartChar: nine
Encoding: 57 57 25
Width: 501
Flags: HMW
HStem: 321.429 39.2852<225.215 236.643 208.786 266.644>
VStem: 368.786 50<508.214 550.43> 385.929 52.1426 407.358 36.4277
LayerCount: 2
Fore
SplineSet
269.500976562 627.857421875 m 0x90
 326.643554688 639.286132812 350.9296875 637.142578125 366.643554688 620 c 0
 390.21484375 592.857421875 418.786132812 535 418.786132812 513.571289062 c 0xc0
 418.786132812 502.857421875 421.643554688 492.142578125 425.21484375 489.286132812 c 0
 429.500976562 487.142578125 432.358398438 480 432.358398438 472.857421875 c 0
 432.358398438 466.428710938 434.500976562 445 438.072265625 425 c 0xa0
 440.9296875 405.713867188 443.786132812 357.142578125 443.786132812 317.857421875 c 0
 443.786132812 246.428710938 443.786132812 246.428710938 411.643554688 190.713867188 c 0
 344.500976562 72.857421875 228.072265625 18.5712890625 125.9296875 56.4287109375 c 0
 104.500976562 65 80.21484375 71.4287109375 71.6435546875 71.4287109375 c 0
 50.21484375 71.4287109375 35.9296875 90 46.6435546875 102.857421875 c 0
 57.3583984375 115 105.21484375 125 110.9296875 115.713867188 c 0
 118.072265625 104.286132812 168.786132812 85.7138671875 193.072265625 85.7138671875 c 0
 228.072265625 85.7138671875 271.643554688 101.428710938 298.072265625 123.571289062 c 0
 310.9296875 134.286132812 323.786132812 142.857421875 326.643554688 142.857421875 c 0
 333.786132812 142.857421875 378.786132812 206.428710938 396.643554688 242.142578125 c 0
 408.786132812 265.713867188 410.9296875 279.286132812 407.358398438 319.286132812 c 0
 402.358398438 385 400.21484375 390.713867188 384.500976562 377.142578125 c 0
 356.643554688 353.571289062 280.9296875 321.428710938 252.358398438 321.428710938 c 0
 198.072265625 321.428710938 140.9296875 342.857421875 110.21484375 374.286132812 c 0
 83.072265625 403.571289062 82.3583984375 404.286132812 86.6435546875 446.428710938 c 0
 89.5009765625 470 96.6435546875 500 102.358398438 512.857421875 c 0
 113.072265625 535 166.643554688 585.713867188 179.500976562 585.713867188 c 0
 183.072265625 585.713867188 197.358398438 593.571289062 211.643554688 603.571289062 c 0
 225.9296875 613.571289062 252.358398438 624.286132812 269.500976562 627.857421875 c 0x90
368.786132812 543.571289062 m 0
 368.786132812 557.288085938 318.157226562 593.940429688 303.786132812 592.142578125 c 0
 286.643554688 590.713867188 243.072265625 575.713867188 232.358398438 567.142578125 c 0
 226.643554688 562.857421875 209.500976562 552.142578125 193.786132812 544.286132812 c 0
 158.072265625 526.428710938 135.9296875 497.142578125 125.21484375 453.571289062 c 0
 117.358398438 423.571289062 118.072265625 418.571289062 130.9296875 401.428710938 c 0
 153.072265625 371.428710938 180.9296875 360.713867188 236.643554688 360.713867188 c 0
 292.358398438 361.428710938 316.643554688 371.428710938 362.358398438 412.142578125 c 0
 390.9296875 437.857421875 390.9296875 438.571289062 385.9296875 477.857421875 c 0xa0
 383.786132812 500 378.786132812 520.713867188 375.21484375 525 c 0
 371.643554688 528.571289062 368.786132812 536.428710938 368.786132812 543.571289062 c 0
EndSplineSet
EndChar

StartChar: colon
Encoding: 58 58 26
Width: 259
Flags: HMW
HStem: 30.7139 126.429 376.429 92.1426
LayerCount: 2
Fore
SplineSet
176.303710938 475 m 0
 188.446289062 489.286132812 192.732421875 488.571289062 188.446289062 471.428710938 c 0
 186.303710938 464.286132812 189.161132812 452.142578125 194.875 445 c 0
 219.875 412.142578125 192.018554688 370 148.446289062 376.428710938 c 0
 134.161132812 378.571289062 118.446289062 383.571289062 114.161132812 387.857421875 c 0
 102.732421875 396.428710938 102.018554688 425.713867188 112.732421875 432.142578125 c 0
 116.303710938 435 123.446289062 445 127.018554688 455 c 0
 132.018554688 469.286132812 137.018554688 472.142578125 150.58984375 468.571289062 c 0
 161.303710938 465.713867188 170.58984375 468.571289062 176.303710938 475 c 0
70.58984375 130 m 0
 83.4462890625 145 98.4462890625 156.428710938 103.446289062 157.142578125 c 0
 109.161132812 157.142578125 122.732421875 147.142578125 134.875 135.713867188 c 0
 153.446289062 117.142578125 156.303710938 110 152.732421875 88.5712890625 c 0
 147.732421875 58.5712890625 138.446289062 45.7138671875 109.875 30.7138671875 c 0
 90.58984375 20.7138671875 87.0185546875 21.4287109375 69.875 34.2861328125 c 0
 40.58984375 55.7138671875 40.58984375 96.4287109375 70.58984375 130 c 0
EndSplineSet
EndChar

StartChar: semicolon
Encoding: 59 59 27
Width: 240
Flags: HMW
VStem: 45.9857 140
LayerCount: 2
Fore
SplineSet
115.986328125 440.713867188 m 0
 126.701171875 453.571289062 160.986328125 452.142578125 174.557617188 438.571289062 c 0
 180.986328125 432.857421875 185.986328125 418.571289062 185.986328125 407.142578125 c 0
 185.986328125 390.713867188 180.986328125 384.286132812 160.986328125 374.286132812 c 0
 135.986328125 362.857421875 135.272460938 362.857421875 117.415039062 379.286132812 c 0
 98.84375 396.428710938 98.84375 420 115.986328125 440.713867188 c 0
85.2724609375 145 m 0
 105.986328125 150.713867188 111.701171875 150 120.272460938 141.428710938 c 0
 133.84375 127.857421875 130.272460938 98.5712890625 112.415039062 71.4287109375 c 0
 103.129882812 57.857421875 93.1298828125 37.142578125 90.2724609375 25 c 0
 80.986328125 -11.4287109375 55.2724609375 -28.5712890625 45.986328125 -4.2861328125 c 0
 38.84375 14.2861328125 72.4150390625 142.142578125 85.2724609375 145 c 0
EndSplineSet
EndChar

StartChar: less
Encoding: 60 60 28
Width: 546
Flags: HMW
HStem: 407.143 28.5713 457.143 28.5713
LayerCount: 2
Fore
SplineSet
385.698242188 457.142578125 m 0
 376.967773438 457.142578125 276.26953125 407.142578125 266.413085938 407.142578125 c 0
 260.698242188 407.142578125 247.840820312 400.713867188 237.840820312 392.857421875 c 0
 227.840820312 385 217.126953125 378.571289062 213.555664062 378.571289062 c 0
 209.984375 378.571289062 199.984375 373.571289062 190.698242188 367.142578125 c 2
 174.26953125 355.713867188 l 1
 196.413085938 342.142578125 l 2
 207.840820312 335 230.698242188 325.713867188 247.126953125 321.428710938 c 0
 276.413085938 313.571289062 371.413085938 254.286132812 389.26953125 232.857421875 c 0
 394.984375 226.428710938 404.26953125 221.428710938 410.698242188 221.428710938 c 0
 438.555664062 221.428710938 450.698242188 185 426.413085938 172.142578125 c 0
 415.698242188 166.428710938 403.555664062 172.142578125 362.126953125 204.286132812 c 0
 334.26953125 225.713867188 294.26953125 250 274.26953125 257.857421875 c 0
 232.126953125 274.286132812 166.413085938 303.571289062 139.984375 317.857421875 c 0
 129.984375 322.857421875 110.698242188 329.286132812 97.126953125 332.142578125 c 0
 57.8408203125 340 33.5556640625 369.286132812 54.984375 382.857421875 c 0
 59.26953125 385 79.26953125 388.571289062 99.984375 389.286132812 c 0
 139.26953125 392.142578125 218.555664062 418.571289062 218.555664062 429.286132812 c 0
 218.555664062 432.857421875 223.555664062 435.713867188 229.984375 435.713867188 c 0
 236.413085938 435.713867188 249.984375 442.142578125 261.413085938 450 c 0
 288.828125 470.106445312 281.842773438 449.345703125 308.555664062 470.713867188 c 0
 319.26953125 478.571289062 330.698242188 485.713867188 334.984375 485.713867188 c 0
 347.134765625 485.713867188 440.228515625 533.57421875 450.698242188 536.428710938 c 0
 472.126953125 543.571289062 472.126953125 543.571289062 487.126953125 532.857421875 c 0
 507.126953125 517.142578125 492.840820312 498.571289062 451.413085938 488.571289062 c 0
 432.840820312 483.571289062 412.126953125 475 404.984375 468.571289062 c 0
 397.840820312 462.142578125 389.26953125 457.142578125 385.698242188 457.142578125 c 0
EndSplineSet
EndChar

StartChar: equal
Encoding: 61 61 29
Width: 321
Flags: HMW
HStem: 411.429 41.4287
LayerCount: 2
Fore
SplineSet
166.438476562 455 m 0
 214.295898438 462.142578125 241.438476562 459.286132812 253.581054688 445 c 0
 260.723632812 436.428710938 259.295898438 432.142578125 246.438476562 422.857421875 c 0
 234.295898438 412.857421875 215.009765625 410.713867188 155.723632812 411.428710938 c 0
 72.15234375 411.428710938 55.009765625 418.571289062 76.4384765625 442.142578125 c 0
 85.7236328125 452.142578125 95.009765625 455 108.581054688 452.857421875 c 0
 118.581054688 450.713867188 145.009765625 452.142578125 166.438476562 455 c 0
230.723632812 346.428710938 m 0
 230.723632812 364.286132812 252.15234375 358.571289062 259.295898438 338.571289062 c 0
 267.15234375 318.571289062 265.009765625 312.142578125 242.8671875 287.857421875 c 0
 233.581054688 277.142578125 222.8671875 272.857421875 213.581054688 275 c 0
 179.295898438 282.857421875 91.4384765625 284.286132812 82.8671875 277.142578125 c 0
 77.8671875 272.857421875 68.5810546875 272.142578125 61.4384765625 274.286132812 c 0
 51.4384765625 278.571289062 54.2958984375 283.571289062 77.8671875 307.857421875 c 0
 101.438476562 332.142578125 108.581054688 335.713867188 127.15234375 332.857421875 c 0
 197.15234375 319.286132812 230.723632812 323.571289062 230.723632812 346.428710938 c 0
EndSplineSet
EndChar

StartChar: greater
Encoding: 62 62 30
Width: 484
Flags: W
LayerCount: 2
Fore
SplineSet
51 545 m 0
 51 561.8203125 54.7880859375 574.204101562 71.7138671875 567.857421875 c 0
 78.142578125 566.428710938 102.427734375 560 126 555 c 0
 175.28515625 543.571289062 253.856445312 502.857421875 301 465 c 0
 363.142578125 414.286132812 386 400 396.713867188 404.286132812 c 0
 415.28515625 411.428710938 438.142578125 393.571289062 435.28515625 372.857421875 c 0
 433.856445312 357.142578125 428.142578125 352.857421875 404.571289062 347.857421875 c 0
 388.856445312 344.286132812 364.571289062 332.142578125 351 321.428710938 c 0
 336.713867188 310.713867188 313.142578125 295.713867188 297.427734375 287.142578125 c 0
 281.713867188 279.286132812 262.427734375 266.428710938 255.28515625 257.857421875 c 0
 247.427734375 249.286132812 237.427734375 242.857421875 231.713867188 242.857421875 c 0
 226.713867188 242.857421875 205.28515625 230 185.28515625 213.571289062 c 0
 143.856445312 181.428710938 113.142578125 177.857421875 109.571289062 204.286132812 c 0
 108.142578125 216.428710938 114.571289062 222.857421875 138.856445312 235 c 0
 181.819335938 256.48046875 218.84765625 295.1015625 263.142578125 316.428710938 c 0
 298.142578125 332.857421875 343.856445312 363.571289062 343.856445312 371.428710938 c 0
 343.856445312 373.571289062 333.142578125 381.428710938 321 389.286132812 c 0
 308.142578125 396.428710938 290.28515625 410 281 419.286132812 c 0
 246.713867188 453.571289062 168.856445312 497.142578125 126 506.428710938 c 0
 62.427734375 520 51 525.713867188 51 545 c 0
EndSplineSet
EndChar

StartChar: question
Encoding: 63 63 31
Width: 443
Flags: HMW
VStem: 170.873 40.7139
LayerCount: 2
Fore
SplineSet
159.443359375 702.857421875 m 0
 225.872070312 730.713867188 332.30078125 713.571289062 385.157226562 666.428710938 c 0
 400.157226562 652.142578125 401.5859375 610.713867188 387.30078125 577.857421875 c 0
 363.014648438 520.713867188 278.014648438 431.428710938 235.872070312 418.571289062 c 0
 218.729492188 413.571289062 211.5859375 380 211.5859375 303.571289062 c 0
 211.5859375 255.713867188 202.30078125 242.857421875 179.443359375 260 c 0
 167.30078125 269.286132812 165.872070312 291.428710938 170.872070312 421.428710938 c 2
 172.30078125 460 l 1
 215.157226562 468.571289062 l 2
 250.157226562 475.713867188 261.5859375 482.142578125 281.5859375 505 c 0
 310.290039062 538.48828125 354.443359375 574.76171875 354.443359375 625 c 0
 354.443359375 652.142578125 320.157226562 665.713867188 253.014648438 665.713867188 c 0
 190.872070312 665 183.729492188 662.142578125 118.729492188 609.286132812 c 0
 75.8720703125 573.571289062 64.443359375 571.428710938 53.0146484375 596.428710938 c 0
 45.8720703125 612.142578125 47.30078125 617.142578125 65.1572265625 635.713867188 c 0
 76.5859375 647.857421875 89.443359375 657.142578125 94.443359375 657.142578125 c 0
 98.7294921875 657.142578125 107.30078125 663.571289062 112.30078125 672.142578125 c 0
 118.014648438 680 139.443359375 694.286132812 159.443359375 702.857421875 c 0
160.872070312 172.857421875 m 0
 185.872070312 189.286132812 185.872070312 189.286132812 210.872070312 160.713867188 c 0
 238.014648438 130 238.014648438 123.571289062 215.157226562 97.857421875 c 0
 190.872070312 72.857421875 169.443359375 73.5712890625 145.157226562 100.713867188 c 0
 128.729492188 119.286132812 127.30078125 125 134.443359375 137.857421875 c 0
 138.729492188 146.428710938 142.30078125 155 142.30078125 157.142578125 c 0
 142.30078125 159.286132812 150.872070312 166.428710938 160.872070312 172.857421875 c 0
EndSplineSet
EndChar

StartChar: at
Encoding: 64 64 32
Width: 657
Flags: W
LayerCount: 2
Fore
SplineSet
296.44921875 699.286132812 m 0
 312.1640625 702.857421875 330.020507812 704.286132812 336.44921875 702.142578125 c 0
 342.877929688 700.713867188 360.020507812 698.571289062 375.735351562 696.428710938 c 0
 430.735351562 690 475.020507812 679.286132812 500.020507812 667.142578125 c 0
 535.735351562 650 592.877929688 592.142578125 592.877929688 573.571289062 c 0
 592.877929688 565 596.44921875 555.713867188 600.735351562 552.857421875 c 0
 606.44921875 550 607.1640625 532.857421875 604.306640625 501.428710938 c 0
 600.020507812 462.142578125 595.735351562 450.713867188 572.877929688 424.286132812 c 0
 558.591796875 407.142578125 542.877929688 393.571289062 538.591796875 392.857421875 c 0
 533.591796875 392.857421875 502.877929688 364.286132812 469.306640625 328.571289062 c 0
 394.306640625 249.286132812 367.1640625 235.713867188 300.020507812 242.857421875 c 0
 240.735351562 249.286132812 214.306640625 262.857421875 194.306640625 298.571289062 c 0
 180.020507812 324.286132812 179.306640625 330.713867188 186.44921875 365 c 0
 190.735351562 386.428710938 195.735351562 421.428710938 197.1640625 442.857421875 c 0
 200.735351562 492.142578125 215.735351562 512.142578125 265.735351562 537.857421875 c 0
 302.1640625 556.428710938 308.591796875 557.142578125 335.020507812 550 c 0
 374.306640625 539.286132812 397.1640625 517.142578125 405.735351562 478.571289062 c 0
 412.1640625 451.428710938 412.877929688 379.286132812 407.1640625 353.571289062 c 0
 401.44921875 328.571289062 415.020507812 337.857421875 481.44921875 404.286132812 c 0
 544.306640625 467.142578125 556.44921875 482.857421875 560.735351562 507.857421875 c 0
 565.735351562 535 555.020507812 578.571289062 543.591796875 578.571289062 c 0
 540.735351562 578.571289062 532.877929688 587.857421875 526.44921875 600 c 0
 510.735351562 625.713867188 462.877929688 649.286132812 414.306640625 654.286132812 c 0
 404.306640625 655 375.020507812 658.571289062 349.306640625 660.713867188 c 0
 312.877929688 665 293.591796875 663.571289062 263.591796875 653.571289062 c 0
 221.44921875 640 179.306640625 612.142578125 173.591796875 593.571289062 c 0
 170.020507812 582.857421875 154.306640625 546.428710938 142.877929688 520.713867188 c 0
 135.020507812 505 107.877929688 404.286132812 96.44921875 349.286132812 c 0
 88.591796875 311.428710938 87.8779296875 292.142578125 94.306640625 256.428710938 c 0
 107.877929688 182.142578125 126.44921875 164.286132812 228.591796875 125 c 0
 246.44921875 117.857421875 267.877929688 109.286132812 275.735351562 105.713867188 c 0
 295.735351562 96.4287109375 360.735351562 105 372.1640625 118.571289062 c 0
 376.44921875 124.286132812 385.020507812 128.571289062 391.44921875 128.571289062 c 0
 397.877929688 128.571289062 409.306640625 135 417.877929688 142.857421875 c 0
 431.44921875 155.713867188 435.020507812 156.428710938 442.1640625 147.142578125 c 0
 456.44921875 130 433.591796875 104.286132812 381.44921875 78.5712890625 c 0
 334.306640625 55.7138671875 318.591796875 54.2861328125 247.1640625 68.5712890625 c 0
 210.735351562 76.4287109375 132.877929688 116.428710938 105.020507812 142.142578125 c 0
 75.0205078125 170.713867188 54.306640625 203.571289062 60.7353515625 214.286132812 c 0
 62.8779296875 217.857421875 60.7353515625 240 56.44921875 263.571289062 c 0
 49.306640625 295.713867188 49.306640625 315 55.7353515625 344.286132812 c 0
 60.0205078125 365 67.8779296875 405 73.591796875 432.142578125 c 0
 85.7353515625 490 97.8779296875 524.286132812 132.1640625 597.142578125 c 0
 152.877929688 641.428710938 161.44921875 652.142578125 187.1640625 665 c 0
 218.591796875 681.428710938 245.735351562 690 296.44921875 699.286132812 c 0
330.735351562 507.857421875 m 0
 321.44921875 511.428710938 312.877929688 514.286132812 312.1640625 514.286132812 c 0
 298.591796875 511.428710938 265.020507812 491.428710938 255.020507812 480.713867188 c 0
 241.44921875 465 228.591796875 402.142578125 228.591796875 349.286132812 c 0
 228.591796875 302.857421875 241.44921875 292.857421875 300.020507812 295.713867188 c 2
 345.735351562 298.571289062 l 1
 355.020507812 332.857421875 l 2
 364.306640625 366.428710938 362.877929688 427.142578125 352.877929688 477.142578125 c 0
 349.306640625 493.571289062 342.1640625 503.571289062 330.735351562 507.857421875 c 0
EndSplineSet
EndChar

StartChar: A
Encoding: 65 65 33
Width: 448
Flags: HMW
HStem: 277.143 40.7148
VStem: 281.231 50
LayerCount: 2
Fore
SplineSet
189.088867188 668.571289062 m 0
 208.375 692.142578125 226.946289062 670.712890625 238.375 610.712890625 c 0
 243.375 583.5703125 249.802734375 557.856445312 252.66015625 553.5703125 c 0
 255.517578125 549.999023438 260.517578125 532.141601562 263.375 514.28515625 c 0
 266.231445312 496.427734375 273.375 467.856445312 279.088867188 449.999023438 c 0
 309.088867188 365.712890625 315.517578125 348.5703125 323.375 340.712890625 c 0
 327.66015625 336.427734375 331.231445312 326.427734375 331.231445312 318.5703125 c 0
 331.231445312 299.162109375 353.674804688 283.34375 348.375 262.141601562 c 0
 345.517578125 245.712890625 364.802734375 167.856445312 383.375 117.856445312 c 0
 411.231445312 43.5703125 392.66015625 7.1416015625 356.946289062 67.1416015625 c 0
 344.802734375 87.1416015625 333.375 126.427734375 324.088867188 176.427734375 c 0
 303.375 284.999023438 303.375 284.999023438 249.802734375 281.427734375 c 0
 226.231445312 279.999023438 191.946289062 277.856445312 174.802734375 277.141601562 c 0
 136.231445312 274.999023438 131.946289062 269.28515625 101.946289062 167.856445312 c 0
 79.802734375 92.8564453125 67.66015625 71.427734375 48.375 71.427734375 c 0
 39.0888671875 71.427734375 39.802734375 74.9990234375 66.9462890625 171.427734375 c 0
 74.802734375 197.141601562 82.66015625 224.999023438 84.802734375 233.5703125 c 0
 87.66015625 244.999023438 84.802734375 252.141601562 71.2314453125 260.712890625 c 0
 56.9462890625 269.999023438 54.0888671875 275.712890625 59.802734375 285.712890625 c 0
 63.375 292.856445312 74.802734375 300.712890625 84.0888671875 302.856445312 c 0
 99.0888671875 306.427734375 104.802734375 314.999023438 114.088867188 348.5703125 c 0
 128.188476562 403.2109375 152.1015625 458.436523438 160.517578125 520.713867188 c 0
 174.802734375 627.142578125 180.517578125 658.571289062 189.088867188 668.571289062 c 0
224.088867188 509.28515625 m 0
 218.375 527.856445312 211.946289062 542.856445312 209.802734375 542.856445312 c 0
 207.66015625 542.856445312 201.231445312 522.856445312 196.231445312 498.5703125 c 0
 191.231445312 473.5703125 179.802734375 431.427734375 170.517578125 403.5703125 c 0
 161.231445312 376.427734375 152.66015625 345.712890625 151.231445312 335.712890625 c 2
 149.088867188 317.856445312 l 1
 211.946289062 318.5703125 l 2
 246.231445312 318.5703125 277.66015625 322.141601562 281.231445312 325.712890625 c 0
 284.802734375 329.28515625 280.517578125 349.28515625 270.517578125 374.999023438 c 0
 260.517578125 398.5703125 252.66015625 422.856445312 252.66015625 428.5703125 c 0
 252.66015625 434.28515625 248.375 447.141601562 243.375 457.141601562 c 0
 237.66015625 467.141601562 229.088867188 490.712890625 224.088867188 509.28515625 c 0
EndSplineSet
EndChar

StartChar: B
Encoding: 66 66 34
Width: 420
Flags: HMW
HStem: 314.286 42.8564<222.336 258.407> 322.857 48.5713<124.121 146.621> 614.286 67.8564
VStem: 62.6927 38.5713 294.121 40
LayerCount: 2
Fore
SplineSet
114.122070312 673.571289062 m 0xb8
 119.122070312 679.286132812 144.122070312 682.142578125 181.979492188 682.142578125 c 0
 237.693359375 682.142578125 244.8359375 680.713867188 276.979492188 659.286132812 c 0
 349.8359375 612.857421875 384.8359375 563.571289062 375.55078125 522.857421875 c 0
 373.408203125 512.142578125 362.693359375 487.142578125 353.408203125 467.142578125 c 0
 339.122070312 439.286132812 327.693359375 427.142578125 301.979492188 414.286132812 c 0
 227.693359375 375.713867188 206.979492188 357.142578125 237.693359375 357.142578125 c 0
 260.55078125 357.142578125 288.408203125 337.142578125 314.8359375 301.428710938 c 0
 335.55078125 272.857421875 338.408203125 265.713867188 334.122070312 237.857421875 c 0
 327.693359375 188.571289062 276.264648438 117.857421875 219.8359375 79.2861328125 c 0
 183.408203125 54.2861328125 61.2646484375 22.857421875 49.1220703125 35 c 0
 43.408203125 40.7138671875 43.408203125 48.5712890625 50.55078125 66.4287109375 c 0
 55.55078125 78.5712890625 61.2646484375 113.571289062 62.693359375 142.857421875 c 0
 65.6826171875 204.134765625 77.748046875 261.45703125 79.8359375 317.857421875 c 0
 79.8359375 337.857421875 81.9794921875 365 84.1220703125 378.571289062 c 0
 88.408203125 407.142578125 94.8359375 495 98.408203125 564.286132812 c 0
 101.264648438 628.571289062 106.264648438 663.571289062 114.122070312 673.571289062 c 0xb8
267.693359375 631.428710938 m 0
 225.55078125 642.857421875 170.55078125 641.428710938 154.122070312 627.857421875 c 0
 149.8359375 624.286132812 144.122070312 583.571289062 141.264648438 533.571289062 c 0
 139.122070312 485.713867188 134.8359375 429.286132812 132.693359375 409.286132812 c 0
 128.408203125 375 129.122070312 371.428710938 142.693359375 371.428710938 c 0x78
 150.55078125 371.428710938 160.55078125 376.428710938 165.55078125 382.142578125 c 0
 170.55078125 387.857421875 178.408203125 392.857421875 182.693359375 392.857421875 c 0
 186.979492188 392.857421875 206.264648438 404.286132812 225.55078125 417.857421875 c 0
 244.8359375 431.428710938 266.264648438 442.857421875 272.693359375 442.857421875 c 0
 287.693359375 442.857421875 300.55078125 457.142578125 326.264648438 502.142578125 c 0
 344.122070312 532.857421875 344.8359375 537.857421875 336.979492188 559.286132812 c 0
 326.979492188 583.571289062 299.8359375 614.286132812 286.979492188 614.286132812 c 0
 283.408203125 614.286132812 279.8359375 617.142578125 279.8359375 620.713867188 c 0
 279.8359375 624.286132812 274.122070312 629.286132812 267.693359375 631.428710938 c 0
249.122070312 314.286132812 m 0xb8
 240.55078125 315 208.408203125 316.428710938 178.408203125 318.571289062 c 2
 124.122070312 322.857421875 l 1x78
 119.122070312 287.857421875 l 2
 113.609375 240.07421875 101.264648438 177.104492188 101.264648438 122.142578125 c 0
 101.264648438 82.142578125 102.693359375 77.857421875 114.122070312 82.142578125 c 0
 120.55078125 85 137.693359375 90.7138671875 151.264648438 94.2861328125 c 0
 224.8359375 115.713867188 294.122070312 190 294.122070312 247.142578125 c 0
 294.122070312 275 267.693359375 314.286132812 249.122070312 314.286132812 c 0xb8
EndSplineSet
EndChar

StartChar: C
Encoding: 67 67 35
Width: 454
Flags: HMW
VStem: 57.1487 35.7139
LayerCount: 2
Fore
SplineSet
252.862304688 657.857421875 m 0
 343.577148438 675 415.005859375 642.142578125 353.577148438 611.428710938 c 0
 335.719726562 602.142578125 328.577148438 602.142578125 320.719726562 608.571289062 c 0
 306.434570312 620 264.291015625 616.428710938 242.1484375 602.142578125 c 0
 214.291015625 583.571289062 132.862304688 461.428710938 110.005859375 401.428710938 c 0
 90.005859375 350.713867188 88.5771484375 342.142578125 92.8623046875 285.713867188 c 2
 97.1484375 225 l 1
 134.291015625 191.428710938 l 2
 192.1484375 137.857421875 264.291015625 123.571289062 325.005859375 154.286132812 c 0
 336.434570312 160 349.291015625 169.286132812 354.291015625 175 c 0
 365.719726562 188.571289062 385.719726562 188.571289062 397.1484375 175 c 0
 405.005859375 165.713867188 403.577148438 160.713867188 389.291015625 145.713867188 c 0
 368.577148438 123.571289062 336.434570312 107.142578125 312.1484375 107.142578125 c 0
 302.1484375 106.428710938 284.291015625 102.857421875 272.862304688 97.857421875 c 0
 255.719726562 90 245.719726562 91.4287109375 208.577148438 103.571289062 c 0
 153.577148438 122.142578125 114.291015625 145.713867188 98.5771484375 170.713867188 c 0
 92.1484375 180.713867188 80.7197265625 194.286132812 73.5771484375 200 c 0
 63.5771484375 208.571289062 60.005859375 226.428710938 57.1484375 289.286132812 c 0
 52.8623046875 359.286132812 54.291015625 371.428710938 67.8623046875 402.142578125 c 0
 76.4345703125 421.428710938 82.8623046875 441.428710938 82.8623046875 447.142578125 c 0
 82.8623046875 452.857421875 92.8623046875 470.713867188 104.291015625 487.142578125 c 0
 116.434570312 502.857421875 125.719726562 519.286132812 125.719726562 523.571289062 c 0
 125.719726562 531.428710938 198.577148438 629.286132812 215.005859375 642.857421875 c 0
 221.434570312 647.857421875 238.577148438 655 252.862304688 657.857421875 c 0
EndSplineSet
EndChar

StartChar: D
Encoding: 68 68 36
Width: 462
Flags: HMW
VStem: 82.0986 46.4287 349.956 51.4287
LayerCount: 2
Fore
SplineSet
103.52734375 691.428710938 m 0
 144.956054688 705.713867188 193.526367188 700.713867188 232.09765625 678.571289062 c 0
 285.737304688 647.919921875 317.583984375 637.706054688 360.669921875 591.428710938 c 0
 399.956054688 549.286132812 399.241210938 555 401.384765625 417.857421875 c 0
 402.8125 341.428710938 380.669921875 202.857421875 360.669921875 165 c 0
 345.669921875 135.713867188 313.52734375 110.713867188 254.241210938 82.142578125 c 0
 207.098632812 59.2861328125 195.669921875 57.142578125 141.384765625 57.142578125 c 0
 52.8125 57.142578125 49.2412109375 61.4287109375 60.669921875 160.713867188 c 0
 69.9560546875 247.142578125 79.9560546875 402.142578125 82.0986328125 507.857421875 c 0
 84.9560546875 613.571289062 84.2412109375 622.857421875 71.384765625 635.713867188 c 0
 63.52734375 643.571289062 57.0986328125 652.857421875 57.0986328125 655.713867188 c 0
 57.0986328125 665.713867188 79.9560546875 682.857421875 103.52734375 691.428710938 c 0
207.811523438 638.571289062 m 0
 161.383789062 659.286132812 143.52734375 661.4296875 139.241210938 648.572265625 c 0
 135.669921875 635.71484375 127.8125 490.71484375 128.52734375 444.287109375 c 0
 129.241210938 423.572265625 124.241210938 375.71484375 117.8125 337.858398438 c 0
 106.384765625 270.000976562 105.669921875 119.287109375 117.098632812 101.4296875 c 0
 123.52734375 90.71484375 164.956054688 90.71484375 190.669921875 100.71484375 c 0
 213.62109375 109.895507812 230.168945312 118.266601562 254.240234375 124.286132812 c 0
 277.09765625 130.713867188 335.668945312 191.428710938 335.668945312 209.286132812 c 0
 335.668945312 217.857421875 338.526367188 242.857421875 342.09765625 264.286132812 c 0
 363.526367188 397.142578125 365.668945312 422.857421875 357.811523438 453.571289062 c 0
 353.526367188 470.713867188 349.955078125 497.142578125 349.955078125 512.142578125 c 0
 349.955078125 535 344.955078125 544.286132812 323.526367188 565 c 0
 308.526367188 579.286132812 285.668945312 595 273.526367188 600 c 0
 260.668945312 605 249.955078125 611.428710938 249.955078125 614.286132812 c 0
 249.955078125 617.142578125 231.383789062 627.857421875 207.811523438 638.571289062 c 0
EndSplineSet
EndChar

StartChar: E
Encoding: 69 69 37
Width: 422
Flags: HMW
HStem: 90 42.1426 350 47.8574 608.571 49.2861
LayerCount: 2
Fore
SplineSet
114.815429688 655 m 0
 121.244140625 660 135.530273438 661.428710938 151.244140625 658.571289062 c 0
 177.672851562 654.286132812 269.1015625 653.571289062 318.38671875 657.857421875 c 0
 350.530273438 660.713867188 363.38671875 650 356.958984375 626.428710938 c 0
 353.38671875 610 351.244140625 609.286132812 279.815429688 608.571289062 c 0
 167.672851562 607.142578125 158.38671875 603.571289062 144.815429688 554.286132812 c 0
 134.815429688 519.286132812 134.1015625 415.713867188 144.1015625 405.713867188 c 0
 147.672851562 402.142578125 184.815429688 398.571289062 226.244140625 397.857421875 c 0
 309.815429688 395.713867188 328.38671875 388.571289062 306.958984375 365.713867188 c 0
 298.38671875 355.713867188 284.815429688 352.142578125 254.1015625 351.428710938 c 0
 231.958984375 351.428710938 199.1015625 350.713867188 181.958984375 350.713867188 c 2
 150.530273438 350 l 1
 155.530273438 322.142578125 l 2
 159.1015625 299.286132812 157.672851562 293.571289062 146.244140625 290.713867188 c 0
 131.244140625 287.142578125 122.672851562 252.857421875 128.38671875 222.142578125 c 0
 131.244140625 210.713867188 129.1015625 189.286132812 124.1015625 175 c 0
 110.530273438 134.286132812 116.244140625 132.142578125 246.958984375 132.142578125 c 0
 346.244140625 132.142578125 362.672851562 130.713867188 369.1015625 120 c 0
 374.815429688 111.428710938 374.1015625 105.713867188 368.38671875 97.857421875 c 0
 361.244140625 89.2861328125 336.958984375 87.857421875 233.38671875 90 c 0
 84.1015625 92.142578125 54.8154296875 96.4287109375 44.8154296875 115 c 0
 39.1015625 127.142578125 41.244140625 133.571289062 59.1015625 151.428710938 c 0
 85.5302734375 178.571289062 89.8154296875 202.142578125 86.244140625 307.142578125 c 0
 81.958984375 450.713867188 96.958984375 641.428710938 114.815429688 655 c 0
EndSplineSet
EndChar

StartChar: F
Encoding: 70 70 38
Width: 463
Flags: HMW
HStem: 338.571 38.5713<209 209>
VStem: 77.9591 42.1426
LayerCount: 2
Fore
SplineSet
94.3876953125 673.571289062 m 0
 106.530273438 688.571289062 400.1015625 683.571289062 415.815429688 668.571289062 c 0
 423.672851562 660 424.387695312 655 418.672851562 649.286132812 c 0
 412.244140625 642.857421875 173.672851562 625.713867188 150.815429688 630.713867188 c 0
 138.383789062 632.491210938 127.899414062 556.147460938 125.1015625 542.857421875 c 0
 122.244140625 529.286132812 120.1015625 487.142578125 120.1015625 450 c 2
 120.1015625 382.142578125 l 1
 141.530273438 380.713867188 l 2
 153.672851562 379.286132812 183.672851562 377.857421875 209.387695312 377.142578125 c 0
 253.672851562 375 255.815429688 374.286132812 255.815429688 357.142578125 c 0
 255.815429688 340 253.672851562 339.286132812 209.387695312 338.571289062 c 0
 183.672851562 338.571289062 152.958984375 335.713867188 140.1015625 332.857421875 c 0
 112.958984375 326.428710938 112.958984375 326.428710938 97.958984375 167.857421875 c 0
 94.3876953125 132.857421875 82.958984375 100 73.6728515625 100 c 0
 71.5302734375 100 63.6728515625 104.286132812 57.244140625 109.286132812 c 0
 45.8154296875 117.142578125 45.8154296875 122.857421875 60.1015625 200 c 0
 69.3876953125 252.857421875 75.8154296875 322.857421875 77.958984375 396.428710938 c 0
 79.3876953125 459.286132812 83.6728515625 541.428710938 87.244140625 578.571289062 c 0
 90.8154296875 615.713867188 91.5302734375 650 90.1015625 655 c 0
 87.958984375 660 90.1015625 668.571289062 94.3876953125 673.571289062 c 0
EndSplineSet
EndChar

StartChar: G
Encoding: 71 71 39
Width: 482
Flags: HMW
HStem: 332.143 50.7148 654.286 50
LayerCount: 2
Fore
SplineSet
287.7109375 705.713867188 m 0
 299.853515625 709.286132812 314.139648438 709.286132812 321.282226562 706.428710938 c 0
 327.7109375 702.857421875 346.997070312 702.142578125 364.853515625 704.286132812 c 0
 404.139648438 710 429.139648438 698.571289062 425.568359375 676.428710938 c 0
 423.42578125 659.286132812 412.7109375 656.428710938 336.997070312 654.286132812 c 0
 313.42578125 652.857421875 289.853515625 650 285.568359375 647.142578125 c 0
 280.568359375 644.286132812 270.568359375 644.286132812 262.7109375 646.428710938 c 0
 244.139648438 652.142578125 173.42578125 582.857421875 142.7109375 528.571289062 c 0
 116.282226562 481.428710938 91.2822265625 375.713867188 91.2822265625 311.428710938 c 0
 91.2822265625 217.142578125 134.853515625 142.857421875 190.568359375 142.857421875 c 0
 242.7109375 142.857421875 263.42578125 151.428710938 305.568359375 190.713867188 c 0
 340.568359375 222.857421875 349.853515625 237.142578125 362.7109375 275.713867188 c 0
 371.282226562 301.428710938 376.282226562 324.286132812 373.42578125 327.142578125 c 0
 370.568359375 330 340.568359375 332.142578125 306.997070312 332.142578125 c 0
 248.42578125 332.142578125 244.853515625 332.857421875 242.7109375 347.857421875 c 0
 239.139648438 372.142578125 265.568359375 381.428710938 343.42578125 382.857421875 c 0
 410.568359375 384.286132812 414.139648438 383.571289062 421.282226562 367.857421875 c 0
 425.568359375 358.571289062 426.282226562 345 423.42578125 337.857421875 c 0
 420.568359375 330.713867188 416.997070312 315 415.568359375 302.142578125 c 0
 414.853515625 289.286132812 408.42578125 270 402.7109375 257.857421875 c 0
 396.282226562 246.428710938 391.282226562 232.857421875 391.282226562 228.571289062 c 0
 391.282226562 221.428710938 346.997070312 170.713867188 309.139648438 134.286132812 c 0
 301.282226562 127.142578125 286.997070312 119.286132812 276.997070312 116.428710938 c 0
 266.997070312 114.286132812 255.568359375 109.286132812 250.568359375 105.713867188 c 0
 236.282226562 94.2861328125 141.282226562 97.142578125 141.282226562 108.571289062 c 0
 141.282226562 112.142578125 126.997070312 130 109.853515625 148.571289062 c 0
 66.9970703125 195.713867188 51.9970703125 252.142578125 58.42578125 347.857421875 c 0
 65.568359375 461.428710938 71.2822265625 502.142578125 81.9970703125 512.857421875 c 0
 87.7109375 518.571289062 94.1396484375 532.142578125 96.2822265625 543.571289062 c 0
 98.42578125 554.286132812 107.7109375 570.713867188 116.997070312 579.286132812 c 0
 126.282226562 587.857421875 134.139648438 599.286132812 134.139648438 603.571289062 c 0
 134.139648438 614.286132812 190.568359375 670.713867188 213.42578125 682.857421875 c 0
 238.9453125 694.766601562 259.057617188 696.759765625 287.7109375 705.713867188 c 0
EndSplineSet
EndChar

StartChar: H
Encoding: 72 72 40
Width: 484
Flags: HMW
HStem: 339.286 35
VStem: 66.2048 38.5713 81.9197 42.1426 351.92 53.5713 354.062 45.7139
LayerCount: 2
Fore
SplineSet
356.205078125 723.571289062 m 0xa8
 356.205078125 743.057617188 369.720703125 758.783203125 391.205078125 755.713867188 c 0
 409.776367188 753.571289062 409.776367188 752.857421875 408.348632812 700 c 0
 407.633789062 670.713867188 404.0625 595 399.776367188 532.142578125 c 0xa8
 394.776367188 452.142578125 394.776367188 415.713867188 400.491210938 409.286132812 c 0
 410.526367188 395.235351562 396.686523438 381.663085938 409.776367188 368.571289062 c 0
 424.0625 355 423.348632812 337.857421875 408.348632812 329.286132812 c 0
 397.633789062 323.571289062 396.919921875 318.571289062 405.491210938 277.142578125 c 0
 415.491210938 225.713867188 418.348632812 140 410.491210938 116.428710938 c 0
 407.633789062 107.142578125 401.205078125 100 396.205078125 100 c 0
 377.633789062 100 368.348632812 120.713867188 372.633789062 152.142578125 c 0
 376.205078125 177.857421875 363.348632812 283.571289062 351.919921875 323.571289062 c 0
 349.0625 333.571289062 341.205078125 335.713867188 314.776367188 335 c 0
 296.205078125 333.571289062 251.919921875 335.713867188 216.919921875 339.286132812 c 0
 161.205078125 343.571289062 151.205078125 342.857421875 142.633789062 332.857421875 c 0
 137.633789062 326.428710938 126.919921875 321.428710938 119.776367188 321.428710938 c 0
 109.0625 321.428710938 106.205078125 316.428710938 106.919921875 297.857421875 c 0
 106.919921875 285.713867188 106.205078125 230.713867188 104.776367188 177.142578125 c 0
 102.633789062 95.7138671875 100.491210938 76.4287109375 89.7763671875 66.4287109375 c 0
 81.205078125 57.857421875 75.4912109375 56.4287109375 69.7763671875 62.142578125 c 0
 59.0625 72.857421875 51.205078125 140.713867188 56.919921875 175 c 0
 59.7763671875 190.713867188 64.0625 241.428710938 66.205078125 287.857421875 c 0xd0
 68.3486328125 334.286132812 72.6337890625 375.713867188 74.7763671875 380 c 0
 77.6337890625 384.286132812 80.4912109375 468.571289062 81.919921875 567.142578125 c 0
 83.3486328125 737.857421875 84.0625 746.428710938 97.6337890625 748.571289062 c 0
 104.776367188 750 114.776367188 746.428710938 119.0625 740.713867188 c 0
 129.776367188 727.857421875 144.776367188 617.857421875 138.348632812 601.428710938 c 0
 133.348632812 589.286132812 125.491210938 490.713867188 124.776367188 425 c 2
 124.0625 389.286132812 l 1
 184.776367188 381.428710938 l 2
 218.348632812 377.142578125 269.0625 374.286132812 297.633789062 374.286132812 c 2
 349.776367188 375 l 1
 354.0625 503.571289062 l 2
 358.348632812 622.857421875 359.0625 692.142578125 356.205078125 723.571289062 c 0xa8
EndSplineSet
EndChar

StartChar: I
Encoding: 73 73 41
Width: 496
Flags: HMW
HStem: 66.4287 51.4287
VStem: 186.857 49.2852<112.857 115.714> 204.714 57.1436<653.571 658.571>
LayerCount: 2
Fore
SplineSet
407.571289062 710.713867188 m 0xa0
 422.571289062 718.571289062 429 718.571289062 439.713867188 711.428710938 c 0
 459 699.286132812 460.428710938 691.428710938 448.28515625 675 c 0
 439 662.142578125 428.28515625 660.713867188 349.713867188 660 c 2
 261.857421875 658.571289062 l 1xa0
 256.857421875 627.857421875 l 2
 244 550 234 377.857421875 234.713867188 253.571289062 c 0
 235.428710938 179.286132812 236.142578125 115.713867188 236.142578125 112.857421875 c 0
 237.571289062 102.857421875 301.142578125 107.142578125 322.571289062 117.857421875 c 0
 349.713867188 132.142578125 378.28515625 125 389 102.142578125 c 0
 402.571289062 72.142578125 389 67.857421875 266.857421875 66.4287109375 c 0
 205.428710938 65.7138671875 135.428710938 62.857421875 111.857421875 60.7138671875 c 0
 79 57.142578125 65.4287109375 58.5712890625 54.7138671875 67.142578125 c 0
 41.857421875 77.142578125 41.142578125 78.5712890625 51.857421875 89.2861328125 c 0
 58.28515625 96.4287109375 77.5712890625 102.142578125 98.28515625 102.857421875 c 0
 117.571289062 104.286132812 145.428710938 107.857421875 160.428710938 110.713867188 c 2
 186.857421875 115.713867188 l 1xc0
 187.571289062 202.857421875 l 2
 188.28515625 288.571289062 189.713867188 314.286132812 197.571289062 482.142578125 c 0
 200.428710938 529.286132812 202.571289062 587.142578125 203.28515625 610.713867188 c 2
 204.713867188 653.571289062 l 1
 179.713867188 652.857421875 l 2
 166.142578125 652.142578125 134.713867188 649.286132812 110.428710938 646.428710938 c 0
 62.5712890625 640.713867188 44 647.142578125 44 671.428710938 c 0
 44 681.428710938 53.28515625 685.713867188 89 692.142578125 c 0
 114 696.428710938 151.857421875 700 173.28515625 700 c 0
 194.713867188 700 216.142578125 703.571289062 220.428710938 707.857421875 c 0
 226.857421875 714.286132812 234.713867188 714.286132812 251.857421875 707.142578125 c 0
 281.142578125 695 382.571289062 697.142578125 407.571289062 710.713867188 c 0xa0
EndSplineSet
EndChar

StartChar: J
Encoding: 74 74 42
Width: 458
Flags: HMW
HStem: 642.857 48.5713
VStem: 242.596 39.2861
LayerCount: 2
Fore
SplineSet
76.880859375 690.713867188 m 0
 79.0234375 694.286132812 90.4521484375 697.142578125 101.166015625 696.428710938 c 0
 251.166015625 683.571289062 322.594726562 682.142578125 364.0234375 691.428710938 c 0
 403.30859375 699.286132812 417.594726562 694.286132812 417.594726562 670.713867188 c 0
 417.594726562 651.428710938 390.452148438 642.857421875 328.30859375 642.857421875 c 0
 299.0234375 642.857421875 273.30859375 639.286132812 271.166015625 635 c 0
 268.30859375 631.428710938 269.737304688 619.286132812 274.0234375 608.571289062 c 0
 284.737304688 581.428710938 288.30859375 437.142578125 281.880859375 280.713867188 c 0
 276.880859375 163.571289062 274.0234375 142.857421875 260.452148438 116.428710938 c 0
 249.737304688 95 238.30859375 84.2861328125 221.166015625 78.5712890625 c 0
 192.594726562 69.2861328125 134.737304688 72.857421875 110.452148438 85.7138671875 c 0
 84.7373046875 99.2861328125 55.4521484375 135.713867188 49.7373046875 160.713867188 c 0
 43.30859375 189.286132812 45.4521484375 242.142578125 54.0234375 256.428710938 c 0
 58.30859375 262.857421875 64.7373046875 284.286132812 69.7373046875 303.571289062 c 0
 77.5947265625 336.428710938 80.4521484375 340 104.737304688 345.713867188 c 0
 124.0234375 350.713867188 134.0234375 350 141.880859375 342.857421875 c 0
 157.594726562 330 156.166015625 322.142578125 135.452148438 314.286132812 c 0
 125.452148438 310.713867188 116.166015625 303.571289062 114.737304688 298.571289062 c 0
 113.30859375 293.571289062 107.594726562 273.571289062 101.166015625 253.571289062 c 0
 71.880859375 163.571289062 119.0234375 99.2861328125 198.30859375 120 c 0
 231.880859375 128.571289062 239.737304688 160 242.594726562 292.857421875 c 0
 244.0234375 353.571289062 246.880859375 409.286132812 249.737304688 416.428710938 c 0
 252.594726562 422.857421875 252.594726562 437.142578125 249.737304688 448.571289062 c 0
 246.880859375 459.286132812 243.30859375 487.142578125 241.166015625 510.713867188 c 0
 239.737304688 533.571289062 235.452148438 572.142578125 233.30859375 596.428710938 c 2
 228.30859375 639.286132812 l 1
 181.880859375 645 l 2
 156.166015625 648.571289062 129.0234375 652.142578125 121.166015625 654.286132812 c 0
 101.166015625 658.571289062 71.880859375 682.142578125 76.880859375 690.713867188 c 0
EndSplineSet
EndChar

StartChar: K
Encoding: 75 75 43
Width: 439
Flags: HMW
VStem: 72.3242 29.2861 248.039 57.1426<234.286 264.286> 336.61 45.7139<57 57>
LayerCount: 2
Fore
SplineSet
328.038085938 660.713867188 m 0
 370.180664062 712.857421875 392.323242188 720.713867188 396.609375 682.857421875 c 0
 398.751953125 666.428710938 393.751953125 657.857421875 373.751953125 641.428710938 c 0
 359.465820312 630 342.323242188 610 335.89453125 597.857421875 c 0
 329.465820312 585 317.323242188 565.713867188 308.038085938 555 c 0
 298.751953125 543.571289062 290.89453125 526.428710938 290.89453125 517.142578125 c 0
 290.89453125 505.713867188 285.180664062 497.857421875 275.180664062 493.571289062 c 0
 256.609375 486.428710938 232.323242188 460.713867188 217.323242188 431.428710938 c 0
 205.180664062 407.857421875 210.180664062 396.428710938 267.323242188 311.428710938 c 0
 288.038085938 280 305.180664062 249.286132812 305.180664062 243.571289062 c 0
 305.180664062 225 321.609375 185 343.038085938 148.571289062 c 0
 353.751953125 130 362.323242188 110.713867188 362.323242188 105 c 0
 362.323242188 99.2861328125 366.609375 91.4287109375 371.609375 87.142578125 c 0
 376.609375 82.857421875 381.609375 69.2861328125 382.323242188 57.142578125 c 0
 383.751953125 36.4287109375 382.323242188 35 364.465820312 37.142578125 c 0
 352.323242188 38.5712890625 341.609375 45.7138671875 336.609375 57.142578125 c 0
 313.038085938 107.142578125 297.323242188 143.571289062 287.323242188 171.428710938 c 0
 281.609375 187.857421875 270.180664062 212.142578125 262.323242188 225 c 0
 254.465820312 237.857421875 248.038085938 253.571289062 248.038085938 260.713867188 c 0
 248.038085938 267.857421875 235.89453125 290 220.89453125 310 c 0
 205.89453125 330 189.465820312 354.286132812 184.465820312 362.857421875 c 2
 175.180664062 380 l 1
 157.323242188 362.857421875 l 2
 147.323242188 354.286132812 130.89453125 332.142578125 120.89453125 314.286132812 c 0
 103.038085938 284.286132812 101.609375 277.142578125 101.609375 179.286132812 c 0
 100.89453125 70.7138671875 95.1806640625 54.2861328125 73.0380859375 88.5712890625 c 0
 57.3232421875 112.857421875 50.1806640625 210.713867188 61.609375 251.428710938 c 0
 66.609375 268.571289062 71.609375 335 72.3232421875 400 c 0
 76.609375 614.286132812 94.4658203125 716.428710938 124.465820312 692.142578125 c 0
 135.180664062 682.857421875 136.609375 607.857421875 125.89453125 553.571289062 c 0
 108.751953125 461.428710938 111.609375 397.142578125 133.038085938 410 c 0
 152.323242188 422.142578125 290.89453125 597.857421875 290.89453125 610 c 0
 290.89453125 612.142578125 308.038085938 635 328.038085938 660.713867188 c 0
EndSplineSet
EndChar

StartChar: L
Encoding: 76 76 44
Width: 405
Flags: HMW
VStem: 71.0328 38.5713<108.571 110.714>
LayerCount: 2
Fore
SplineSet
78.17578125 685 m 0
 87.4609375 699.286132812 90.318359375 700 98.8896484375 691.428710938 c 0
 104.604492188 685.713867188 109.604492188 672.142578125 109.604492188 660 c 0
 111.033203125 591.428710938 112.4609375 288.571289062 111.033203125 206.428710938 c 2
 109.604492188 108.571289062 l 1
 150.318359375 103.571289062 l 2
 172.4609375 100.713867188 213.17578125 98.5712890625 240.318359375 99.2861328125 c 0
 280.318359375 99.2861328125 293.17578125 102.857421875 306.033203125 115 c 0
 314.604492188 123.571289062 325.318359375 127.857421875 329.604492188 125 c 0
 341.747070312 117.857421875 360.318359375 78.5712890625 356.747070312 68.5712890625 c 0
 351.033203125 55 232.4609375 50 144.604492188 60 c 2
 69.6044921875 68.5712890625 l 1
 71.033203125 110.713867188 l 2
 73.8896484375 227.857421875 73.8896484375 506.428710938 70.318359375 582.142578125 c 0
 67.4609375 652.142578125 68.8896484375 670.713867188 78.17578125 685 c 0
EndSplineSet
EndChar

StartChar: M
Encoding: 77 77 45
Width: 489
Flags: HMW
VStem: 67.1536 41.4287 71.4397 50.7139 370.011 39.2852
LayerCount: 2
Fore
SplineSet
375.01171875 595 m 0x60
 401.440429688 629.286132812 407.868164062 634.287109375 421.440429688 629.287109375 c 0
 430.01171875 625.71484375 437.154296875 620.71484375 437.154296875 617.143554688 c 0
 436.440429688 613.572265625 434.296875 595.000976562 431.440429688 575.000976562 c 0
 415.01171875 466.4296875 411.440429688 417.858398438 409.296875 271.4296875 c 0
 406.440429688 120.71484375 401.440429688 78.572265625 385.01171875 68.572265625 c 0
 369.296875 58.572265625 365.01171875 85.71484375 370.01171875 164.287109375 c 0
 378.583007812 305.71484375 383.583007812 513.572265625 377.868164062 517.143554688 c 0
 374.296875 519.287109375 355.725585938 499.287109375 335.725585938 472.858398438 c 0
 264.296875 379.287109375 255.725585938 371.4296875 237.868164062 380.000976562 c 0
 227.868164062 384.287109375 204.296875 417.143554688 180.01171875 461.4296875 c 0
 157.154296875 502.143554688 135.725585938 535.71484375 132.868164062 535.71484375 c 0
 125.725585938 535.71484375 119.296875 467.143554688 122.154296875 423.572265625 c 0x60
 123.583007812 402.858398438 121.440429688 370.71484375 117.154296875 352.143554688 c 0
 112.868164062 332.858398438 109.296875 263.572265625 109.296875 196.4296875 c 2
 108.583007812 75.0009765625 l 1
 90.01171875 72.8583984375 l 2
 65.01171875 70.0009765625 64.296875 75.0009765625 67.154296875 221.4296875 c 0xa0
 68.5830078125 286.4296875 70.01171875 401.4296875 71.4404296875 477.858398438 c 0
 72.8681640625 598.572265625 74.296875 617.143554688 85.01171875 623.572265625 c 0
 108.565429688 638.713867188 170.923828125 563.297851562 179.296875 545.713867188 c 0
 187.154296875 530.713867188 204.296875 497.857421875 217.868164062 472.857421875 c 0
 241.440429688 429.286132812 242.154296875 427.857421875 255.725585938 440 c 0
 262.868164062 446.428710938 269.296875 455.713867188 269.296875 459.286132812 c 0
 269.296875 462.857421875 286.440429688 486.428710938 307.154296875 510.713867188 c 0
 327.154296875 535.713867188 357.868164062 573.571289062 375.01171875 595 c 0x60
EndSplineSet
EndChar

StartChar: N
Encoding: 78 78 46
Width: 419
Flags: HMW
VStem: 73.3464 36.4287 176.204 42.8564<482.144 483.929> 269.06 71.4287 296.918 50 306.204 38.5713
LayerCount: 2
Fore
SplineSet
106.91796875 662.857421875 m 0xe0
 114.775390625 674.286132812 133.346679688 671.4296875 140.489257812 657.143554688 c 0
 143.346679688 651.4296875 153.346679688 627.143554688 161.91796875 603.572265625 c 0
 171.204101562 580.000976562 187.631835938 547.143554688 199.060546875 530.000976562 c 0
 209.775390625 512.858398438 219.060546875 492.858398438 219.060546875 485.71484375 c 0
 219.060546875 478.572265625 221.91796875 470.71484375 225.489257812 468.572265625 c 0
 229.060546875 466.4296875 233.346679688 452.143554688 235.489257812 437.858398438 c 0
 239.060546875 408.572265625 256.91796875 352.143554688 272.631835938 317.858398438 c 0
 278.346679688 306.4296875 284.775390625 284.287109375 287.631835938 270.000976562 c 0
 289.775390625 255.000976562 295.489257812 242.858398438 299.060546875 242.858398438 c 0
 307.143554688 242.858398438 296.415039062 401.05859375 296.91796875 403.572265625 c 0
 297.631835938 410.000976562 303.346679688 527.143554688 306.91796875 617.858398438 c 0
 308.346679688 649.287109375 310.489257812 653.572265625 324.060546875 655.71484375 c 0
 349.775390625 659.287109375 355.489257812 633.572265625 346.91796875 552.143554688 c 0xd0
 337.396484375 466.4609375 349.290039062 293.395507812 340.489257812 207.143554688 c 0xe0
 336.204101562 160.000976562 336.91796875 130.71484375 344.775390625 95.0009765625 c 0
 353.346679688 52.8583984375 353.346679688 45.71484375 344.060546875 35.71484375 c 0
 330.489257812 22.8583984375 309.775390625 32.8583984375 306.204101562 54.287109375 c 0xc8
 303.809570312 66.2568359375 269.060546875 174.395507812 269.060546875 188.572265625 c 0
 269.060546875 202.143554688 249.775390625 262.858398438 240.489257812 280.000976562 c 0
 236.204101562 287.143554688 233.346679688 299.287109375 233.346679688 306.4296875 c 0
 233.346679688 314.287109375 230.489257812 322.143554688 226.91796875 324.287109375 c 0
 217.59375 329.880859375 212.379882812 369.977539062 209.060546875 382.142578125 c 0
 204.719726562 398.0625 194.361328125 448.985351562 184.060546875 459.286132812 c 0
 179.775390625 463.571289062 176.204101562 472.142578125 176.204101562 478.571289062 c 0
 176.204101562 489.286132812 148.346679688 521.428710938 146.91796875 513.571289062 c 0
 141.825195312 488.112304688 131.950195312 338.326171875 125.489257812 302.142578125 c 0
 121.204101562 281.428710938 119.775390625 261.428710938 121.91796875 257.857421875 c 0
 126.912109375 251.615234375 105.328125 125.211914062 109.775390625 119.286132812 c 0
 111.91796875 115.713867188 108.346679688 107.857421875 102.631835938 101.428710938 c 0
 97.6318359375 95 90.4892578125 83.5712890625 88.3466796875 76.4287109375 c 0
 82.6318359375 60.7138671875 56.2041015625 62.142578125 45.4892578125 79.2861328125 c 0
 40.4892578125 87.857421875 42.6318359375 96.4287109375 55.4892578125 113.571289062 c 0
 69.775390625 133.571289062 71.91796875 145 73.3466796875 209.286132812 c 0
 74.060546875 249.286132812 78.3466796875 305 82.6318359375 332.142578125 c 0
 86.91796875 360 90.4892578125 392.142578125 90.4892578125 403.571289062 c 0
 91.2041015625 480 101.91796875 655 106.91796875 662.857421875 c 0xe0
EndSplineSet
EndChar

StartChar: O
Encoding: 79 79 47
Width: 415
Flags: HMW
VStem: 55 33.5713 294.286 30
LayerCount: 2
Fore
SplineSet
132.857421875 628.571289062 m 0
 155.280273438 668.935546875 216.096679688 704.359375 267.857421875 664.286132812 c 0
 290 646.428710938 323.571289062 593.571289062 324.286132812 575 c 0
 327.142578125 503.571289062 337.857421875 422.142578125 345.71484375 407.142578125 c 0
 362.857421875 373.571289062 357.142578125 297.142578125 327.857421875 185.713867188 c 0
 321.428710938 159.286132812 297.857421875 111.428710938 282.142578125 92.142578125 c 0
 277.142578125 86.4287109375 257.857421875 72.142578125 238.571289062 61.4287109375 c 0
 210 44.2861328125 200 42.142578125 172.857421875 46.4287109375 c 0
 145.71484375 50 133.571289062 57.857421875 97.857421875 94.2861328125 c 2
 55 138.571289062 l 1
 55 237.857421875 l 2
 55 292.142578125 57.857421875 342.142578125 61.4287109375 348.571289062 c 0
 65 355 70 386.428710938 72.142578125 417.857421875 c 0
 74.2861328125 449.286132812 79.2861328125 488.571289062 82.142578125 505.713867188 c 0
 85.71484375 522.142578125 87.142578125 535.713867188 85.71484375 535.713867188 c 0
 81.8203125 535.713867188 121.00390625 608.098632812 132.857421875 628.571289062 c 0
271.428710938 593.571289062 m 0
 250 634.286132812 239.286132812 640 201.428710938 628.571289062 c 0
 179.286132812 621.428710938 142.142578125 572.857421875 128.571289062 532.142578125 c 0
 105.71484375 465.713867188 90.71484375 351.428710938 88.5712890625 239.286132812 c 0
 87.142578125 172.142578125 89.2861328125 157.142578125 101.428710938 136.428710938 c 0
 134.286132812 80.7138671875 189.286132812 67.142578125 235.71484375 103.571289062 c 0
 287.142578125 145 335 285 308.571289062 314.286132812 c 0
 298.571289062 325 296.428710938 348.571289062 294.286132812 441.428710938 c 0
 291.428710938 550.713867188 290.71484375 557.142578125 271.428710938 593.571289062 c 0
EndSplineSet
EndChar

StartChar: P
Encoding: 80 80 48
Width: 411
Flags: HMW
HStem: 324.286 42.8564 632.143 42.1436
VStem: 82.0627 40
LayerCount: 2
Fore
SplineSet
122.77734375 671.428710938 m 0
 124.206054688 673.571289062 147.0625 675 174.206054688 674.286132812 c 0
 200.634765625 672.857421875 237.77734375 672.142578125 256.348632812 672.142578125 c 0
 287.0625 671.428710938 293.491210938 667.857421875 330.634765625 632.857421875 c 0
 369.919921875 595.713867188 371.348632812 593.571289062 367.0625 564.286132812 c 0
 364.919921875 547.857421875 352.77734375 513.571289062 339.919921875 488.571289062 c 0
 314.206054688 438.571289062 269.919921875 401.428710938 187.77734375 360.713867188 c 2
 144.206054688 339.286132812 l 1
 139.206054688 296.428710938 l 2
 131.348632812 237.857421875 128.491210938 207.142578125 122.0625 130 c 0
 117.0625 62.142578125 109.206054688 46.4287109375 88.4912109375 63.5712890625 c 0
 82.0625 68.5712890625 79.919921875 84.2861328125 82.0625 115 c 0
 84.2060546875 145 82.77734375 160.713867188 76.3486328125 164.286132812 c 0
 69.919921875 168.571289062 69.919921875 173.571289062 78.4912109375 186.428710938 c 0
 90.056640625 205.219726562 97.2041015625 288.701171875 102.77734375 312.857421875 c 0
 106.348632812 327.857421875 104.919921875 328.571289062 87.77734375 324.286132812 c 0
 74.2060546875 321.428710938 64.2060546875 323.571289062 54.919921875 332.142578125 c 0
 37.0625 348.571289062 43.4912109375 362.142578125 72.77734375 367.142578125 c 0
 109.206054688 374.286132812 112.77734375 382.857421875 111.348632812 472.142578125 c 0
 109.919921875 543.571289062 117.0625 660.713867188 122.77734375 671.428710938 c 0
310.634765625 607.857421875 m 0
 289.919921875 629.286132812 282.0625 631.428710938 247.77734375 632.142578125 c 0
 179.919921875 632.142578125 171.348632812 630 161.348632812 605 c 0
 147.77734375 572.857421875 147.77734375 400 160.634765625 400 c 0
 175.634765625 400 278.491210938 457.857421875 292.0625 474.286132812 c 0
 312.77734375 497.857421875 324.206054688 522.857421875 329.919921875 555 c 0
 334.206054688 582.142578125 332.77734375 586.428710938 310.634765625 607.857421875 c 0
EndSplineSet
EndChar

StartChar: Q
Encoding: 81 81 49
Width: 638
Flags: W
LayerCount: 2
Fore
SplineSet
308.454101562 695 m 0
 324.8828125 696.428710938 342.024414062 697.857421875 346.310546875 698.571289062 c 0
 367.024414062 702.142578125 428.453125 674.286132812 449.881835938 652.857421875 c 0
 471.310546875 630.713867188 472.024414062 627.142578125 464.166992188 611.428710938 c 0
 455.595703125 596.428710938 456.310546875 591.428710938 469.881835938 572.857421875 c 0
 477.739257812 560.713867188 484.881835938 546.428710938 484.881835938 540.713867188 c 0
 484.881835938 534.286132812 487.739257812 527.857421875 491.310546875 525.713867188 c 0
 501.125976562 519.579101562 511.759765625 430.717773438 517.740234375 392.857421875 c 0
 519.8828125 379.286132812 517.740234375 353.571289062 513.454101562 335.713867188 c 0
 508.454101562 317.857421875 503.454101562 290.713867188 501.311523438 275 c 0
 499.16796875 259.286132812 491.311523438 241.428710938 484.16796875 235 c 0
 477.025390625 229.286132812 469.16796875 215.713867188 467.025390625 205.713867188 c 0
 464.16796875 195.713867188 454.16796875 180.713867188 444.8828125 172.142578125 c 0
 423.454101562 153.571289062 427.740234375 145.713867188 466.311523438 127.857421875 c 0
 502.025390625 111.428710938 540.596679688 110 546.311523438 125 c 0
 554.16796875 145 592.025390625 132.857421875 592.025390625 110 c 0
 592.025390625 105 580.596679688 94.2861328125 567.025390625 85.7138671875 c 0
 543.454101562 71.4287109375 538.454101562 70.7138671875 504.16796875 78.5712890625 c 0
 458.454101562 89.2861328125 444.16796875 96.4287109375 419.16796875 119.286132812 c 2
 399.8828125 137.142578125 l 1
 365.596679688 109.286132812 l 2
 330.596679688 80 288.454101562 60.7138671875 276.311523438 68.5712890625 c 0
 272.740234375 70.7138671875 266.311523438 69.2861328125 261.311523438 65.7138671875 c 0
 231.311523438 42.857421875 192.740234375 52.857421875 141.311523438 98.5712890625 c 0
 115.596679688 121.428710938 102.740234375 141.428710938 84.8828125 185 c 0
 45.5966796875 282.142578125 44.16796875 349.286132812 78.4541015625 439.286132812 c 0
 87.740234375 462.857421875 94.16796875 485 93.4541015625 487.857421875 c 0
 92.740234375 491.428710938 101.311523438 505.713867188 112.025390625 520 c 0
 123.454101562 534.286132812 139.16796875 557.857421875 146.311523438 572.142578125 c 0
 159.16796875 597.142578125 240.596679688 671.428710938 254.8828125 671.428710938 c 0
 258.454101562 671.428710938 265.596679688 676.428710938 270.596679688 681.428710938 c 0
 274.8828125 687.142578125 292.025390625 693.571289062 308.454101562 695 c 0
359.881835938 642.857421875 m 0
 354.881835938 650.713867188 316.310546875 651.4296875 299.166992188 644.287109375 c 0
 247.739257812 620.71484375 171.310546875 554.287109375 170.595703125 531.4296875 c 0
 169.065429688 523.775390625 127.739257812 476.116210938 127.739257812 467.857421875 c 0
 127.739257812 464.286132812 123.453125 452.857421875 118.453125 442.857421875 c 0
 79.1669921875 366.428710938 77.7392578125 322.857421875 109.166992188 213.571289062 c 0
 120.595703125 173.571289062 165.595703125 107.142578125 179.881835938 107.142578125 c 0
 184.166992188 107.142578125 192.739257812 102.857421875 198.453125 97.142578125 c 0
 208.453125 88.5712890625 215.595703125 87.857421875 249.166992188 96.4287109375 c 0
 302.739257812 108.571289062 327.024414062 119.286132812 354.166992188 140 c 0
 381.310546875 160.713867188 382.739257812 172.142578125 364.166992188 211.428710938 c 0
 344.166992188 255 340.595703125 275.713867188 352.739257812 285.713867188 c 0
 362.024414062 292.857421875 366.310546875 292.142578125 377.739257812 282.142578125 c 0
 385.595703125 275 392.024414062 263.571289062 392.024414062 256.428710938 c 0
 392.024414062 249.286132812 395.595703125 241.428710938 399.166992188 239.286132812 c 0
 403.453125 237.142578125 406.310546875 227.142578125 406.310546875 217.142578125 c 0
 406.310546875 207.857421875 409.166992188 200 412.739257812 200 c 0
 423.453125 200 449.166992188 235.713867188 453.453125 256.428710938 c 0
 455.595703125 266.428710938 462.739257812 287.857421875 468.453125 303.571289062 c 0
 487.024414062 353.571289062 482.024414062 437.142578125 456.310546875 500 c 0
 421.310546875 587.142578125 389.166992188 642.857421875 376.310546875 638.571289062 c 0
 369.881835938 637.142578125 362.739257812 638.571289062 359.881835938 642.857421875 c 0
EndSplineSet
EndChar

StartChar: R
Encoding: 82 82 50
Width: 506
Flags: HMW
HStem: 314.286 25.7139 657.857 52.8564<183.822 194.893> 677.857 50.7139<278.108 279.179>
VStem: 74.5357 46.4287 419.536 44.2861
LayerCount: 2
Fore
SplineSet
326.6796875 164.286132812 m 0xb8
 325.00390625 177.682617188 299.536132812 205.66796875 299.536132812 220.713867188 c 0
 299.536132812 227.857421875 293.822265625 239.286132812 286.6796875 247.142578125 c 0
 280.250976562 254.286132812 269.536132812 268.571289062 263.108398438 278.571289062 c 0
 250.96484375 297.142578125 203.822265625 314.286132812 163.822265625 314.286132812 c 0
 141.6796875 314.286132812 110.250976562 290 117.393554688 279.286132812 c 0
 118.822265625 275.713867188 117.393554688 255.713867188 113.822265625 235 c 0
 109.536132812 213.571289062 105.96484375 171.428710938 105.250976562 141.428710938 c 0
 104.536132812 82.857421875 94.5361328125 66.4287109375 71.6796875 89.2861328125 c 0
 58.822265625 101.428710938 58.1083984375 137.857421875 66.6796875 300 c 0
 69.5361328125 349.286132812 72.3935546875 442.142578125 74.5361328125 507.142578125 c 0
 77.3935546875 640.713867188 83.822265625 697.857421875 95.2509765625 705.713867188 c 0
 99.5361328125 708.571289062 137.393554688 710.713867188 179.536132812 710.713867188 c 0xd8
 230.96484375 710.713867188 258.822265625 713.571289062 265.250976562 720 c 0
 269.536132812 724.286132812 275.250976562 728.571289062 276.6796875 728.571289062 c 0
 289.536132812 728.571289062 340.96484375 710 350.250976562 702.142578125 c 0
 355.96484375 697.142578125 365.96484375 692.857421875 371.6796875 692.857421875 c 0
 404.536132812 692.857421875 463.822265625 612.142578125 463.822265625 567.142578125 c 0
 463.822265625 545.713867188 427.393554688 433.571289062 410.250976562 400 c 0
 397.393554688 375.713867188 342.393554688 324.286132812 323.108398438 317.857421875 c 0
 308.108398438 313.571289062 299.536132812 292.857421875 312.393554688 292.857421875 c 0
 315.250976562 292.857421875 320.96484375 284.286132812 325.250976562 273.571289062 c 0
 329.536132812 262.142578125 346.6796875 222.142578125 363.822265625 183.571289062 c 0
 380.250976562 145 391.6796875 108.571289062 389.536132812 102.857421875 c 0
 385.250976562 92.142578125 365.250976562 89.2861328125 353.108398438 98.5712890625 c 0
 344.536132812 104.286132812 326.6796875 148.571289062 326.6796875 164.286132812 c 0xb8
327.393554688 662.857421875 m 0
 302.393554688 671.428710938 280.250976562 677.857421875 278.108398438 677.857421875 c 0xb8
 275.96484375 677.142578125 263.108398438 672.857421875 249.536132812 667.142578125 c 0
 235.96484375 662.142578125 205.96484375 657.857421875 183.822265625 657.857421875 c 0
 146.6796875 657.142578125 140.96484375 654.286132812 143.108398438 638.571289062 c 0
 143.108398438 636.428710938 138.108398438 627.142578125 131.6796875 617.142578125 c 0
 122.393554688 602.142578125 120.250976562 581.428710938 120.96484375 505 c 0
 122.069335938 424.451171875 121.296875 417.858398438 118.822265625 380.713867188 c 0
 118.108398438 361.428710938 119.536132812 360 178.108398438 348.571289062 c 0
 211.6796875 342.142578125 245.250976562 337.857421875 253.108398438 340 c 0
 333.822265625 359.286132812 352.393554688 373.571289062 380.96484375 437.857421875 c 0
 392.393554688 462.142578125 404.536132812 488.571289062 408.822265625 495.713867188 c 0
 412.393554688 503.571289062 417.393554688 530 419.536132812 555 c 0
 423.108398438 599.286132812 422.393554688 600.713867188 398.108398438 623.571289062 c 0
 384.536132812 635.713867188 352.393554688 653.571289062 327.393554688 662.857421875 c 0
EndSplineSet
EndChar

StartChar: S
Encoding: 83 83 51
Width: 525
Flags: W
LayerCount: 2
Fore
SplineSet
189.552734375 50 m 0
 182.86328125 50 127.114257812 85.7138671875 119.552734375 85.7138671875 c 0
 115.267578125 85.7138671875 103.838867188 92.857421875 94.552734375 102.142578125 c 0
 85.267578125 110.713867188 69.552734375 125.713867188 59.552734375 135 c 0
 32.41015625 159.286132812 35.267578125 182.142578125 66.6953125 198.571289062 c 0
 84.552734375 207.857421875 90.9814453125 203.571289062 90.9814453125 181.428710938 c 0
 90.9814453125 161.428710938 128.124023438 128.571289062 173.838867188 107.142578125 c 0
 193.124023438 98.5712890625 214.552734375 87.857421875 222.41015625 84.2861328125 c 0
 243.124023438 73.5712890625 280.981445312 70.7138671875 300.267578125 77.857421875 c 0
 337.41015625 92.142578125 412.41015625 193.571289062 412.41015625 229.286132812 c 0
 412.41015625 235.713867188 417.41015625 253.571289062 423.838867188 268.571289062 c 0
 435.267578125 295.713867188 435.267578125 295.713867188 415.267578125 312.142578125 c 0
 380.267578125 340 359.552734375 342.142578125 257.41015625 327.857421875 c 2
 198.838867188 319.286132812 l 1
 171.6953125 339.286132812 l 2
 133.124023438 367.857421875 122.41015625 382.142578125 90.9814453125 444.286132812 c 0
 65.9814453125 495 63.8388671875 503.571289062 67.41015625 544.286132812 c 0
 69.552734375 577.857421875 75.9814453125 597.857421875 91.6953125 622.142578125 c 0
 118.124023438 664.286132812 126.6953125 671.428710938 187.41015625 702.857421875 c 0
 238.838867188 730.713867188 238.838867188 730.713867188 314.552734375 717.142578125 c 0
 358.838867188 710 386.6953125 690.713867188 429.552734375 640 c 0
 471.6953125 590.713867188 477.41015625 569.286132812 449.552734375 565.713867188 c 0
 438.838867188 564.286132812 427.41015625 570.713867188 413.838867188 586.428710938 c 0
 380.981445312 626.428710938 363.124023438 641.428710938 339.552734375 652.857421875 c 0
 270.981445312 683.571289062 238.124023438 683.571289062 189.552734375 652.857421875 c 0
 152.41015625 629.286132812 128.838867188 601.428710938 117.41015625 567.857421875 c 0
 104.552734375 532.142578125 108.838867188 500 130.981445312 453.571289062 c 0
 148.124023438 416.428710938 156.6953125 405.713867188 195.267578125 375 c 0
 217.41015625 357.857421875 218.124023438 357.857421875 255.267578125 368.571289062 c 0
 337.41015625 392.857421875 395.267578125 380 447.41015625 326.428710938 c 0
 474.552734375 297.142578125 474.552734375 289.286132812 440.267578125 200 c 0
 394.552734375 82.142578125 355.981445312 42.142578125 276.6953125 31.4287109375 c 0
 251.6953125 27.857421875 235.981445312 30 218.838867188 38.5712890625 c 0
 206.6953125 45 193.124023438 50 189.552734375 50 c 0
EndSplineSet
EndChar

StartChar: T
Encoding: 84 84 52
Width: 479
Flags: HMW
HStem: 660 45<343.355 343.355> 670.714 39.2861
VStem: 142.64 42.8574
LayerCount: 2
Fore
SplineSet
41.92578125 702.857421875 m 0x60
 45.4970703125 712.142578125 61.92578125 712.857421875 159.068359375 710 c 0x60
 221.211914062 707.857421875 306.92578125 705 349.068359375 705 c 0
 415.497070312 703.571289062 427.639648438 701.428710938 434.068359375 690.713867188 c 0
 437.639648438 683.571289062 439.068359375 672.857421875 436.92578125 666.428710938 c 0
 432.639648438 656.428710938 421.211914062 655.713867188 343.354492188 660 c 2xa0
 254.068359375 664.286132812 l 1
 254.068359375 639.286132812 l 2
 254.068359375 625 250.497070312 607.142578125 246.92578125 600 c 0
 242.639648438 592.142578125 237.639648438 566.428710938 235.497070312 541.428710938 c 0
 233.354492188 516.428710938 229.068359375 483.571289062 225.497070312 467.857421875 c 0
 221.211914062 452.142578125 216.92578125 397.857421875 214.783203125 346.428710938 c 0
 209.068359375 185 200.497070312 111.428710938 185.497070312 87.142578125 c 0
 179.783203125 78.5712890625 171.92578125 71.4287109375 168.354492188 71.4287109375 c 0
 156.211914062 71.4287109375 139.068359375 94.2861328125 142.639648438 106.428710938 c 0
 156.211914062 150.713867188 162.639648438 207.857421875 174.783203125 407.142578125 c 0
 185.497070312 573.571289062 186.92578125 582.142578125 199.783203125 610.713867188 c 0
 208.354492188 628.571289062 209.783203125 639.286132812 204.068359375 652.857421875 c 0
 196.92578125 671.428710938 196.211914062 672.142578125 128.354492188 670.713867188 c 0
 56.2119140625 670 32.6396484375 678.571289062 41.92578125 702.857421875 c 0x60
EndSplineSet
EndChar

StartChar: U
Encoding: 85 85 53
Width: 478
Flags: HMW
VStem: 71.4509 34.2852
LayerCount: 2
Fore
SplineSet
400.021484375 709.286132812 m 0
 404.306640625 711.428710938 412.1640625 712.142578125 415.735351562 711.428710938 c 0
 442.1640625 705 405.735351562 233.571289062 376.450195312 204.286132812 c 0
 372.877929688 200.713867188 369.306640625 190 369.306640625 182.142578125 c 0
 369.306640625 161.428710938 297.877929688 92.142578125 265.021484375 80.7138671875 c 0
 210.021484375 61.4287109375 142.877929688 92.857421875 106.450195312 153.571289062 c 0
 84.306640625 191.428710938 82.8779296875 200 70.7353515625 389.286132812 c 0
 64.306640625 486.428710938 64.306640625 642.142578125 71.4501953125 666.428710938 c 0
 77.1640625 687.857421875 91.4501953125 691.428710938 105.021484375 675 c 0
 112.877929688 665.713867188 112.877929688 656.428710938 105.735351562 626.428710938 c 0
 92.8779296875 572.857421875 108.592773438 244.286132812 126.450195312 189.286132812 c 0
 140.021484375 149.286132812 201.450195312 104.286132812 235.021484375 110 c 0
 244.306640625 112.142578125 255.735351562 113.571289062 260.735351562 113.571289062 c 0
 280.021484375 115 331.450195312 171.428710938 340.735351562 201.428710938 c 0
 346.450195312 218.571289062 352.877929688 235.713867188 355.021484375 239.286132812 c 0
 362.877929688 250 370.021484375 297.142578125 373.592773438 353.571289062 c 0
 379.419921875 429.330078125 390.735351562 549.110351562 390.735351562 633.571289062 c 0
 390.735351562 685 393.592773438 707.142578125 400.021484375 709.286132812 c 0
EndSplineSet
EndChar

StartChar: V
Encoding: 86 86 54
Width: 376
Flags: HMW
VStem: 114.237 52.1426
LayerCount: 2
Fore
SplineSet
56.37890625 669.286132812 m 0
 77.8076171875 694.286132812 88.5224609375 672.858398438 97.8076171875 587.143554688 c 0
 102.09375 547.143554688 105.665039062 493.572265625 106.37890625 469.287109375 c 0
 107.09375 405.71484375 136.37890625 233.572265625 147.09375 230.000976562 c 0
 152.09375 228.572265625 155.665039062 234.287109375 155.665039062 244.287109375 c 0
 155.665039062 253.572265625 158.522460938 264.287109375 161.37890625 268.572265625 c 0
 164.950195312 272.143554688 171.37890625 292.858398438 176.37890625 314.287109375 c 0
 189.141601562 368.982421875 208.586914062 399.522460938 223.522460938 454.286132812 c 0
 229.950195312 477.142578125 237.807617188 502.142578125 241.37890625 508.571289062 c 0
 245.665039062 515.713867188 248.522460938 527.857421875 248.522460938 535.713867188 c 0
 248.522460938 543.571289062 256.37890625 566.428710938 266.37890625 585.713867188 c 0
 276.37890625 605.713867188 287.09375 633.571289062 289.950195312 647.857421875 c 0
 294.950195312 670.713867188 298.522460938 675 312.807617188 675 c 0
 339.236328125 675 340.665039062 635.713867188 315.665039062 589.286132812 c 0
 295.665039062 551.428710938 209.236328125 295 184.950195312 201.428710938 c 0
 177.09375 171.428710938 168.522460938 127.857421875 166.37890625 105.713867188 c 0
 162.09375 67.857421875 159.950195312 64.2861328125 144.236328125 64.2861328125 c 0
 124.236328125 64.2861328125 114.236328125 82.857421875 114.236328125 122.142578125 c 0
 114.236328125 135 108.522460938 177.142578125 102.09375 214.286132812 c 0
 84.9501953125 307.857421875 78.5224609375 365 69.9501953125 485.713867188 c 0
 66.37890625 542.857421875 59.9501953125 605 55.6650390625 624.286132812 c 0
 50.6650390625 649.286132812 50.6650390625 662.142578125 56.37890625 669.286132812 c 0
EndSplineSet
EndChar

StartChar: W
Encoding: 87 87 55
Width: 669
Flags: HMW
VStem: 52.6134 39.2861 110.471 40 388.328 71.4277<88.2144 127.857>
LayerCount: 2
Fore
SplineSet
571.185546875 665.713867188 m 0
 567.217773438 685.553710938 605.720703125 735.930664062 623.329101562 700.713867188 c 0
 631.185546875 686.428710938 631.900390625 688.571289062 595.471679688 578.571289062 c 0
 570.471679688 503.571289062 546.185546875 413.571289062 541.900390625 385 c 0
 540.471679688 374.286132812 536.185546875 360 532.614257812 352.857421875 c 0
 528.329101562 345 520.471679688 320 514.04296875 296.428710938 c 0
 507.614257812 272.857421875 492.614257812 222.857421875 481.185546875 185.713867188 c 0
 469.04296875 148.571289062 459.756835938 110 459.756835938 100 c 0
 459.756835938 76.4287109375 441.185546875 50 424.04296875 50 c 0
 407.614257812 50 388.329101562 90 388.329101562 122.142578125 c 0
 388.329101562 133.571289062 385.471679688 148.571289062 381.900390625 155.713867188 c 0
 368.329101562 180.713867188 339.04296875 247.142578125 330.471679688 270 c 0
 326.185546875 282.142578125 320.471679688 292.857421875 317.614257812 292.857421875 c 0
 310.471679688 292.857421875 220.471679688 132.857421875 172.614257812 33.5712890625 c 0
 157.614257812 4.2861328125 133.329101562 -10 118.329101562 2.142578125 c 0
 111.185546875 7.857421875 109.04296875 32.142578125 110.471679688 95.7138671875 c 0
 112.022460938 199.663085938 90.5654296875 354.947265625 81.185546875 445 c 0
 76.900390625 480 67.6142578125 523.571289062 61.185546875 541.428710938 c 0
 51.185546875 567.142578125 49.04296875 587.142578125 52.6142578125 626.428710938 c 0
 56.900390625 682.857421875 61.900390625 692.857421875 79.7568359375 681.428710938 c 0
 89.7568359375 675 91.900390625 662.142578125 91.900390625 613.571289062 c 0
 92.6142578125 577.142578125 97.6142578125 537.857421875 104.756835938 514.286132812 c 0
 111.900390625 492.857421875 120.471679688 431.428710938 124.04296875 378.571289062 c 0
 128.329101562 325.713867188 136.900390625 257.142578125 142.614257812 225.713867188 c 0
 149.756835938 190.713867188 153.329101562 151.428710938 150.471679688 123.571289062 c 0
 149.04296875 99.2861328125 149.756835938 78.5712890625 153.329101562 78.5712890625 c 0
 156.900390625 78.5712890625 159.756835938 84.2861328125 159.756835938 92.142578125 c 0
 159.756835938 99.2861328125 164.04296875 109.286132812 169.756835938 113.571289062 c 0
 174.756835938 117.857421875 184.756835938 137.142578125 191.900390625 155.713867188 c 0
 199.04296875 174.286132812 218.329101562 212.142578125 234.756835938 239.286132812 c 0
 287.614257812 327.142578125 303.329101562 358.571289062 299.756835938 368.571289062 c 0
 291.900390625 390 337.614257812 411.428710938 349.756835938 392.142578125 c 0
 351.900390625 387.857421875 355.471679688 366.428710938 356.185546875 343.571289062 c 0
 357.614257812 321.428710938 364.756835938 288.571289062 371.900390625 271.428710938 c 0
 395.471679688 213.571289062 421.185546875 167.857421875 428.329101562 170.713867188 c 0
 431.900390625 172.142578125 439.04296875 187.857421875 444.04296875 206.428710938 c 0
 449.756835938 224.286132812 458.329101562 250 464.04296875 262.857421875 c 0
 469.756835938 275.713867188 474.04296875 295 474.04296875 305.713867188 c 0
 474.04296875 317.142578125 476.900390625 328.571289062 481.185546875 332.857421875 c 0
 484.756835938 336.428710938 491.185546875 354.286132812 494.756835938 371.428710938 c 0
 511.900390625 453.571289062 523.329101562 499.286132812 534.756835938 528.571289062 c 0
 556.900390625 588.571289062 574.756835938 653.571289062 571.185546875 665.713867188 c 0
EndSplineSet
EndChar

StartChar: X
Encoding: 88 88 56
Width: 429
Flags: HMW
VStem: 56.418 31.4287
LayerCount: 2
Fore
SplineSet
288.560546875 719.286132812 m 0
 292.846679688 732.142578125 299.275390625 736.428710938 311.41796875 734.286132812 c 0
 334.275390625 731.428710938 331.41796875 696.428710938 300.703125 617.857421875 c 0
 286.41796875 582.857421875 268.560546875 532.857421875 259.989257812 507.142578125 c 0
 251.41796875 481.428710938 239.275390625 452.142578125 233.560546875 441.428710938 c 0
 224.989257812 425.713867188 224.275390625 415.713867188 230.703125 392.857421875 c 0
 234.989257812 377.142578125 240.703125 364.286132812 243.560546875 364.286132812 c 0
 246.41796875 364.286132812 253.560546875 349.286132812 259.275390625 330.713867188 c 0
 264.275390625 311.428710938 277.131835938 282.142578125 287.131835938 264.286132812 c 0
 312.846679688 220.713867188 320.703125 202.142578125 333.560546875 164.286132812 c 0
 339.275390625 146.428710938 353.560546875 110 365.703125 83.5712890625 c 0
 390.703125 27.857421875 392.131835938 17.857421875 376.41796875 11.4287109375 c 0
 354.275390625 2.857421875 348.560546875 10 325.703125 78.5712890625 c 0
 319.989257812 96.4287109375 305.703125 130.713867188 294.275390625 154.286132812 c 0
 282.846679688 178.571289062 273.560546875 202.142578125 273.560546875 206.428710938 c 0
 273.560546875 210.713867188 265.703125 231.428710938 256.41796875 252.857421875 c 0
 247.131835938 274.286132812 240.703125 293.571289062 243.560546875 295.713867188 c 0
 245.703125 297.857421875 244.275390625 300 239.989257812 300 c 0
 227.633789062 300 211.970703125 390.598632812 198.560546875 341.428710938 c 0
 193.560546875 324.286132812 185.703125 303.571289062 169.275390625 267.857421875 c 0
 164.275390625 256.428710938 157.846679688 237.142578125 154.989257812 225 c 0
 152.131835938 213.571289062 147.131835938 199.286132812 142.846679688 194.286132812 c 0
 127.846679688 175 94.9892578125 102.857421875 94.9892578125 88.5712890625 c 0
 94.9892578125 70 70.703125 47.142578125 55.703125 52.142578125 c 0
 44.275390625 57.142578125 40.703125 89.2861328125 51.41796875 95.7138671875 c 0
 54.275390625 97.857421875 61.41796875 115 66.41796875 133.571289062 c 0
 71.41796875 152.857421875 79.9892578125 175.713867188 84.275390625 185.713867188 c 0
 96.41796875 209.286132812 144.275390625 330 159.989257812 375.713867188 c 2
 172.846679688 412.142578125 l 1
 152.131835938 463.571289062 l 2
 140.703125 491.428710938 121.41796875 528.571289062 109.275390625 546.428710938 c 0
 97.8466796875 563.571289062 87.8466796875 583.571289062 87.8466796875 591.428710938 c 0
 87.8466796875 598.571289062 82.1318359375 610.713867188 74.275390625 617.142578125 c 0
 65.703125 625 59.275390625 643.571289062 56.41796875 671.428710938 c 0
 49.9892578125 727.142578125 49.9892578125 725 61.41796875 727.142578125 c 0
 71.41796875 729.286132812 87.8466796875 700.713867188 87.8466796875 680 c 0
 88.560546875 673.571289062 97.8466796875 650 109.275390625 628.571289062 c 0
 120.703125 607.142578125 143.560546875 561.428710938 159.989257812 527.142578125 c 0
 188.560546875 467.857421875 202.131835938 455 202.131835938 486.428710938 c 0
 202.131835938 507.000976562 216.513671875 527.352539062 223.560546875 542.857421875 c 0
 227.846679688 550.713867188 230.703125 560 230.703125 564.286132812 c 0
 230.703125 568.571289062 238.560546875 588.571289062 248.560546875 608.571289062 c 0
 267.202148438 647.1875 275.50390625 682.725585938 288.560546875 719.286132812 c 0
EndSplineSet
EndChar

StartChar: Y
Encoding: 89 89 57
Width: 558
Flags: HMW
VStem: 217.46 42.1426 461.031 35.7139<639.286 687.456>
LayerCount: 2
Fore
SplineSet
461.030273438 680 m 0
 461.030273438 694.911132812 484.600585938 714.286132812 501.744140625 714.286132812 c 0
 515.315429688 714.286132812 518.172851562 710.713867188 518.172851562 693.571289062 c 0
 518.172851562 682.142578125 513.172851562 669.286132812 507.458984375 664.286132812 c 0
 501.744140625 659.286132812 496.744140625 650.713867188 496.744140625 645 c 0
 496.744140625 633.571289062 453.172851562 576.428710938 401.030273438 521.428710938 c 0
 352.458984375 469.286132812 323.172851562 422.857421875 328.172851562 405 c 0
 330.315429688 395 324.6015625 384.286132812 308.88671875 370 c 0
 296.744140625 357.857421875 286.030273438 345 285.315429688 340.713867188 c 0
 284.6015625 335.713867188 278.172851562 305.713867188 271.744140625 273.571289062 c 0
 266.030273438 241.428710938 260.315429688 182.142578125 259.6015625 142.857421875 c 0
 258.172851562 64.2861328125 248.88671875 43.5712890625 218.88671875 53.5712890625 c 0
 203.88671875 57.857421875 198.88671875 74.2861328125 210.315429688 81.4287109375 c 0
 213.88671875 83.5712890625 216.744140625 122.857421875 217.458984375 167.857421875 c 0
 217.458984375 213.571289062 218.88671875 252.857421875 221.030273438 256.428710938 c 0
 226.030273438 264.286132812 246.744140625 365.713867188 246.744140625 382.142578125 c 0
 246.744140625 390 225.315429688 417.142578125 199.6015625 442.857421875 c 0
 173.88671875 468.571289062 146.030273438 502.142578125 138.172851562 517.857421875 c 0
 130.315429688 533.571289062 111.744140625 559.286132812 97.458984375 575 c 0
 83.1728515625 590.713867188 63.88671875 618.571289062 54.6015625 637.142578125 c 0
 40.3154296875 665 38.88671875 672.857421875 46.744140625 682.142578125 c 0
 51.744140625 687.857421875 59.6015625 692.857421875 64.6015625 692.857421875 c 0
 73.1728515625 692.857421875 118.172851562 635 118.172851562 623.571289062 c 0
 118.172851562 620 129.6015625 606.428710938 143.172851562 592.857421875 c 0
 156.744140625 579.286132812 168.172851562 564.286132812 168.172851562 559.286132812 c 0
 168.172851562 547.857421875 216.030273438 481.428710938 236.744140625 463.571289062 c 0
 262.458984375 441.428710938 280.315429688 440.713867188 294.6015625 461.428710938 c 0
 301.744140625 471.428710938 321.030273438 494.286132812 338.172851562 512.142578125 c 0
 397.458984375 575 461.030273438 660.713867188 461.030273438 680 c 0
EndSplineSet
EndChar

StartChar: Z
Encoding: 90 90 58
Width: 520
Flags: HMW
HStem: 71.4287 47.1426
LayerCount: 2
Fore
SplineSet
431.302734375 687.857421875 m 0
 457.731445312 702.142578125 457.016601562 702.857421875 470.587890625 678.571289062 c 0
 484.874023438 655 485.587890625 657.142578125 443.4453125 600 c 0
 427.731445312 578.571289062 414.874023438 559.286132812 415.587890625 557.142578125 c 0
 415.587890625 555 397.016601562 529.286132812 374.159179688 500 c 0
 352.016601562 470.713867188 326.302734375 437.857421875 318.4453125 427.857421875 c 0
 310.587890625 417.142578125 301.302734375 400.713867188 297.016601562 390 c 0
 293.4453125 380 287.016601562 371.428710938 284.159179688 371.428710938 c 0
 277.731445312 371.428710938 211.302734375 277.142578125 211.302734375 267.857421875 c 0
 211.302734375 265 199.159179688 246.428710938 184.874023438 226.428710938 c 0
 153.4453125 183.571289062 132.731445312 146.428710938 132.731445312 132.857421875 c 0
 132.731445312 119.286132812 177.016601562 113.571289062 241.302734375 118.571289062 c 0
 274.159179688 120.713867188 309.159179688 118.571289062 336.302734375 112.142578125 c 0
 373.4453125 103.571289062 379.159179688 100 379.159179688 85.7138671875 c 2
 379.159179688 68.5712890625 l 1
 268.4453125 71.4287109375 l 2
 86.302734375 75 72.0166015625 75.7138671875 55.587890625 85 c 0
 34.1591796875 96.4287109375 35.587890625 107.857421875 64.8740234375 135.713867188 c 0
 78.4453125 148.571289062 91.302734375 168.571289062 93.4453125 180 c 0
 96.302734375 191.428710938 107.016601562 211.428710938 117.731445312 223.571289062 c 0
 128.4453125 236.428710938 139.874023438 251.428710938 142.016601562 257.142578125 c 0
 152.731445312 280.713867188 207.731445312 361.428710938 230.587890625 385.713867188 c 0
 260.016601562 420.047851562 307.513671875 491.30078125 337.731445312 530.713867188 c 0
 354.159179688 552.857421875 374.159179688 581.428710938 382.016601562 595 c 2
 396.302734375 620 l 1
 371.302734375 622.857421875 l 2
 357.016601562 624.286132812 344.874023438 623.571289062 343.4453125 620.713867188 c 0
 340.587890625 617.142578125 222.016601562 617.142578125 211.302734375 621.428710938 c 0
 201.302734375 625 149.874023438 619.286132812 144.159179688 613.571289062 c 0
 119.159179688 590 104.159179688 626.428710938 124.874023438 659.286132812 c 2
 139.159179688 682.857421875 l 1
 187.731445312 677.142578125 l 2
 257.731445312 669.286132812 407.016601562 675.713867188 431.302734375 687.857421875 c 0
EndSplineSet
EndChar

StartChar: bracketleft
Encoding: 91 91 59
Width: 279
Flags: HMW
HStem: 17.1426 33.5713 628.571 46.4287
VStem: 80.4123 37.1426
LayerCount: 2
Fore
SplineSet
85.412109375 646.428710938 m 0
 85.412109375 672.001953125 95.0673828125 688.860351562 121.126953125 680.71484375 c 0
 131.126953125 677.858398438 158.983398438 675.000976562 183.983398438 675.000976562 c 0
 220.412109375 675.000976562 230.412109375 672.143554688 236.840820312 661.4296875 c 0
 246.840820312 643.572265625 211.840820312 606.4296875 198.26953125 620.000976562 c 0
 193.26953125 625.000976562 178.983398438 628.572265625 166.840820312 628.572265625 c 0
 149.698242188 628.572265625 142.5546875 625.000976562 138.983398438 613.572265625 c 0
 131.712890625 593.573242188 144.33203125 596.412109375 135.412109375 578.572265625 c 0
 127.5546875 563.572265625 121.840820312 478.572265625 117.5546875 292.858398438 c 0
 115.412109375 216.4296875 111.126953125 131.4296875 107.5546875 103.572265625 c 0
 103.983398438 76.4296875 103.983398438 51.4296875 106.126953125 48.572265625 c 0
 108.983398438 45.71484375 129.698242188 46.4296875 153.26953125 50.0009765625 c 0
 178.983398438 54.287109375 198.26953125 54.287109375 201.840820312 50.71484375 c 0
 214.698242188 37.8583984375 200.412109375 22.1435546875 173.26953125 17.1435546875 c 0
 134.364257812 9.734375 142.307617188 2.9384765625 98.26953125 -2.142578125 c 0
 73.26953125 -5.7138671875 61.8408203125 -4.2861328125 53.26953125 4.2861328125 c 0
 39.6982421875 17.857421875 39.6982421875 20.7138671875 52.5546875 35 c 0
 68.26953125 52.857421875 73.26953125 111.428710938 80.412109375 360.713867188 c 0
 83.26953125 447.142578125 87.5546875 530 89.6982421875 545 c 0
 92.5546875 563.571289062 90.412109375 577.142578125 81.8408203125 590 c 0
 73.26953125 603.571289062 71.8408203125 610.713867188 77.5546875 616.428710938 c 0
 81.8408203125 620.713867188 85.412109375 634.286132812 85.412109375 646.428710938 c 0
EndSplineSet
EndChar

StartChar: bracketright
Encoding: 93 93 60
Width: 330
Flags: HMW
HStem: 12.8574 41.4287 671.429 30.7139
VStem: 216.172 38.5713
LayerCount: 2
Fore
SplineSet
143.314453125 702.142578125 m 0
 290.45703125 709.286132812 295.45703125 707.857421875 280.45703125 667.142578125 c 0
 276.170898438 657.142578125 274.7421875 645.713867188 276.885742188 642.142578125 c 0
 279.028320312 639.286132812 275.45703125 625.713867188 268.314453125 612.857421875 c 0
 259.028320312 595 255.45703125 570 254.7421875 514.286132812 c 0
 253.130859375 420.778320312 239.561523438 343.83984375 234.028320312 257.142578125 c 0
 231.885742188 223.571289062 226.170898438 174.286132812 221.885742188 146.428710938 c 0
 213.8125 95.3056640625 212.999023438 9.984375 174.028320312 11.4287109375 c 0
 166.170898438 11.4287109375 136.885742188 12.142578125 109.7421875 12.857421875 c 0
 74.7421875 13.5712890625 56.8857421875 17.857421875 48.314453125 25.7138671875 c 0
 27.599609375 47.142578125 39.7421875 53.5712890625 101.885742188 54.2861328125 c 0
 168.314453125 54.2861328125 171.885742188 57.142578125 172.599609375 107.142578125 c 0
 173.314453125 120.713867188 178.314453125 146.428710938 184.028320312 162.857421875 c 0
 191.170898438 182.142578125 196.170898438 232.142578125 198.314453125 293.571289062 c 0
 200.45703125 348.571289062 205.45703125 408.571289062 209.7421875 427.142578125 c 0
 213.314453125 445.713867188 216.885742188 482.857421875 216.170898438 510.713867188 c 0
 216.170898438 537.857421875 219.028320312 580.713867188 224.028320312 605 c 0
 235.45703125 667.142578125 232.599609375 671.428710938 179.028320312 671.428710938 c 0
 154.028320312 671.428710938 123.314453125 668.571289062 110.45703125 665 c 0
 91.8857421875 659.286132812 86.1708984375 660 82.599609375 668.571289062 c 0
 75.45703125 688.571289062 94.7421875 699.286132812 143.314453125 702.142578125 c 0
EndSplineSet
EndChar

StartChar: a
Encoding: 97 97 61
Width: 500
Flags: HMW
HStem: 85 23.5713
VStem: 379.763 42.1426
LayerCount: 2
Fore
SplineSet
394.048828125 509.286132812 m 0
 398.334960938 516.428710938 409.048828125 515.713867188 424.763671875 507.142578125 c 0
 435.477539062 501.428710938 436.90625 493.571289062 434.048828125 452.142578125 c 0
 429.048828125 381.428710938 426.19140625 323.571289062 421.90625 209.286132812 c 0
 419.763671875 137.142578125 415.477539062 101.428710938 406.90625 86.4287109375 c 0
 394.763671875 62.857421875 391.19140625 60.7138671875 375.477539062 70.7138671875 c 0
 367.620117188 75.7138671875 367.620117188 81.4287109375 375.477539062 102.857421875 c 0
 383.334960938 125 383.334960938 130 374.763671875 139.286132812 c 0
 365.477539062 147.857421875 359.048828125 145 325.477539062 117.142578125 c 0
 304.763671875 100 279.048828125 83.5712890625 268.334960938 80.7138671875 c 0
 247.620117188 75 171.90625 75 149.763671875 80.7138671875 c 0
 141.90625 82.857421875 133.334960938 85 130.477539062 85 c 0
 128.334960938 85.7138671875 112.620117188 97.857421875 96.19140625 112.857421875 c 0
 71.19140625 135 66.19140625 144.286132812 64.048828125 171.428710938 c 0
 63.3349609375 189.286132812 58.3349609375 212.142578125 54.048828125 222.857421875 c 0
 46.90625 242.142578125 48.3349609375 253.571289062 65.4775390625 331.428710938 c 0
 70.4775390625 355.713867188 94.048828125 392.857421875 129.048828125 430 c 0
 157.620117188 460.713867188 190.477539062 472.142578125 244.048828125 467.857421875 c 0
 274.763671875 465 289.763671875 459.286132812 321.90625 435.713867188 c 0
 343.334960938 419.286132812 363.334960938 401.428710938 365.477539062 395.713867188 c 0
 372.620117188 377.142578125 379.763671875 385.713867188 379.763671875 412.857421875 c 0
 379.048828125 440 388.334960938 499.286132812 394.048828125 509.286132812 c 0
301.19140625 402.142578125 m 0
 288.334960938 412.142578125 270.477539062 421.428710938 260.477539062 422.857421875 c 0
 241.90625 427.142578125 205.477539062 420.713867188 188.334960938 410.713867188 c 0
 166.90625 397.857421875 131.90625 367.857421875 131.90625 362.142578125 c 0
 131.90625 359.286132812 125.477539062 350 118.334960938 341.428710938 c 0
 101.90625 324.286132812 92.6201171875 265 99.048828125 220 c 0
 105.37109375 169.4140625 101.90625 160.427734375 139.048828125 130.713867188 c 0
 169.048828125 107.857421875 174.048828125 105.713867188 210.477539062 108.571289062 c 0
 241.90625 110.713867188 258.334960938 117.142578125 292.620117188 140.713867188 c 0
 316.19140625 157.142578125 340.477539062 179.286132812 346.90625 190.713867188 c 0
 362.620117188 217.142578125 369.048828125 264.286132812 359.763671875 276.428710938 c 0
 355.477539062 281.428710938 350.477539062 297.142578125 349.048828125 311.428710938 c 0
 345.477539062 349.286132812 327.620117188 382.857421875 301.19140625 402.142578125 c 0
EndSplineSet
EndChar

StartChar: b
Encoding: 98 98 62
Width: 488
Flags: HMW
VStem: 56.8812 43.5723 99.0248 49.2852
LayerCount: 2
Fore
SplineSet
114.024414062 705 m 0x40
 130.453125 722.142578125 130.453125 722.142578125 141.880859375 707.857421875 c 0
 154.024414062 692.857421875 156.166992188 640 145.453125 622.857421875 c 0
 137.44921875 608.852539062 133.6171875 434.359375 130.453125 416.428710938 c 0
 126.880859375 387.857421875 129.73828125 387.857421875 159.73828125 410.713867188 c 0
 172.595703125 420.713867188 189.024414062 428.571289062 196.166992188 428.571289062 c 0
 203.309570312 428.571289062 215.453125 433.571289062 222.595703125 439.286132812 c 0
 257.595703125 465.713867188 361.166992188 442.857421875 389.024414062 402.142578125 c 0
 436.880859375 334.286132812 441.166992188 287.857421875 406.166992188 224.286132812 c 0
 369.024414062 158.571289062 337.595703125 124.286132812 294.73828125 103.571289062 c 0
 229.73828125 71.4287109375 194.024414062 73.5712890625 146.166992188 112.142578125 c 0
 117.595703125 135 107.595703125 132.857421875 100.453125 102.142578125 c 0
 95.453125 80 91.1669921875 75 76.880859375 75 c 0
 59.73828125 75 59.0244140625 77.142578125 56.880859375 125 c 0x80
 55.453125 152.857421875 58.3095703125 187.142578125 62.595703125 202.142578125 c 0
 69.0244140625 225 69.0244140625 232.142578125 59.73828125 242.142578125 c 0
 44.73828125 259.286132812 45.453125 277.142578125 61.880859375 291.428710938 c 0
 73.3095703125 301.428710938 77.595703125 319.286132812 83.3095703125 392.857421875 c 0
 92.595703125 495.713867188 99.73828125 627.857421875 99.0244140625 663.571289062 c 0
 98.3095703125 680 103.309570312 693.571289062 114.024414062 705 c 0x40
341.166992188 393.571289062 m 0
 309.024414062 410.713867188 254.024414062 410 214.73828125 392.142578125 c 0
 184.73828125 378.571289062 148.309570312 342.142578125 148.309570312 325.713867188 c 0x40
 148.309570312 320.713867188 141.880859375 310.713867188 134.024414062 303.571289062 c 0
 125.453125 296.428710938 120.453125 286.428710938 122.595703125 281.428710938 c 0
 124.73828125 276.428710938 122.595703125 262.857421875 118.309570312 251.428710938 c 0
 100.453125 204.286132812 151.880859375 135 211.166992188 125 c 0
 264.73828125 116.428710938 330.453125 160 369.73828125 230.713867188 c 0
 406.880859375 297.857421875 394.73828125 365 341.166992188 393.571289062 c 0
EndSplineSet
EndChar

StartChar: c
Encoding: 99 99 63
Width: 451
Flags: HMW
HStem: 364.286 71.4277<156.09 191.744>
LayerCount: 2
Fore
SplineSet
212.815429688 446.428710938 m 0
 234.958984375 464.286132812 299.959960938 455 345.673828125 427.142578125 c 0
 387.81640625 401.428710938 400.673828125 387.857421875 401.387695312 369.286132812 c 0
 401.387695312 348.571289062 381.387695312 347.142578125 356.387695312 365.713867188 c 0
 344.245117188 375.713867188 320.673828125 390 304.245117188 398.571289062 c 0
 279.245117188 411.428710938 271.387695312 412.142578125 243.53125 405.713867188 c 0
 226.387695312 401.428710938 202.81640625 390 192.102539062 380.713867188 c 0
 180.673828125 372.142578125 167.102539062 364.286132812 162.102539062 364.286132812 c 0
 150.077148438 364.286132812 120.984375 319.59765625 115.672851562 314.286132812 c 0
 104.958984375 306.428710938 94.244140625 260 94.244140625 225 c 0
 94.244140625 192.857421875 97.8154296875 184.286132812 120.672851562 157.142578125 c 0
 134.958984375 140.713867188 157.1015625 122.857421875 168.530273438 117.857421875 c 0
 209.958984375 100.713867188 263.530273438 115.713867188 317.815429688 158.571289062 c 2
 337.1015625 174.286132812 l 1
 367.1015625 144.286132812 l 1
 350.672851562 132.857421875 l 2
 278.530273438 81.4287109375 263.530273438 75 219.244140625 76.4287109375 c 0
 195.672851562 77.142578125 168.530273438 80.7138671875 158.530273438 84.2861328125 c 0
 128.530273438 95.7138671875 72.8154296875 150 57.1015625 183.571289062 c 0
 42.8154296875 214.286132812 42.8154296875 216.428710938 54.244140625 262.142578125 c 0
 67.8447265625 318.055664062 81.4931640625 330.172851562 104.958984375 368.571289062 c 0
 119.958984375 393.571289062 173.530273438 435.713867188 189.244140625 435.713867188 c 0
 194.244140625 435.713867188 204.958984375 440.713867188 212.815429688 446.428710938 c 0
EndSplineSet
EndChar

StartChar: d
Encoding: 100 100 64
Width: 431
Flags: HMW
VStem: 299.773 47.1426 306.915 39.2852
LayerCount: 2
Fore
SplineSet
330.486328125 680 m 0x40
 344.057617188 688.571289062 361.915039062 686.427734375 371.200195312 675.712890625 c 0
 379.057617188 665.712890625 373.34375 580.712890625 359.772460938 496.427734375 c 0
 357.62890625 484.999023438 355.486328125 445.712890625 354.772460938 409.28515625 c 0
 354.057617188 373.5703125 351.200195312 341.427734375 347.62890625 338.5703125 c 0
 339.772460938 330.712890625 341.915039062 301.427734375 350.486328125 295.712890625 c 0
 355.486328125 292.856445312 356.200195312 282.856445312 353.34375 268.5703125 c 0
 350.486328125 256.427734375 347.62890625 206.427734375 346.915039062 157.141601562 c 2x80
 346.200195312 67.8564453125 l 1
 328.34375 67.8564453125 l 2
 311.200195312 67.8564453125 310.486328125 70.712890625 306.915039062 115.712890625 c 0
 304.772460938 141.427734375 301.200195312 165.712890625 298.34375 168.5703125 c 0
 294.772460938 171.427734375 286.915039062 166.427734375 279.057617188 158.5703125 c 0
 271.915039062 149.999023438 261.200195312 142.856445312 254.772460938 142.856445312 c 0
 249.057617188 142.856445312 242.62890625 140.712890625 241.200195312 137.856445312 c 0
 236.200195312 125.712890625 179.057617188 93.5703125 156.200195312 89.28515625 c 0
 108.34375 80.712890625 51.2001953125 142.856445312 45.486328125 209.28515625 c 0
 39.7724609375 272.141601562 84.7724609375 349.28515625 160.486328125 406.427734375 c 0
 189.772460938 427.856445312 203.34375 433.5703125 233.34375 434.999023438 c 0
 253.34375 435.712890625 271.915039062 432.856445312 274.772460938 428.5703125 c 0
 276.915039062 424.999023438 284.772460938 421.427734375 291.200195312 421.427734375 c 0
 301.915039062 421.427734375 305.486328125 435.712890625 315.486328125 509.28515625 c 0
 321.915039062 557.141601562 329.772460938 602.856445312 332.62890625 609.999023438 c 0
 336.915039062 621.427734375 335.486328125 622.856445312 325.486328125 619.28515625 c 0
 292.169921875 605.95703125 319.530273438 673.15234375 330.486328125 680 c 0x40
276.915039062 377.856445312 m 0
 228.34375 394.999023438 205.486328125 388.5703125 157.62890625 345.712890625 c 0
 105.486328125 297.856445312 84.7724609375 261.427734375 84.7724609375 215.712890625 c 0
 84.0576171875 149.999023438 104.057617188 124.999023438 152.62890625 129.999023438 c 0
 188.34375 134.28515625 224.057617188 157.856445312 269.057617188 206.427734375 c 0
 293.34375 232.856445312 299.057617188 244.28515625 299.772460938 266.427734375 c 0
 299.772460938 288.5703125 296.915039062 294.999023438 285.486328125 297.856445312 c 0
 266.200195312 302.856445312 267.62890625 311.427734375 289.772460938 330.712890625 c 0
 311.915039062 349.999023438 307.62890625 367.141601562 276.915039062 377.856445312 c 0
EndSplineSet
EndChar

StartChar: e
Encoding: 101 101 65
Width: 443
Flags: HMW
HStem: 32.1426 48.5713 142.857 42.8564 458.571 20G
LayerCount: 2
Fore
SplineSet
220.236328125 468.571289062 m 0
 232.379882812 473.571289062 263.807617188 477.858398438 290.235351562 478.572265625 c 0
 332.37890625 478.572265625 340.950195312 476.4296875 355.950195312 461.4296875 c 0
 400.235351562 417.143554688 393.092773438 321.4296875 341.6640625 268.572265625 c 0
 321.6640625 247.858398438 300.235351562 235.000976562 271.6640625 226.4296875 c 0
 229.521484375 212.858398438 200.235351562 197.143554688 154.521484375 162.858398438 c 0
 140.950195312 151.4296875 124.521484375 142.858398438 119.521484375 142.858398438 c 0
 104.521484375 142.858398438 107.37890625 130.000976562 128.807617188 102.143554688 c 0
 145.950195312 79.287109375 150.950195312 77.1435546875 175.235351562 80.71484375 c 0
 213.569335938 86.1923828125 198.57421875 70.3828125 239.522460938 79.2861328125 c 0
 256.665039062 82.142578125 285.236328125 85 303.80859375 85.7138671875 c 0
 322.379882812 85.7138671875 339.522460938 89.2861328125 341.665039062 92.857421875 c 0
 354.522460938 112.857421875 385.951171875 85 376.665039062 61.4287109375 c 0
 370.951171875 47.142578125 356.665039062 42.857421875 293.80859375 38.5712890625 c 0
 241.665039062 35 234.522460938 35 188.09375 35.7138671875 c 0
 174.522460938 35.7138671875 154.522460938 34.2861328125 143.80859375 32.142578125 c 0
 128.09375 28.5712890625 122.379882812 31.4287109375 112.379882812 47.857421875 c 0
 105.236328125 58.5712890625 88.80859375 79.2861328125 75.951171875 93.5712890625 c 0
 54.5224609375 116.428710938 50.951171875 125 47.3798828125 170 c 0
 44.5224609375 207.857421875 45.951171875 224.286132812 53.09375 232.857421875 c 0
 63.80859375 245.713867188 102.379882812 341.428710938 102.379882812 355 c 0
 102.379882812 367.857421875 195.951171875 457.142578125 220.236328125 468.571289062 c 0
338.092773438 432.143554688 m 0
 328.092773438 444.287109375 289.521484375 445.000976562 254.521484375 435.000976562 c 0
 225.950195312 426.4296875 165.950195312 361.4296875 145.950195312 316.4296875 c 0
 137.37890625 297.858398438 120.950195312 263.572265625 109.521484375 241.4296875 c 0
 85.9501953125 197.143554688 83.8076171875 185.71484375 96.6640625 185.71484375 c 0
 101.6640625 185.71484375 154.521484375 210.000976562 213.807617188 239.287109375 c 0
 320.235351562 292.858398438 322.37890625 294.287109375 334.521484375 325.000976562 c 0
 348.092773438 362.143554688 350.235351562 417.858398438 338.092773438 432.143554688 c 0
EndSplineSet
EndChar

StartChar: f
Encoding: 102 102 66
Width: 460
Flags: HMW
HStem: 280 41.4287<71.7934 95.0072> 296.429 42.8574<181.436 235.007 181.436 181.436>
VStem: 131.436 50<282.143 296.429>
LayerCount: 2
Fore
SplineSet
242.865234375 683.571289062 m 0xa0
 260.0078125 692.142578125 280.72265625 699.286132812 288.579101562 700 c 0
 317.151367188 700 347.865234375 672.857421875 367.865234375 630.713867188 c 0
 379.293945312 607.857421875 395.72265625 580.713867188 405.0078125 570 c 0
 424.293945312 549.286132812 423.579101562 526.428710938 404.293945312 522.857421875 c 0
 385.0078125 519.286132812 372.865234375 532.857421875 345.72265625 589.286132812 c 0
 313.579101562 655.713867188 291.436523438 667.857421875 252.865234375 642.142578125 c 0
 239.293945312 632.857421875 222.865234375 614.286132812 216.436523438 600.713867188 c 0
 202.865234375 572.857421875 182.865234375 465.713867188 189.293945312 456.428710938 c 0
 191.436523438 452.142578125 190.0078125 445 185.72265625 440 c 0
 180.72265625 434.286132812 178.579101562 410.713867188 179.293945312 385 c 2
 181.436523438 339.286132812 l 1
 230.0078125 338.571289062 l 2
 280.72265625 337.857421875 295.0078125 331.428710938 290.72265625 310 c 0
 288.579101562 297.857421875 281.436523438 296.428710938 235.0078125 296.428710938 c 2
 181.436523438 296.428710938 l 1x60
 180.0078125 180 l 2
 179.293945312 115.713867188 177.865234375 62.142578125 176.436523438 60.7138671875 c 0
 175.0078125 59.2861328125 163.579101562 57.142578125 150.0078125 55.7138671875 c 0
 122.865234375 53.5712890625 107.865234375 68.5712890625 117.151367188 90 c 0
 125.72265625 112.142578125 130.0078125 149.286132812 130.72265625 217.857421875 c 2
 131.436523438 282.142578125 l 1
 95.0078125 280 l 2
 55.72265625 277.857421875 36.4365234375 290 45.0078125 310.713867188 c 0
 47.865234375 318.571289062 59.2939453125 321.428710938 84.2939453125 321.428710938 c 0
 105.0078125 321.428710938 122.151367188 325 125.72265625 330.713867188 c 0
 128.579101562 335 133.579101562 360 136.436523438 385.713867188 c 0
 142.151367188 436.428710938 152.151367188 508.571289062 162.151367188 573.571289062 c 0
 170.0078125 623.571289062 197.151367188 661.428710938 242.865234375 683.571289062 c 0xa0
EndSplineSet
EndChar

StartChar: g
Encoding: 103 103 67
Width: 510
Flags: HMW
HStem: -71.4287 6.42871 435 48.5713
LayerCount: 2
Fore
SplineSet
240 -39 m 4
 236 -39 183.017597248 -45.7545753571 146 -31 c 0
 108.44713098 -16.0320745533 146.000159189 -30.9994030285 86 -15 c 0
 31.0185546875 -0.3388671875 48.8122527837 -48.209471194 74 -61 c 0
 100.329101562 -74.3701171875 244 -83 268 -81 c 0
 292 -79 319.533203125 -71.4287109375 319.533203125 -71.4287109375 c 1
 319.533203125 -71.4287109375 348.802734375 -71.4208984375 373.104492188 -21.4287109375 c 0
 398.104492188 30 406.006835938 75.775390625 423.818359375 265 c 0
 429.533294231 325.713858612 443.553229214 410.919260421 450.247070312 419.286132812 c 0
 461.67578125 433.571289062 448.818359375 506.428710938 433.818359375 514.286132812 c 0
 413.818359375 525 405.9609375 522.857421875 398.818359375 502.857421875 c 0
 389.533203125 480 389.533203125 466.428710937 398.818359375 460.713867188 c 0
 402.899179135 458.202197306 394 451.28515625 394 447 c 0
 394 434.856445312 392.389648438 442.857421875 374.533203125 461.428710938 c 0
 360.141924616 476.396112819 349.533203125 480.713867188 314.533203125 483.571289062 c 0
 288.104492188 485.713867188 269.533203125 483.571289062 266.67578125 479.286132812 c 0
 264.533203125 475 253.104492188 471.428710938 241.67578125 471.428710938 c 0
 210.9609375 471.428710938 180.247070312 450 150.9609375 407.857421875 c 0
 136.935285303 387.674588339 122.389648438 371.428710938 119.533203125 371.428710938 c 0
 115.9609375 371.428710938 108.104492188 361.428710938 101.67578125 349.286132812 c 0
 80.3012029192 308.913733152 70.2470703125 257.530627198 70.2470703125 205.713867188 c 2
 70.2470703125 151.428710938 l 1
 112.389648438 107.142578125 l 2
 149.578969047 68.0616470341 185.9609375 47.857421875 233.818359375 55 c 0
 259.602377137 58.8481880976 310.2734375 75.6474609375 334 97 c 0
 348.286132812 109.856445312 370 137 355.247070312 70 c 0
 343.829981624 18.1496246281 331.89543058 -19.507029877 306 -25 c 2
 240 -39 l 4
376 391 m 0
 388 361 397.665023376 373.352695506 376.67578125 280.713867188 c 0
 355.9609375 189.286132812 323.814395553 147.202519241 270.247070312 113.571289062 c 0
 220.9609375 82.6279244322 197.389648438 82.2741723617 158.818359375 112.142578125 c 0
 103.981666708 154.606406198 91.67578125 217.857421875 134.533203125 310.713867188 c 0
 174.533203125 397.142578125 223.818823867 432.839687531 305.9609375 435 c 0
 333.104492188 435.713867188 363.805774125 421.485564688 376 391 c 0
EndSplineSet
EndChar

StartChar: h
Encoding: 104 104 68
Width: 437
Flags: HMW
VStem: 75.7015 55.7139
LayerCount: 2
Fore
SplineSet
99.9873046875 677.142578125 m 0
 109.987304688 689.286132812 115.702148438 687.857421875 129.987304688 672.142578125 c 0
 139.2734375 662.142578125 140.702148438 655 135.702148438 645 c 0
 131.416015625 637.857421875 129.987304688 614.286132812 131.416015625 592.142578125 c 0
 132.844726562 570 130.702148438 522.857421875 126.416015625 488.571289062 c 0
 112.130859375 370.713867188 113.559570312 267.857421875 129.2734375 273.571289062 c 0
 132.844726562 274.286132812 144.2734375 290.713867188 154.2734375 309.286132812 c 0
 181.416015625 362.142578125 240.702148438 405 304.2734375 418.571289062 c 0
 316.416015625 420.713867188 327.130859375 415.713867188 344.2734375 398.571289062 c 0
 387.844726562 354.286132812 387.844726562 358.571289062 354.987304688 207.142578125 c 0
 346.416015625 165.713867188 338.559570312 106.428710938 338.559570312 75 c 0
 337.844726562 31.4287109375 335.702148438 17.857421875 327.844726562 17.857421875 c 0
 312.844726562 17.857421875 288.559570312 53.5712890625 295.702148438 65.7138671875 c 0
 299.2734375 70.7138671875 302.130859375 81.4287109375 302.844726562 89.2861328125 c 0
 304.5078125 107.561523438 320.970703125 224.737304688 323.559570312 242.857421875 c 0
 324.2734375 252.857421875 328.559570312 267.857421875 332.844726562 276.428710938 c 0
 353.559570312 315 331.416015625 371.428710938 294.987304688 371.428710938 c 0
 263.559570312 371.428710938 212.130859375 323.571289062 175.702148438 260.713867188 c 0
 130.702148438 183.571289062 118.559570312 153.571289062 117.844726562 116.428710938 c 0
 117.130859375 87.142578125 114.2734375 75.7138671875 104.2734375 70.7138671875 c 0
 97.130859375 67.142578125 91.416015625 59.2861328125 91.416015625 54.2861328125 c 0
 91.416015625 38.5712890625 56.416015625 10.7138671875 47.8447265625 19.2861328125 c 0
 42.8447265625 24.2861328125 42.8447265625 31.4287109375 47.130859375 40 c 0
 72.130859375 85.7138671875 77.8447265625 151.428710938 75.7021484375 371.428710938 c 0
 74.9873046875 494.286132812 87.8447265625 662.142578125 99.9873046875 677.142578125 c 0
EndSplineSet
EndChar

StartChar: i
Encoding: 105 105 69
Width: 209
Flags: HMW
VStem: 62.7333 63.5713 79.162 49.2852
LayerCount: 2
Fore
SplineSet
74.1611328125 635 m 0x00
 97.732421875 653.571289062 101.303710938 653.571289062 131.303710938 635 c 0
 180.58984375 605 166.303710938 542.142578125 107.732421875 531.428710938 c 0
 75.58984375 525.713867188 65.58984375 536.428710938 59.1611328125 582.857421875 c 0
 54.875 617.142578125 55.58984375 620.713867188 74.1611328125 635 c 0x00
62.732421875 458.571289062 m 0x80
 62.732421875 468.571289062 117.732421875 465 126.303710938 454.286132812 c 0x80
 132.017578125 447.142578125 132.732421875 406.428710938 128.446289062 299.286132812 c 0
 124.875 219.286132812 122.017578125 135.713867188 122.732421875 114.286132812 c 0
 123.446289062 79.2861328125 122.017578125 75 107.732421875 72.857421875 c 0
 82.017578125 69.2861328125 69.875 96.4287109375 74.875 146.428710938 c 0
 77.732421875 170 79.1611328125 212.857421875 79.1611328125 241.428710938 c 0x40
 78.4462890625 269.286132812 78.4462890625 301.428710938 78.4462890625 312.857421875 c 0
 79.1611328125 402.857421875 77.017578125 438.571289062 70.58984375 445 c 0
 66.3037109375 449.286132812 62.732421875 455.713867188 62.732421875 458.571289062 c 0x80
EndSplineSet
EndChar

StartChar: j
Encoding: 106 106 70
Width: 347
Flags: HMW
HStem: -71.4287 7.14258<111.502 123.288 111.502 209.001>
VStem: 204.716 45 224.001 40.7148
LayerCount: 2
Fore
SplineSet
241.143554688 657.142578125 m 0x80
 249.715820312 660.713867188 257.572265625 663.571289062 258.287109375 663.571289062 c 0
 263.287109375 665.713867188 303.287109375 615.713867188 303.287109375 607.857421875 c 0
 303.287109375 572.857421875 249.000976562 560 215.4296875 587.857421875 c 2
 196.143554688 603.571289062 l 1
 210.4296875 627.142578125 l 2
 218.287109375 640 231.858398438 653.571289062 241.143554688 657.142578125 c 0x80
224.000976562 510 m 0xa0
 229.715820312 522.857421875 234.715820312 526.428710938 246.143554688 523.571289062 c 0
 254.000976562 521.428710938 262.572265625 517.142578125 264.715820312 513.571289062 c 0xa0
 273.287109375 500 281.143554688 426.428710938 275.4296875 415.713867188 c 0
 264.000976562 394.286132812 252.572265625 297.142578125 249.715820312 199.286132812 c 0xc0
 243.287109375 18.5712890625 239.000976562 -22.857421875 224.000976562 -47.857421875 c 2xa0
 209.000976562 -71.4287109375 l 1
 53.287109375 -71.4287109375 l 1
 44.0009765625 -47.857421875 l 2
 24.0009765625 -0.7138671875 50.4296875 8.5712890625 78.287109375 -35.7138671875 c 0
 94.0009765625 -60.7138671875 99.7158203125 -64.2861328125 123.287109375 -64.2861328125 c 0
 159.000976562 -63.5712890625 181.143554688 -45 189.715820312 -7.857421875 c 0
 199.000976562 35 209.000976562 202.857421875 204.715820312 255.713867188 c 0xc0
 203.287109375 280.713867188 204.715820312 308.571289062 209.715820312 320 c 0
 221.143554688 346.428710938 231.143554688 465 224.000976562 480 c 0
 220.4296875 486.428710938 220.4296875 499.286132812 224.000976562 510 c 0xa0
EndSplineSet
EndChar

StartChar: k
Encoding: 107 107 71
Width: 401
Flags: HMW
VStem: 69.2676 43.5713
LayerCount: 2
Fore
SplineSet
78.5537109375 684.286132812 m 0
 88.5537109375 702.857421875 104.982421875 704.286132812 114.268554688 687.857421875 c 0
 117.83984375 680.713867188 119.982421875 635.713867188 119.268554688 587.142578125 c 0
 118.553710938 539.286132812 120.696289062 495.713867188 123.553710938 491.428710938 c 0
 126.411132812 486.428710938 125.696289062 479.286132812 122.83984375 475 c 0
 113.553710938 464.286132812 102.83984375 338.571289062 109.982421875 330.713867188 c 0
 112.125 328.571289062 152.125 365 199.268554688 411.428710938 c 0
 318.553710938 530 311.411132812 524.286132812 328.553710938 514.286132812 c 0
 337.125 510 343.553710938 502.142578125 343.553710938 495.713867188 c 0
 343.553710938 480 313.553710938 442.857421875 300.696289062 442.857421875 c 0
 294.268554688 442.857421875 272.125 425.713867188 251.411132812 404.286132812 c 0
 207.83984375 360 207.83984375 363.571289062 250.696289062 278.571289062 c 0
 265.696289062 249.286132812 283.553710938 209.286132812 289.982421875 190.713867188 c 0
 296.411132812 172.142578125 309.982421875 147.142578125 319.982421875 135.713867188 c 0
 329.268554688 124.286132812 339.982421875 104.286132812 344.268554688 91.4287109375 c 0
 352.125 64.2861328125 352.83984375 28.5712890625 345.696289062 28.5712890625 c 0
 336.411132812 28.5712890625 314.982421875 52.857421875 314.982421875 63.5712890625 c 0
 314.982421875 70 307.125 83.5712890625 297.83984375 93.5712890625 c 0
 279.982421875 112.857421875 236.411132812 201.428710938 236.411132812 218.571289062 c 0
 236.411132812 228.571289062 209.982421875 266.428710938 177.125 302.857421875 c 0
 164.982421875 317.142578125 164.268554688 317.142578125 138.553710938 291.428710938 c 2
 112.83984375 265 l 1
 111.411132812 196.428710938 l 2
 110.696289062 158.571289062 106.411132812 124.286132812 102.125 120 c 0
 90.6962890625 108.571289062 74.2685546875 117.857421875 71.4111328125 137.142578125 c 0
 69.2685546875 146.428710938 68.5537109375 269.286132812 69.2685546875 411.428710938 c 0
 69.982421875 591.428710938 72.83984375 673.571289062 78.5537109375 684.286132812 c 0
EndSplineSet
EndChar

StartChar: l
Encoding: 108 108 72
Width: 196
Flags: HMW
VStem: 71.5305 30
LayerCount: 2
Fore
SplineSet
102.245117188 687.857421875 m 0
 107.209960938 696.131835938 126.46875 685.713867188 131.530273438 685.713867188 c 0
 134.387695312 685.713867188 140.81640625 679.286132812 145.1015625 672.142578125 c 0
 152.245117188 660.713867188 151.530273438 652.857421875 143.672851562 632.857421875 c 0
 137.245117188 617.857421875 132.958984375 585 132.958984375 552.142578125 c 0
 132.958984375 521.428710938 130.1015625 485.713867188 126.530273438 472.857421875 c 0
 118.672851562 445.713867188 105.81640625 292.857421875 101.530273438 165 c 0
 97.958984375 76.4287109375 92.958984375 58.5712890625 73.6728515625 66.4287109375 c 0
 55.81640625 72.857421875 55.81640625 191.428710938 71.5302734375 428.571289062 c 0
 79.3876953125 542.142578125 95.1015625 675 102.245117188 687.857421875 c 0
EndSplineSet
EndChar

StartChar: m
Encoding: 109 109 73
Width: 614
Flags: HMW
HStem: 432.857 45.7139
VStem: 76.2649 58.5713 269.836 42.1426 444.122 42.8564 452.694 47.1426<95.7144 138.571> 500.551 50
LayerCount: 2
Fore
SplineSet
83.4072265625 477.142578125 m 0xec
 87.693359375 489.286132812 111.978515625 487.857421875 123.407226562 474.286132812 c 0
 128.407226562 467.857421875 134.122070312 449.286132812 134.8359375 432.857421875 c 0
 138.407226562 383.571289062 139.8359375 383.571289062 189.8359375 417.857421875 c 0
 214.8359375 435.713867188 239.8359375 450 245.55078125 450 c 0
 251.264648438 450 266.978515625 455 279.8359375 461.428710938 c 0
 306.978515625 475.713867188 321.264648438 470 335.55078125 440.713867188 c 0
 342.693359375 425 347.693359375 422.857421875 357.693359375 427.857421875 c 0
 364.8359375 432.142578125 374.122070312 440 379.8359375 445.713867188 c 0
 391.978515625 461.428710938 453.407226562 478.571289062 494.8359375 478.571289062 c 0
 541.264648438 478.571289062 551.264648438 463.571289062 550.55078125 396.428710938 c 0
 550.55078125 342.857421875 541.264648438 252.857421875 533.407226562 217.857421875 c 0
 530.55078125 206.428710938 521.978515625 189.286132812 514.122070312 180.713867188 c 0
 503.407226562 169.286132812 499.8359375 155 499.8359375 122.142578125 c 0xec
 499.122070312 97.857421875 496.264648438 76.4287109375 493.407226562 74.2861328125 c 0
 489.8359375 72.142578125 486.978515625 64.2861328125 486.978515625 57.142578125 c 0
 486.978515625 35 462.693359375 26.4287109375 447.693359375 42.857421875 c 0
 436.978515625 54.2861328125 436.264648438 58.5712890625 444.122070312 67.857421875 c 0xf4
 449.122070312 74.2861328125 452.693359375 89.2861328125 452.693359375 102.142578125 c 0
 451.978515625 115 457.693359375 141.428710938 464.8359375 160.713867188 c 0
 484.8359375 213.571289062 501.264648438 272.857421875 500.55078125 292.857421875 c 0
 500.55078125 302.857421875 501.264648438 334.286132812 501.264648438 363.571289062 c 0
 502.693359375 420 499.122070312 427.142578125 469.8359375 432.857421875 c 0
 455.55078125 435 446.264648438 432.142578125 436.978515625 421.428710938 c 0
 430.55078125 413.571289062 420.55078125 407.142578125 415.55078125 407.142578125 c 0
 411.264648438 407.142578125 397.693359375 400.713867188 386.264648438 392.857421875 c 0
 355.55078125 370.713867188 328.407226562 266.428710938 316.264648438 121.428710938 c 2
 311.978515625 67.857421875 l 1
 290.55078125 67.857421875 l 2
 270.55078125 67.857421875 269.122070312 70 269.8359375 92.857421875 c 0
 270.55078125 133.571289062 286.264648438 256.428710938 297.693359375 317.857421875 c 0
 310.55078125 385 306.978515625 425 288.407226562 417.857421875 c 0
 281.978515625 415 267.693359375 410.713867188 256.978515625 407.857421875 c 0
 231.264648438 402.142578125 141.978515625 316.428710938 129.8359375 285.713867188 c 0
 116.978515625 253.571289062 116.978515625 253.571289062 108.407226562 162.142578125 c 0
 104.122070312 112.142578125 98.4072265625 82.142578125 91.2646484375 75 c 0
 85.55078125 69.2861328125 79.8359375 60.7138671875 78.4072265625 55.7138671875 c 0
 76.978515625 51.4287109375 69.8359375 49.2861328125 63.4072265625 52.142578125 c 0
 49.8359375 57.142578125 46.2646484375 92.142578125 58.4072265625 104.286132812 c 0
 65.55078125 111.428710938 68.4072265625 152.857421875 76.2646484375 353.571289062 c 0
 79.1220703125 416.428710938 81.978515625 472.142578125 83.4072265625 477.142578125 c 0xec
EndSplineSet
EndChar

StartChar: n
Encoding: 110 110 74
Width: 449
Flags: HMW
VStem: 61.4597 33.5713 91.4597 40
LayerCount: 2
Fore
SplineSet
208.6015625 446.428710938 m 0x40
 282.172851562 510.713867188 283.600585938 511.428710938 328.600585938 481.428710938 c 0
 360.029296875 460 367.88671875 447.857421875 379.315429688 407.142578125 c 0
 387.171875 377.142578125 385.744140625 279.286132812 376.458007812 264.286132812 c 0
 375.029296875 261.428710938 371.458007812 227.142578125 369.315429688 188.571289062 c 0
 365.029296875 122.142578125 363.600585938 116.428710938 343.600585938 98.5712890625 c 0
 332.171875 87.142578125 319.315429688 78.5712890625 315.744140625 78.5712890625 c 0
 305.029296875 78.5712890625 307.171875 102.142578125 320.029296875 120.713867188 c 0
 326.458007812 129.286132812 332.88671875 147.142578125 333.600585938 159.286132812 c 0
 335.029296875 172.142578125 339.315429688 226.428710938 344.315429688 280.713867188 c 0
 350.744140625 353.571289062 350.744140625 382.142578125 345.029296875 387.857421875 c 0
 340.744140625 392.142578125 337.171875 402.857421875 337.171875 410.713867188 c 0
 337.171875 419.286132812 329.315429688 433.571289062 319.315429688 442.857421875 c 0
 304.315429688 457.142578125 299.315429688 457.857421875 282.171875 450.713867188 c 0
 271.458007812 446.428710938 250.744140625 432.857421875 237.171875 421.428710938 c 0
 142.88671875 342.142578125 141.458007812 339.286132812 125.744140625 260 c 0
 114.204101562 192.405273438 100.802734375 196.642578125 95.0302734375 129.286132812 c 0
 92.1728515625 97.142578125 87.1728515625 81.4287109375 78.6015625 75.7138671875 c 0
 49.31640625 57.142578125 42.8876953125 104.286132812 61.458984375 200 c 0x80
 77.0078125 281.19921875 79.6025390625 370.840820312 91.458984375 446.428710938 c 0
 96.458984375 475 105.745117188 483.571289062 121.458984375 474.286132812 c 0
 130.745117188 467.857421875 132.887695312 457.857421875 131.458984375 430 c 0
 130.030273438 410.713867188 131.458984375 392.857421875 135.030273438 390.713867188 c 0
 137.887695312 388.571289062 171.458984375 413.571289062 208.6015625 446.428710938 c 0x40
EndSplineSet
EndChar

StartChar: o
Encoding: 111 111 75
Width: 505
Flags: W
LayerCount: 2
Fore
SplineSet
209.779296875 452.142578125 m 0
 244.779296875 467.142578125 315.493164062 464.286132812 334.064453125 447.142578125 c 0
 341.20703125 440.713867188 349.779296875 435.713867188 353.350585938 435.713867188 c 0
 357.635742188 435.713867188 372.635742188 422.857421875 388.350585938 407.142578125 c 0
 403.350585938 392.142578125 418.350585938 380.713867188 421.921875 382.857421875 c 0
 431.921875 389.286132812 443.350585938 348.571289062 442.635742188 310.713867188 c 0
 442.635742188 289.286132812 434.064453125 252.142578125 421.20703125 217.857421875 c 0
 394.064453125 145.713867188 344.779296875 95.7138671875 282.635742188 75.7138671875 c 0
 241.20703125 62.857421875 191.20703125 65 172.635742188 80 c 0
 167.635742188 83.5712890625 161.20703125 85 157.635742188 82.857421875 c 0
 144.064453125 74.2861328125 63.3505859375 170 63.3505859375 195.713867188 c 0
 63.3505859375 201.428710938 60.4931640625 208.571289062 56.20703125 210.713867188 c 0
 40.4931640625 220.713867188 48.3505859375 283.571289062 71.20703125 325.713867188 c 0
 104.064453125 388.571289062 143.350585938 424.286132812 209.779296875 452.142578125 c 0
301.20703125 416.428710938 m 0
 288.350585938 423.571289062 274.064453125 427.857421875 269.064453125 427.857421875 c 0
 249.064453125 425.713867188 230.493164062 419.286132812 220.493164062 410.713867188 c 0
 214.779296875 405.713867188 201.921875 399.286132812 191.921875 396.428710938 c 0
 166.921875 388.571289062 131.921875 358.571289062 109.779296875 326.428710938 c 0
 61.921875 255 101.921875 139.286132812 186.20703125 107.142578125 c 0
 217.635742188 95.7138671875 223.350585938 95 262.635742188 105 c 0
 315.493164062 118.571289062 358.350585938 153.571289062 378.350585938 199.286132812 c 0
 386.921875 217.142578125 398.350585938 241.428710938 404.064453125 252.142578125 c 0
 414.064453125 270.713867188 414.064453125 273.571289062 400.493164062 287.857421875 c 0
 392.635742188 296.428710938 384.064453125 317.142578125 381.20703125 332.857421875 c 0
 376.20703125 364.286132812 350.493164062 391.428710938 301.20703125 416.428710938 c 0
EndSplineSet
EndChar

StartChar: p
Encoding: 112 112 76
Width: 506
Flags: HMW
HStem: 28.5713 50<249.763 286.906 238.692 290.12>
LayerCount: 2
Fore
SplineSet
102.620117188 487.857421875 m 0
 127.620117188 515 151.905273438 493.571289062 144.762695312 450 c 0
 142.620117188 434.286132812 142.620117188 421.428710938 146.19140625 421.428710938 c 0
 149.048828125 421.428710938 162.620117188 432.857421875 176.19140625 446.428710938 c 0
 204.048828125 475 226.905273438 482.857421875 310.477539062 489.286132812 c 0
 369.048828125 494.286132812 370.477539062 494.286132812 391.905273438 474.286132812 c 0
 404.048828125 462.857421875 421.905273438 440.713867188 431.19140625 425.713867188 c 0
 447.620117188 400 449.048828125 392.857421875 444.762695312 347.857421875 c 0
 437.620117188 268.571289062 414.048828125 183.571289062 381.19140625 115.713867188 c 0
 363.333984375 78.5712890625 303.333984375 28.5712890625 276.905273438 28.5712890625 c 0
 222.620117188 28.5712890625 204.048828125 37.142578125 158.333984375 84.2861328125 c 0
 126.905273438 115.713867188 111.19140625 127.857421875 109.048828125 120.713867188 c 0
 103.333984375 105 90.4775390625 -7.142578125 90.4775390625 -40.7138671875 c 0
 90.4775390625 -70 89.048828125 -71.4287109375 69.7626953125 -71.4287109375 c 0
 53.333984375 -71.4287109375 48.333984375 -67.142578125 44.7626953125 -52.857421875 c 0
 41.9052734375 -42.857421875 42.6201171875 -30.7138671875 46.19140625 -26.4287109375 c 0
 56.0126953125 -12.6787109375 62.521484375 128.709960938 64.7626953125 150 c 0
 72.0810546875 206.708007812 82.6064453125 294.694335938 86.9052734375 389.286132812 c 0
 90.4775390625 451.428710938 94.7626953125 478.571289062 102.620117188 487.857421875 c 0
369.048828125 445 m 0
 359.048828125 456.428710938 346.19140625 460.713867188 339.762695312 454.286132812 c 0
 338.333984375 452.857421875 314.762695312 449.286132812 286.905273438 446.428710938 c 0
 233.333984375 441.428710938 228.333984375 438.571289062 176.905273438 382.857421875 c 0
 142.620117188 346.428710938 131.905273438 317.857421875 123.333984375 241.428710938 c 0
 119.048828125 203.571289062 120.477539062 197.857421875 139.762695312 171.428710938 c 0
 194.048828125 96.4287109375 216.905273438 78.5712890625 260.477539062 78.5712890625 c 0
 313.333984375 78.5712890625 365.477539062 141.428710938 384.048828125 227.142578125 c 0
 414.762695312 369.286132812 413.333984375 393.571289062 369.048828125 445 c 0
EndSplineSet
EndChar

StartChar: q
Encoding: 113 113 77
Width: 452
Flags: HMW
HStem: 430 20G<180.244 214.53>
VStem: 49.1727 54.2852 314.173 40.7139
LayerCount: 2
Fore
SplineSet
332.029296875 463.571289062 m 0
 341.315429688 481.428710938 352.029296875 482.142578125 373.458007812 467.142578125 c 0
 388.458007812 456.428710938 389.88671875 451.428710938 386.315429688 407.857421875 c 0
 377.311523438 299.798828125 360.831054688 21.501953125 354.88671875 -55.7138671875 c 0
 353.458007812 -69.2861328125 349.88671875 -72.142578125 334.172851562 -70 c 0
 314.88671875 -67.857421875 314.172851562 -66.4287109375 314.172851562 -21.4287109375 c 0
 314.172851562 4.2861328125 316.315429688 30 319.172851562 36.4287109375 c 0
 323.458007812 45.7138671875 327.744140625 132.142578125 325.6015625 152.857421875 c 0
 324.88671875 156.428710938 303.458007812 138.571289062 277.744140625 112.142578125 c 0
 229.172851562 62.857421875 182.744140625 39.2861328125 165.6015625 56.4287109375 c 0
 161.315429688 60.7138671875 151.315429688 64.2861328125 144.172851562 64.2861328125 c 0
 109.88671875 64.2861328125 52.029296875 154.286132812 49.1728515625 210.713867188 c 0
 46.3154296875 275.713867188 79.1728515625 360.713867188 127.744140625 412.857421875 c 0
 159.88671875 447.142578125 164.88671875 450 195.6015625 450 c 0
 233.458007812 450 283.458007812 432.857421875 316.315429688 409.286132812 c 0
 338.458007812 392.857421875 349.88671875 396.428710938 329.172851562 413.571289062 c 0
 317.744140625 422.857421875 319.172851562 440 332.029296875 463.571289062 c 0
257.744140625 389.286132812 m 0
 243.458007812 404.286132812 202.744140625 408.571289062 177.744140625 397.142578125 c 0
 154.88671875 387.142578125 103.458007812 317.142578125 103.458007812 296.428710938 c 0
 103.458007812 290 100.6015625 279.286132812 97.029296875 272.857421875 c 0
 86.3154296875 252.142578125 82.029296875 210 88.4580078125 187.142578125 c 0
 97.744140625 155.713867188 137.029296875 109.286132812 162.029296875 100.713867188 c 0
 178.458007812 95 187.744140625 96.4287109375 209.172851562 107.857421875 c 0
 247.029296875 129.286132812 279.88671875 162.857421875 297.029296875 197.857421875 c 0
 304.88671875 215 316.315429688 228.571289062 321.315429688 228.571289062 c 0
 340.6015625 228.571289062 341.315429688 265.713867188 322.744140625 307.142578125 c 0
 312.744140625 328.571289062 280.6015625 374.286132812 272.744140625 377.142578125 c 0
 269.88671875 378.571289062 263.458007812 384.286132812 257.744140625 389.286132812 c 0
EndSplineSet
EndChar

StartChar: r
Encoding: 114 114 78
Width: 358
Flags: HMW
VStem: 67.8572 37.1436
LayerCount: 2
Fore
SplineSet
77.142578125 505.713867188 m 0
 99.28515625 521.428710938 107.856445312 515.713867188 107.856445312 485 c 0
 107.856445312 469.286132812 111.427734375 450 115.713867188 441.428710938 c 0
 123.571289062 427.142578125 123.571289062 427.142578125 138.571289062 440.713867188 c 0
 190.713867188 487.142578125 307.142578125 515 313.571289062 482.857421875 c 0
 317.142578125 464.286132812 296.427734375 450 266.427734375 450 c 0
 235.713867188 450 199.28515625 432.857421875 159.28515625 400.713867188 c 0
 107.856445312 360 105.713867188 350 105 198.571289062 c 0
 104.28515625 65 104.28515625 64.2861328125 88.5712890625 64.2861328125 c 0
 80 64.2861328125 70.7138671875 67.857421875 67.8564453125 72.142578125 c 0
 65 76.4287109375 64.28515625 140 65.7138671875 213.571289062 c 0
 66.427734375 286.428710938 67.142578125 380 66.427734375 421.428710938 c 0
 65.7138671875 484.286132812 67.142578125 497.857421875 77.142578125 505.713867188 c 0
EndSplineSet
EndChar

StartChar: s
Encoding: 115 115 79
Width: 434
Flags: W
LayerCount: 2
Fore
SplineSet
176.15234375 475.713867188 m 0
 202.580078125 485 235.4375 480.713867188 254.723632812 465 c 0
 272.958007812 448.422851562 321.676757812 430.37890625 333.294921875 407.142578125 c 0
 338.294921875 397.142578125 352.580078125 377.142578125 364.723632812 361.428710938 c 0
 389.723632812 330 391.866210938 322.857421875 375.4375 316.428710938 c 0
 367.580078125 313.571289062 349.008789062 327.142578125 316.866210938 358.571289062 c 0
 256.15234375 417.142578125 230.4375 435 208.294921875 432.142578125 c 0
 177.580078125 428.571289062 141.15234375 410 116.866210938 385.713867188 c 0
 96.8662109375 365.713867188 93.294921875 357.857421875 95.4375 333.571289062 c 0
 97.580078125 300.713867188 106.866210938 295.713867188 184.008789062 285.713867188 c 0
 241.866210938 278.571289062 256.15234375 265 301.15234375 173.571289062 c 0
 321.15234375 132.857421875 314.723632812 102.142578125 278.294921875 60.7138671875 c 0
 239.008789062 16.4287109375 222.580078125 9.2861328125 144.008789062 3.5712890625 c 0
 76.15234375 -1.4287109375 75.4375 -1.4287109375 66.15234375 17.142578125 c 0
 57.580078125 32.142578125 57.580078125 37.142578125 65.4375 46.4287109375 c 0
 71.15234375 52.857421875 79.7236328125 55.7138671875 86.15234375 52.857421875 c 0
 92.580078125 50 116.15234375 45.7138671875 139.723632812 42.857421875 c 0
 201.866210938 34.2861328125 229.008789062 48.5712890625 260.4375 105 c 0
 276.15234375 133.571289062 276.15234375 140.713867188 255.4375 182.857421875 c 0
 231.15234375 232.857421875 219.008789062 241.428710938 158.294921875 250 c 0
 71.8662109375 262.142578125 44.0087890625 292.142578125 55.4375 356.428710938 c 0
 58.294921875 370.713867188 66.8662109375 390.713867188 75.4375 401.428710938 c 0
 94.7236328125 425.713867188 148.294921875 465 176.15234375 475.713867188 c 0
EndSplineSet
EndChar

StartChar: t
Encoding: 116 116 80
Width: 310
Flags: HMW
HStem: 451.429 45.7139
VStem: 125.409 47.8574
LayerCount: 2
Fore
SplineSet
128.981445312 689.286132812 m 0
 134.696289062 702.857421875 144.696289062 714.286132812 150.41015625 714.286132812 c 0
 179.696289062 714.286132812 193.981445312 645.713867188 183.981445312 547.142578125 c 0
 178.267578125 486.428710938 181.838867188 480 213.267578125 492.142578125 c 0
 236.125 500.713867188 259.696289062 495 265.41015625 480 c 0
 272.553710938 461.428710938 251.125 447.857421875 214.696289062 447.142578125 c 0
 174.696289062 446.428710938 178.267578125 457.857421875 173.267578125 292.857421875 c 0
 170.41015625 173.571289062 156.838867188 35.7138671875 148.267578125 26.4287109375 c 0
 145.41015625 23.5712890625 137.553710938 22.857421875 131.125 25.7138671875 c 0
 117.553710938 30.7138671875 109.696289062 76.4287109375 115.41015625 117.857421875 c 0
 123.981445312 176.428710938 131.125 374.286132812 125.41015625 396.428710938 c 0
 124.696289062 400.713867188 123.267578125 415 123.267578125 428.571289062 c 0
 122.553710938 452.857421875 121.838867188 453.571289062 96.8388671875 451.428710938 c 0
 65.41015625 448.571289062 35.41015625 470 43.267578125 489.286132812 c 0
 46.8388671875 500 53.267578125 501.428710938 86.8388671875 497.142578125 c 0
 120.41015625 493.571289062 126.838867188 494.286132812 133.267578125 506.428710938 c 0
 144.696289062 529.286132812 142.553710938 632.142578125 129.696289062 642.857421875 c 0
 116.125 653.571289062 116.125 658.571289062 128.981445312 689.286132812 c 0
EndSplineSet
EndChar

StartChar: u
Encoding: 117 117 81
Width: 389
Flags: HMW
VStem: 58.8068 57.8564 280.236 39.2852
LayerCount: 2
Fore
SplineSet
288.091796875 494.286132812 m 0
 293.806640625 503.571289062 302.377929688 500.713867188 315.235351562 486.428710938 c 0
 330.235351562 469.286132812 338.806640625 417.857421875 327.377929688 411.428710938 c 0
 323.091796875 408.571289062 319.520507812 387.857421875 319.520507812 365.713867188 c 0
 318.806640625 292.857421875 300.235351562 192.857421875 275.94921875 139.286132812 c 0
 272.377929688 131.428710938 266.663085938 116.428710938 263.091796875 105.713867188 c 0
 255.235351562 84.2861328125 198.091796875 55 178.091796875 62.142578125 c 0
 147.377929688 73.5712890625 112.377929688 110.713867188 101.663085938 142.857421875 c 0
 90.2353515625 176.428710938 78.806640625 260.713867188 73.091796875 352.142578125 c 0
 70.94921875 380.713867188 65.2353515625 405 59.5205078125 410.713867188 c 0
 50.94921875 419.286132812 50.94921875 425 58.806640625 447.857421875 c 0
 68.806640625 477.857421875 80.94921875 483.571289062 100.235351562 470 c 0
 110.94921875 462.142578125 113.091796875 443.571289062 116.663085938 339.286132812 c 0
 119.520507812 272.857421875 123.806640625 210.713867188 127.377929688 201.428710938 c 0
 130.94921875 192.142578125 133.806640625 176.428710938 133.806640625 166.428710938 c 0
 133.806640625 145 157.377929688 109.286132812 176.663085938 103.571289062 c 0
 230.94921875 86.4287109375 271.663085938 198.571289062 280.235351562 389.286132812 c 0
 282.377929688 443.571289062 286.663085938 491.428710938 288.091796875 494.286132812 c 0
EndSplineSet
EndChar

StartChar: v
Encoding: 118 118 82
Width: 388
Flags: HMW
HStem: 437.143 20G<53.5946 74.6659>
LayerCount: 2
Fore
SplineSet
300.022460938 510 m 0
 343.594726562 528.571289062 355.736328125 492.857421875 323.59375 436.428710938 c 0
 313.59375 420 305.736328125 398.571289062 305.736328125 390 c 0
 305.736328125 381.428710938 302.87890625 371.428710938 299.307617188 367.857421875 c 0
 295.021484375 363.571289062 289.307617188 347.857421875 285.021484375 332.142578125 c 0
 279.19921875 306.522460938 244.080078125 216.98828125 241.451171875 190.713867188 c 0
 241.451171875 184.286132812 232.166015625 157.142578125 220.022460938 130.713867188 c 0
 208.594726562 105 198.594726562 80 198.594726562 75 c 0
 198.594726562 61.4287109375 171.451171875 40.7138671875 160.022460938 45 c 0
 154.30859375 47.142578125 147.166015625 63.5712890625 144.30859375 83.5712890625 c 0
 142.166015625 102.142578125 135.737304688 122.857421875 130.737304688 128.571289062 c 0
 125.737304688 134.286132812 120.022460938 157.142578125 117.879882812 178.571289062 c 0
 109.30859375 267.142578125 87.166015625 357.142578125 58.5947265625 419.286132812 c 0
 45.0224609375 448.571289062 45.7373046875 457.142578125 61.451171875 457.142578125 c 0
 87.8798828125 457.142578125 99.30859375 432.142578125 137.879882812 292.857421875 c 0
 142.879882812 275 147.166015625 245 147.879882812 225.713867188 c 0
 148.594726562 206.428710938 152.166015625 185 156.451171875 177.857421875 c 0
 160.022460938 170.713867188 162.879882812 158.571289062 162.879882812 150.713867188 c 0
 162.879882812 126.428710938 174.30859375 133.571289062 189.30859375 166.428710938 c 0
 202.879882812 195 240.022460938 313.571289062 246.451171875 350 c 0
 250.022460938 368.571289062 265.737304688 408.571289062 277.879882812 431.428710938 c 0
 282.166015625 438.571289062 282.879882812 457.142578125 280.737304688 472.142578125 c 0
 276.451171875 498.571289062 277.166015625 500.713867188 300.022460938 510 c 0
EndSplineSet
EndChar

StartChar: w
Encoding: 119 119 83
Width: 557
Flags: HMW
HStem: 67.8574 89.2852
LayerCount: 2
Fore
SplineSet
60.4736328125 482.142578125 m 0
 60.4736328125 501.283203125 65.2060546875 509.092773438 85.47265625 505.71484375 c 0
 100.47265625 503.572265625 99.7578125 507.143554688 114.043945312 385.71484375 c 0
 116.186523438 367.858398438 121.186523438 350.71484375 124.7578125 347.143554688 c 0
 129.043945312 342.858398438 131.901367188 332.858398438 131.901367188 323.572265625 c 0
 131.901367188 314.287109375 134.7578125 301.4296875 139.043945312 294.287109375 c 0
 142.615234375 287.858398438 147.615234375 262.858398438 149.7578125 239.287109375 c 0
 154.043945312 204.287109375 156.186523438 199.287109375 162.615234375 210.71484375 c 0
 166.901367188 218.572265625 173.330078125 228.572265625 177.615234375 233.572265625 c 0
 181.901367188 237.858398438 195.47265625 258.572265625 206.901367188 278.572265625 c 0
 241.901367188 339.287109375 250.47265625 347.858398438 265.47265625 338.572265625 c 0
 272.615234375 334.287109375 277.615234375 324.287109375 276.186523438 315.71484375 c 0
 274.7578125 307.858398438 277.615234375 299.287109375 281.901367188 296.4296875 c 0
 285.47265625 294.287109375 289.043945312 280.71484375 289.043945312 266.4296875 c 0
 289.043945312 237.858398438 322.615234375 157.143554688 334.7578125 157.143554688 c 0
 343.330078125 157.143554688 354.043945312 180.000976562 366.901367188 225.71484375 c 0
 371.186523438 242.143554688 381.901367188 265.71484375 390.47265625 279.287109375 c 0
 412.200195312 311.043945312 430.548828125 373.4453125 447.616210938 409.287109375 c 0
 454.758789062 424.287109375 459.044921875 442.858398438 456.90234375 450.000976562 c 0
 450.473632812 470.71484375 479.044921875 483.572265625 496.90234375 467.143554688 c 0
 514.044921875 452.143554688 514.044921875 446.4296875 497.616210938 422.858398438 c 0
 490.473632812 412.143554688 480.473632812 389.287109375 474.758789062 371.4296875 c 0
 469.758789062 353.572265625 454.044921875 315.000976562 440.473632812 285.71484375 c 0
 417.616210938 237.143554688 388.331054688 162.858398438 376.90234375 125.000976562 c 0
 370.033203125 106.111328125 359.369140625 107.767578125 357.616210938 85 c 0
 356.90234375 70.7138671875 352.616210938 67.857421875 336.1875 67.857421875 c 0
 317.616210938 67.857421875 314.044921875 71.4287109375 304.758789062 100 c 0
 295.028320312 130.41015625 266.072265625 202.524414062 257.616210938 230.713867188 c 0
 255.473632812 237.142578125 250.473632812 242.857421875 246.90234375 242.857421875 c 0
 236.90234375 242.857421875 196.90234375 177.142578125 181.90234375 135 c 0
 164.758789062 87.857421875 156.90234375 80 140.473632812 90 c 0
 131.90234375 95.7138671875 127.616210938 109.286132812 126.1875 136.428710938 c 0
 124.044921875 186.428710938 105.473632812 295.713867188 92.6162109375 332.142578125 c 0
 79.77734375 367.453125 80.1201171875 405.798828125 59.044921875 432.142578125 c 0
 48.3310546875 446.428710938 46.1875 452.857421875 52.6162109375 459.286132812 c 0
 56.90234375 463.571289062 60.4736328125 474.286132812 60.4736328125 482.142578125 c 0
EndSplineSet
EndChar

StartChar: x
Encoding: 120 120 84
Width: 463
Flags: HMW
HStem: 442.857 57.1426<65.0243 81.8099>
VStem: 272.167 80.7148
LayerCount: 2
Fore
SplineSet
297.8828125 500 m 0
 325.025390625 523.571289062 340.739257812 525.713867188 352.8828125 506.428710938 c 0
 357.8828125 498.571289062 355.025390625 488.571289062 342.8828125 470 c 0
 227.8828125 297.142578125 235.025390625 326.428710938 290.025390625 262.857421875 c 0
 353.596679688 187.857421875 365.739257812 172.142578125 377.16796875 148.571289062 c 0
 383.596679688 135.713867188 394.310546875 116.428710938 402.16796875 105.713867188 c 0
 430.739257812 64.2861328125 404.310546875 39.2861328125 372.8828125 79.2861328125 c 0
 350.739257812 107.142578125 336.454101562 133.571289062 336.454101562 146.428710938 c 0
 336.454101562 150.713867188 317.16796875 175.713867188 292.8828125 200.713867188 c 0
 269.310546875 225.713867188 243.596679688 254.286132812 236.454101562 263.571289062 c 2
 224.310546875 280.713867188 l 1
 195.025390625 230.713867188 l 2
 136.454101562 131.428710938 77.8828125 62.857421875 62.16796875 78.5712890625 c 0
 52.8828125 87.857421875 63.5966796875 109.286132812 105.025390625 164.286132812 c 0
 124.310546875 190 149.310546875 228.571289062 160.025390625 250 c 0
 170.739257812 271.428710938 183.596679688 295 187.8828125 301.428710938 c 0
 195.025390625 311.428710938 190.739257812 320 157.16796875 355 c 0
 135.739257812 377.857421875 110.739257812 407.142578125 101.454101562 420 c 0
 91.4541015625 434.286132812 79.310546875 442.857421875 69.310546875 442.857421875 c 0
 60.7392578125 442.857421875 51.4541015625 445 48.5966796875 447.142578125 c 0
 43.5966796875 452.142578125 71.4541015625 500 79.310546875 500 c 0
 84.310546875 500 117.16796875 462.857421875 147.16796875 422.857421875 c 0
 161.200195312 406.48828125 179.8203125 390.875976562 196.454101562 372.857421875 c 2
 212.16796875 357.142578125 l 1
 227.16796875 377.142578125 l 2
 247.16796875 403.571289062 272.16796875 454.286132812 272.16796875 467.142578125 c 0
 272.16796875 472.142578125 283.596679688 487.142578125 297.8828125 500 c 0
EndSplineSet
EndChar

StartChar: y
Encoding: 121 121 85
Width: 414
Flags: HMW
VStem: 61.8486 46.4287 75.4198 46.4287 279.706 50<365.714 402.857>
LayerCount: 2
Fore
SplineSet
67.5615234375 450 m 0xa0
 92.5615234375 460 93.990234375 459.286132812 108.276367188 425.713867188 c 0xa0
 116.84765625 405 121.84765625 377.142578125 121.84765625 347.142578125 c 0
 121.84765625 321.428710938 124.705078125 295 128.276367188 287.857421875 c 0
 131.84765625 280.713867188 136.84765625 264.286132812 138.990234375 251.428710938 c 0
 144.705078125 221.428710938 172.561523438 157.142578125 179.705078125 157.142578125 c 0
 186.1328125 157.142578125 215.418945312 214.286132812 215.418945312 226.428710938 c 0
 215.418945312 230.713867188 220.418945312 237.857421875 225.418945312 242.857421875 c 0
 231.1328125 247.142578125 241.1328125 267.142578125 248.276367188 287.142578125 c 0
 254.705078125 307.142578125 264.705078125 331.428710938 269.705078125 342.142578125 c 0
 275.418945312 352.142578125 279.705078125 373.571289062 279.705078125 390 c 0
 279.705078125 415.713867188 282.561523438 420.713867188 308.990234375 437.857421875 c 0
 331.84765625 452.857421875 341.1328125 455.713867188 351.84765625 450 c 0
 370.418945312 440 368.990234375 425 347.561523438 397.142578125 c 0
 337.561523438 384.286132812 329.705078125 371.428710938 329.705078125 368.571289062 c 0
 329.705078125 362.857421875 303.276367188 306.428710938 242.561523438 182.857421875 c 0
 223.990234375 144.286132812 208.276367188 107.142578125 208.276367188 100 c 0
 208.276367188 92.857421875 203.276367188 83.5712890625 197.561523438 78.5712890625 c 0
 191.84765625 73.5712890625 186.84765625 66.4287109375 186.84765625 62.857421875 c 0
 186.84765625 58.5712890625 177.561523438 35.7138671875 166.1328125 11.4287109375 c 0
 154.705078125 -12.142578125 141.84765625 -40.7138671875 137.561523438 -51.4287109375 c 0
 131.1328125 -67.857421875 125.418945312 -71.4287109375 105.418945312 -71.4287109375 c 2
 80.4189453125 -71.4287109375 l 1
 116.1328125 3.5712890625 l 2
 152.561523438 80.7138671875 155.418945312 91.4287109375 144.705078125 112.857421875 c 0
 127.561523438 147.857421875 115.418945312 178.571289062 104.705078125 210 c 0
 98.990234375 228.571289062 90.4189453125 250.713867188 86.1328125 257.857421875 c 0
 82.5615234375 265 77.5615234375 297.142578125 75.4189453125 329.286132812 c 0x60
 73.990234375 361.428710938 67.5615234375 396.428710938 61.84765625 407.857421875 c 0
 47.5615234375 435 48.2763671875 442.142578125 67.5615234375 450 c 0xa0
EndSplineSet
EndChar

StartChar: z
Encoding: 122 122 86
Width: 440
Flags: HMW
HStem: 52.1426 65
LayerCount: 2
Fore
SplineSet
335.946289062 475 m 0
 343.802734375 480.713867188 358.087890625 484.28515625 368.087890625 482.856445312 c 0
 381.659179688 481.427734375 386.659179688 476.427734375 388.087890625 461.427734375 c 0
 390.23046875 444.999023438 383.801757812 434.28515625 356.659179688 408.5703125 c 0
 338.087890625 389.999023438 317.373046875 362.141601562 310.23046875 346.427734375 c 0
 293.036132812 306.877929688 278.077148438 293.659179688 253.801757812 260.712890625 c 0
 243.801757812 246.427734375 224.516601562 219.28515625 210.23046875 200.712890625 c 0
 170.9453125 149.28515625 157.373046875 120.712890625 169.516601562 113.5703125 c 0
 180.23046875 106.427734375 314.516601562 109.28515625 336.659179688 117.141601562 c 0
 346.659179688 120.712890625 356.659179688 117.856445312 368.801757812 107.856445312 c 2
 385.9453125 92.8564453125 l 1
 370.987304688 79.4814453125 356.228515625 65.9072265625 341.66015625 52.142578125 c 1
 238.802734375 54.2861328125 l 2
 160.231445312 56.4287109375 125.946289062 54.2861328125 94.517578125 45 c 0
 37.3740234375 29.2861328125 24.517578125 47.142578125 63.0888671875 87.142578125 c 0
 98.0888671875 123.571289062 146.66015625 185 146.66015625 192.142578125 c 0
 146.66015625 197.142578125 155.946289062 210.713867188 167.374023438 222.857421875 c 0
 179.517578125 235.713867188 192.374023438 253.571289062 197.374023438 263.571289062 c 0
 203.088867188 274.286132812 221.66015625 300 239.517578125 320.713867188 c 0
 268.802734375 357.142578125 292.374023438 402.142578125 284.517578125 410 c 0
 282.374023438 411.428710938 270.946289062 410 258.802734375 406.428710938 c 0
 221.365234375 395.981445312 125.231445312 397.818359375 125.231445312 437.857421875 c 0
 125.231445312 470 170.231445312 489.286132812 188.802734375 465.713867188 c 0
 199.517578125 451.428710938 203.802734375 451.428710938 260.946289062 457.857421875 c 0
 293.802734375 461.428710938 328.088867188 469.286132812 335.946289062 475 c 0
EndSplineSet
EndChar

StartChar: braceleft
Encoding: 123 123 87
Width: 297
Flags: W
HStem: 40 45.7139<143.27 210.229>
VStem: 105.925 53.5713<92.28 353.545> 120.925 52.1436<445.01 581.041>
LayerCount: 2
Fore
SplineSet
191.639648438 655.713867188 m 0xa0
 233.782226562 702.857421875 249.49609375 708.571289062 265.924804688 685 c 0
 275.2109375 671.428710938 275.2109375 667.142578125 264.49609375 645.713867188 c 0
 258.068359375 632.142578125 248.068359375 621.428710938 240.924804688 621.428710938 c 0
 234.49609375 621.428710938 218.068359375 609.286132812 204.49609375 594.286132812 c 0
 177.353515625 564.286132812 168.068359375 525 173.068359375 462.857421875 c 0xa0
 175.924804688 433.571289062 173.782226562 427.142578125 158.782226562 415 c 0
 148.782226562 407.142578125 137.353515625 399.286132812 132.353515625 397.857421875 c 0
 127.353515625 395.713867188 131.639648438 387.857421875 143.782226562 375.713867188 c 0
 163.782226562 357.142578125 164.49609375 355 159.49609375 305 c 0
 156.639648438 276.428710938 151.639648438 240.713867188 147.353515625 225 c 0
 138.782226562 191.428710938 135.924804688 108.571289062 143.068359375 91.4287109375 c 0
 147.353515625 81.4287109375 152.353515625 80.7138671875 171.639648438 85.7138671875 c 0
 189.49609375 91.4287109375 197.353515625 90 205.924804688 82.142578125 c 0
 220.924804688 66.4287109375 207.353515625 47.857421875 174.49609375 40 c 0
 131.639648438 28.5712890625 112.353515625 40 97.353515625 85 c 0
 84.49609375 122.142578125 84.49609375 127.142578125 94.49609375 173.571289062 c 0
 100.924804688 200.713867188 105.924804688 247.857421875 105.924804688 277.857421875 c 0xc0
 105.924804688 332.857421875 105.924804688 332.857421875 77.353515625 360.713867188 c 0
 42.353515625 394.286132812 42.353515625 412.857421875 76.6396484375 430 c 0
 110.2109375 447.142578125 119.49609375 463.571289062 120.924804688 511.428710938 c 0
 122.353515625 560 129.49609375 588.571289062 143.068359375 602.857421875 c 0
 148.068359375 608.571289062 170.2109375 632.142578125 191.639648438 655.713867188 c 0xa0
EndSplineSet
EndChar

StartChar: bar
Encoding: 124 124 88
Width: 190
Flags: HMW
VStem: 59.4862 42.1426 80.9149 43.5713
LayerCount: 2
Fore
SplineSet
80.9150390625 646.428710938 m 0x40
 85.2265625 676.603515625 88.9111328125 703.481445312 115.915039062 698.571289062 c 0
 128.057617188 697.142578125 130.915039062 692.142578125 129.486328125 671.428710938 c 0
 128.772460938 657.857421875 126.62890625 584.286132812 124.486328125 509.286132812 c 0
 121.62890625 433.571289062 116.62890625 363.571289062 113.057617188 353.571289062 c 0
 105.915039062 335 88.7724609375 330 80.9150390625 343.571289062 c 0
 73.7724609375 354.286132812 73.7724609375 602.857421875 80.9150390625 646.428710938 c 0x40
77.34375 296.428710938 m 0
 88.0576171875 309.286132812 101.62890625 310 111.62890625 297.857421875 c 0
 119.486328125 288.571289062 113.057617188 161.428710938 101.62890625 98.5712890625 c 0
 96.62890625 67.857421875 83.0576171875 53.5712890625 65.9150390625 60 c 0
 55.9150390625 63.5712890625 55.201171875 72.142578125 59.486328125 115.713867188 c 0x80
 62.34375 143.571289062 65.201171875 193.571289062 66.62890625 225.713867188 c 0
 67.34375 261.428710938 71.62890625 289.286132812 77.34375 296.428710938 c 0
EndSplineSet
EndChar

StartChar: braceright
Encoding: 125 125 89
Width: 299
Flags: W
HStem: 681.428 51.4287<56.397 159.529>
VStem: 172.326 42.8564<408.533 667.763>
LayerCount: 2
Fore
SplineSet
73.0400390625 727.141601562 m 0
 83.7548828125 732.141601562 103.754882812 734.999023438 123.040039062 732.856445312 c 0
 150.182617188 730.712890625 159.46875 724.999023438 184.46875 697.141601562 c 0
 208.754882812 670.712890625 215.897460938 656.427734375 221.611328125 622.141601562 c 0
 226.611328125 594.999023438 226.611328125 570.712890625 223.040039062 556.427734375 c 0
 218.754882812 543.5703125 215.897460938 502.856445312 215.182617188 466.427734375 c 0
 213.754882812 402.856445312 214.46875 398.5703125 233.040039062 379.999023438 c 0
 259.46875 352.141601562 256.611328125 335.712890625 220.182617188 305.712890625 c 0
 182.326171875 273.5703125 156.611328125 222.141601562 160.182617188 186.427734375 c 0
 166.611328125 135.712890625 123.040039062 58.5703125 88.7548828125 57.1416015625 c 0
 83.7548828125 57.1416015625 76.611328125 49.28515625 73.0400390625 39.28515625 c 0
 64.46875 16.427734375 61.611328125 17.1416015625 48.0400390625 42.8564453125 c 0
 34.46875 68.5703125 42.326171875 87.1416015625 70.8974609375 101.427734375 c 0
 100.182617188 114.999023438 110.897460938 144.999023438 112.326171875 214.999023438 c 0
 115.182617188 293.5703125 118.040039062 302.856445312 150.182617188 321.427734375 c 0
 175.897460938 337.141601562 175.897460938 337.141601562 161.611328125 349.28515625 c 0
 143.040039062 364.28515625 135.897460938 390.712890625 147.326171875 402.141601562 c 0
 160.182617188 414.999023438 174.46875 522.856445312 172.326171875 591.427734375 c 0
 170.897460938 641.427734375 168.040039062 652.141601562 154.46875 664.999023438 c 0
 144.46875 674.28515625 133.040039062 678.5703125 125.182617188 675.712890625 c 0
 118.040039062 673.5703125 99.46875 676.427734375 83.7548828125 681.427734375 c 0
 50.1826171875 693.5703125 45.8974609375 712.141601562 73.0400390625 727.141601562 c 0
EndSplineSet
EndChar

